  0
SECTION
  2
BLOCKS
  0
ENDSEC
  0
SECTION
  2
ENTITIES
  0
LINE
  8
0
 10
30.125
 20
25.0031
 11
30.2453
 21
25.006
  0
LINE
  8
0
 10
30.2453
 20
25.006
 11
30.4901
 21
25.0241
  0
LINE
  8
0
 10
30.4901
 20
25.0241
 11
30.7336
 21
25.0541
  0
LINE
  8
0
 10
30.7336
 20
25.0541
 11
30.9754
 21
25.0961
  0
LINE
  8
0
 10
30.9754
 20
25.0961
 11
31.2149
 21
25.1499
  0
LINE
  8
0
 10
31.2149
 20
25.1499
 11
31.4514
 21
25.2153
  0
LINE
  8
0
 10
31.4514
 20
25.2153
 11
31.6844
 21
25.2923
  0
LINE
  8
0
 10
31.6844
 20
25.2923
 11
31.9134
 21
25.3806
  0
LINE
  8
0
 10
31.9134
 20
25.3806
 11
32.1378
 21
25.4801
  0
LINE
  8
0
 10
32.1378
 20
25.4801
 11
32.357
 21
25.5904
  0
LINE
  8
0
 10
32.357
 20
25.5904
 11
32.5705
 21
25.7114
  0
LINE
  8
0
 10
32.5705
 20
25.7114
 11
32.7778
 21
25.8427
  0
LINE
  8
0
 10
32.7778
 20
25.8427
 11
32.9785
 21
25.984
  0
LINE
  8
0
 10
32.9785
 20
25.984
 11
33.172
 21
26.1349
  0
LINE
  8
0
 10
33.172
 20
26.1349
 11
33.3578
 21
26.2953
  0
LINE
  8
0
 10
33.3578
 20
26.2953
 11
33.5355
 21
26.4645
  0
LINE
  8
0
 10
33.5355
 20
26.4645
 11
33.7047
 21
26.6422
  0
LINE
  8
0
 10
33.7047
 20
26.6422
 11
33.8651
 21
26.828
  0
LINE
  8
0
 10
33.8651
 20
26.828
 11
34.016
 21
27.0215
  0
LINE
  8
0
 10
34.016
 20
27.0215
 11
34.1573
 21
27.2222
  0
LINE
  8
0
 10
34.1573
 20
27.2222
 11
34.2886
 21
27.4295
  0
LINE
  8
0
 10
34.2886
 20
27.4295
 11
34.4096
 21
27.643
  0
LINE
  8
0
 10
34.4096
 20
27.643
 11
34.5199
 21
27.8622
  0
LINE
  8
0
 10
34.5199
 20
27.8622
 11
34.6194
 21
28.0866
  0
LINE
  8
0
 10
34.6194
 20
28.0866
 11
34.7077
 21
28.3156
  0
LINE
  8
0
 10
34.7077
 20
28.3156
 11
34.7847
 21
28.5486
  0
LINE
  8
0
 10
34.7847
 20
28.5486
 11
34.8501
 21
28.7851
  0
LINE
  8
0
 10
34.8501
 20
28.7851
 11
34.9039
 21
29.0246
  0
LINE
  8
0
 10
34.9039
 20
29.0246
 11
34.9459
 21
29.2664
  0
LINE
  8
0
 10
34.9459
 20
29.2664
 11
34.9759
 21
29.5099
  0
LINE
  8
0
 10
34.9759
 20
29.5099
 11
34.994
 21
29.7547
  0
LINE
  8
0
 10
34.994
 20
29.7547
 11
34.9969
 21
29.875
  0
LINE
  8
0
 10
34.9969
 20
29.875
 11
35
 21
29.875
  0
LINE
  8
0
 10
35
 20
29.875
 11
35
 21
30.125
  0
LINE
  8
0
 10
35
 20
30.125
 11
34.9969
 21
30.125
  0
LINE
  8
0
 10
34.9969
 20
30.125
 11
34.994
 21
30.2453
  0
LINE
  8
0
 10
34.994
 20
30.2453
 11
34.9759
 21
30.4901
  0
LINE
  8
0
 10
34.9759
 20
30.4901
 11
34.9459
 21
30.7336
  0
LINE
  8
0
 10
34.9459
 20
30.7336
 11
34.9039
 21
30.9754
  0
LINE
  8
0
 10
34.9039
 20
30.9754
 11
34.8501
 21
31.2149
  0
LINE
  8
0
 10
34.8501
 20
31.2149
 11
34.7847
 21
31.4514
  0
LINE
  8
0
 10
34.7847
 20
31.4514
 11
34.7077
 21
31.6844
  0
LINE
  8
0
 10
34.7077
 20
31.6844
 11
34.6194
 21
31.9134
  0
LINE
  8
0
 10
34.6194
 20
31.9134
 11
34.5199
 21
32.1378
  0
LINE
  8
0
 10
34.5199
 20
32.1378
 11
34.4096
 21
32.357
  0
LINE
  8
0
 10
34.4096
 20
32.357
 11
34.2886
 21
32.5705
  0
LINE
  8
0
 10
34.2886
 20
32.5705
 11
34.1573
 21
32.7778
  0
LINE
  8
0
 10
34.1573
 20
32.7778
 11
34.016
 21
32.9785
  0
LINE
  8
0
 10
34.016
 20
32.9785
 11
33.8651
 21
33.172
  0
LINE
  8
0
 10
33.8651
 20
33.172
 11
33.7047
 21
33.3578
  0
LINE
  8
0
 10
33.7047
 20
33.3578
 11
33.5355
 21
33.5355
  0
LINE
  8
0
 10
33.5355
 20
33.5355
 11
33.3578
 21
33.7047
  0
LINE
  8
0
 10
33.3578
 20
33.7047
 11
33.172
 21
33.8651
  0
LINE
  8
0
 10
33.172
 20
33.8651
 11
32.9785
 21
34.016
  0
LINE
  8
0
 10
32.9785
 20
34.016
 11
32.7778
 21
34.1573
  0
LINE
  8
0
 10
32.7778
 20
34.1573
 11
32.5705
 21
34.2886
  0
LINE
  8
0
 10
32.5705
 20
34.2886
 11
32.357
 21
34.4096
  0
LINE
  8
0
 10
32.357
 20
34.4096
 11
32.1378
 21
34.5199
  0
LINE
  8
0
 10
32.1378
 20
34.5199
 11
31.9134
 21
34.6194
  0
LINE
  8
0
 10
31.9134
 20
34.6194
 11
31.6844
 21
34.7077
  0
LINE
  8
0
 10
31.6844
 20
34.7077
 11
31.4514
 21
34.7847
  0
LINE
  8
0
 10
31.4514
 20
34.7847
 11
31.2149
 21
34.8501
  0
LINE
  8
0
 10
31.2149
 20
34.8501
 11
30.9754
 21
34.9039
  0
LINE
  8
0
 10
30.9754
 20
34.9039
 11
30.7336
 21
34.9459
  0
LINE
  8
0
 10
30.7336
 20
34.9459
 11
30.4901
 21
34.9759
  0
LINE
  8
0
 10
30.4901
 20
34.9759
 11
30.2453
 21
34.994
  0
LINE
  8
0
 10
30.2453
 20
34.994
 11
30.125
 21
34.9969
  0
LINE
  8
0
 10
30.125
 20
34.9969
 11
30.125
 21
35
  0
LINE
  8
0
 10
30.125
 20
35
 11
29.875
 21
35
  0
LINE
  8
0
 10
29.875
 20
35
 11
29.875
 21
34.9969
  0
LINE
  8
0
 10
29.875
 20
34.9969
 11
29.7547
 21
34.994
  0
LINE
  8
0
 10
29.7547
 20
34.994
 11
29.5099
 21
34.9759
  0
LINE
  8
0
 10
29.5099
 20
34.9759
 11
29.2664
 21
34.9459
  0
LINE
  8
0
 10
29.2664
 20
34.9459
 11
29.0246
 21
34.9039
  0
LINE
  8
0
 10
29.0246
 20
34.9039
 11
28.7851
 21
34.8501
  0
LINE
  8
0
 10
28.7851
 20
34.8501
 11
28.5486
 21
34.7847
  0
LINE
  8
0
 10
28.5486
 20
34.7847
 11
28.3156
 21
34.7077
  0
LINE
  8
0
 10
28.3156
 20
34.7077
 11
28.0866
 21
34.6194
  0
LINE
  8
0
 10
28.0866
 20
34.6194
 11
27.8622
 21
34.5199
  0
LINE
  8
0
 10
27.8622
 20
34.5199
 11
27.643
 21
34.4096
  0
LINE
  8
0
 10
27.643
 20
34.4096
 11
27.4295
 21
34.2886
  0
LINE
  8
0
 10
27.4295
 20
34.2886
 11
27.2222
 21
34.1573
  0
LINE
  8
0
 10
27.2222
 20
34.1573
 11
27.0215
 21
34.016
  0
LINE
  8
0
 10
27.0215
 20
34.016
 11
26.828
 21
33.8651
  0
LINE
  8
0
 10
26.828
 20
33.8651
 11
26.6422
 21
33.7047
  0
LINE
  8
0
 10
26.6422
 20
33.7047
 11
26.4645
 21
33.5355
  0
LINE
  8
0
 10
26.4645
 20
33.5355
 11
26.2953
 21
33.3578
  0
LINE
  8
0
 10
26.2953
 20
33.3578
 11
26.1349
 21
33.172
  0
LINE
  8
0
 10
26.1349
 20
33.172
 11
25.984
 21
32.9785
  0
LINE
  8
0
 10
25.984
 20
32.9785
 11
25.8427
 21
32.7778
  0
LINE
  8
0
 10
25.8427
 20
32.7778
 11
25.7114
 21
32.5705
  0
LINE
  8
0
 10
25.7114
 20
32.5705
 11
25.5904
 21
32.357
  0
LINE
  8
0
 10
25.5904
 20
32.357
 11
25.4801
 21
32.1378
  0
LINE
  8
0
 10
25.4801
 20
32.1378
 11
25.3806
 21
31.9134
  0
LINE
  8
0
 10
25.3806
 20
31.9134
 11
25.2923
 21
31.6844
  0
LINE
  8
0
 10
25.2923
 20
31.6844
 11
25.2153
 21
31.4514
  0
LINE
  8
0
 10
25.2153
 20
31.4514
 11
25.1499
 21
31.2149
  0
LINE
  8
0
 10
25.1499
 20
31.2149
 11
25.0961
 21
30.9754
  0
LINE
  8
0
 10
25.0961
 20
30.9754
 11
25.0541
 21
30.7336
  0
LINE
  8
0
 10
25.0541
 20
30.7336
 11
25.0241
 21
30.4901
  0
LINE
  8
0
 10
25.0241
 20
30.4901
 11
25.006
 21
30.2453
  0
LINE
  8
0
 10
25.006
 20
30.2453
 11
25.0031
 21
30.125
  0
LINE
  8
0
 10
25.0031
 20
30.125
 11
25
 21
30.125
  0
LINE
  8
0
 10
25
 20
30.125
 11
25
 21
29.875
  0
LINE
  8
0
 10
25
 20
29.875
 11
25.0031
 21
29.875
  0
LINE
  8
0
 10
25.0031
 20
29.875
 11
25.006
 21
29.7547
  0
LINE
  8
0
 10
25.006
 20
29.7547
 11
25.0241
 21
29.5099
  0
LINE
  8
0
 10
25.0241
 20
29.5099
 11
25.0541
 21
29.2664
  0
LINE
  8
0
 10
25.0541
 20
29.2664
 11
25.0961
 21
29.0246
  0
LINE
  8
0
 10
25.0961
 20
29.0246
 11
25.1499
 21
28.7851
  0
LINE
  8
0
 10
25.1499
 20
28.7851
 11
25.2153
 21
28.5486
  0
LINE
  8
0
 10
25.2153
 20
28.5486
 11
25.2923
 21
28.3156
  0
LINE
  8
0
 10
25.2923
 20
28.3156
 11
25.3806
 21
28.0866
  0
LINE
  8
0
 10
25.3806
 20
28.0866
 11
25.4801
 21
27.8622
  0
LINE
  8
0
 10
25.4801
 20
27.8622
 11
25.5904
 21
27.643
  0
LINE
  8
0
 10
25.5904
 20
27.643
 11
25.7114
 21
27.4295
  0
LINE
  8
0
 10
25.7114
 20
27.4295
 11
25.8427
 21
27.2222
  0
LINE
  8
0
 10
25.8427
 20
27.2222
 11
25.984
 21
27.0215
  0
LINE
  8
0
 10
25.984
 20
27.0215
 11
26.1349
 21
26.828
  0
LINE
  8
0
 10
26.1349
 20
26.828
 11
26.2953
 21
26.6422
  0
LINE
  8
0
 10
26.2953
 20
26.6422
 11
26.4645
 21
26.4645
  0
LINE
  8
0
 10
26.4645
 20
26.4645
 11
26.6422
 21
26.2953
  0
LINE
  8
0
 10
26.6422
 20
26.2953
 11
26.828
 21
26.1349
  0
LINE
  8
0
 10
26.828
 20
26.1349
 11
27.0215
 21
25.984
  0
LINE
  8
0
 10
27.0215
 20
25.984
 11
27.2222
 21
25.8427
  0
LINE
  8
0
 10
27.2222
 20
25.8427
 11
27.4295
 21
25.7114
  0
LINE
  8
0
 10
27.4295
 20
25.7114
 11
27.643
 21
25.5904
  0
LINE
  8
0
 10
27.643
 20
25.5904
 11
27.8622
 21
25.4801
  0
LINE
  8
0
 10
27.8622
 20
25.4801
 11
28.0866
 21
25.3806
  0
LINE
  8
0
 10
28.0866
 20
25.3806
 11
28.3156
 21
25.2923
  0
LINE
  8
0
 10
28.3156
 20
25.2923
 11
28.5486
 21
25.2153
  0
LINE
  8
0
 10
28.5486
 20
25.2153
 11
28.7851
 21
25.1499
  0
LINE
  8
0
 10
28.7851
 20
25.1499
 11
29.0246
 21
25.0961
  0
LINE
  8
0
 10
29.0246
 20
25.0961
 11
29.2664
 21
25.0541
  0
LINE
  8
0
 10
29.2664
 20
25.0541
 11
29.5099
 21
25.0241
  0
LINE
  8
0
 10
29.5099
 20
25.0241
 11
29.7547
 21
25.006
  0
LINE
  8
0
 10
29.7547
 20
25.006
 11
29.875
 21
25.0031
  0
LINE
  8
0
 10
29.875
 20
25.0031
 11
29.875
 21
25
  0
LINE
  8
0
 10
29.875
 20
25
 11
30.125
 21
25
  0
LINE
  8
0
 10
30.125
 20
25
 11
30.125
 21
25.0031
  0
LINE
  8
0
 10
25.2531
 20
30.125
 11
25.2557
 21
30.2331
  0
LINE
  8
0
 10
25.2557
 20
30.2331
 11
25.2729
 21
30.4656
  0
LINE
  8
0
 10
25.2729
 20
30.4656
 11
25.3014
 21
30.697
  0
LINE
  8
0
 10
25.3014
 20
30.697
 11
25.3413
 21
30.9267
  0
LINE
  8
0
 10
25.3413
 20
30.9267
 11
25.3924
 21
31.1541
  0
LINE
  8
0
 10
25.3924
 20
31.1541
 11
25.4545
 21
31.3788
  0
LINE
  8
0
 10
25.4545
 20
31.3788
 11
25.5277
 21
31.6002
  0
LINE
  8
0
 10
25.5277
 20
31.6002
 11
25.6116
 21
31.8177
  0
LINE
  8
0
 10
25.6116
 20
31.8177
 11
25.7061
 21
32.0309
  0
LINE
  8
0
 10
25.7061
 20
32.0309
 11
25.8109
 21
32.2391
  0
LINE
  8
0
 10
25.8109
 20
32.2391
 11
25.9258
 21
32.442
  0
LINE
  8
0
 10
25.9258
 20
32.442
 11
26.0505
 21
32.6389
  0
LINE
  8
0
 10
26.0505
 20
32.6389
 11
26.1848
 21
32.8296
  0
LINE
  8
0
 10
26.1848
 20
32.8296
 11
26.3282
 21
33.0134
  0
LINE
  8
0
 10
26.3282
 20
33.0134
 11
26.4805
 21
33.1899
  0
LINE
  8
0
 10
26.4805
 20
33.1899
 11
26.6413
 21
33.3587
  0
LINE
  8
0
 10
26.6413
 20
33.3587
 11
26.8101
 21
33.5195
  0
LINE
  8
0
 10
26.8101
 20
33.5195
 11
26.9866
 21
33.6718
  0
LINE
  8
0
 10
26.9866
 20
33.6718
 11
27.1704
 21
33.8152
  0
LINE
  8
0
 10
27.1704
 20
33.8152
 11
27.3611
 21
33.9495
  0
LINE
  8
0
 10
27.3611
 20
33.9495
 11
27.558
 21
34.0742
  0
LINE
  8
0
 10
27.558
 20
34.0742
 11
27.7609
 21
34.1891
  0
LINE
  8
0
 10
27.7609
 20
34.1891
 11
27.9691
 21
34.2939
  0
LINE
  8
0
 10
27.9691
 20
34.2939
 11
28.1823
 21
34.3884
  0
LINE
  8
0
 10
28.1823
 20
34.3884
 11
28.3998
 21
34.4723
  0
LINE
  8
0
 10
28.3998
 20
34.4723
 11
28.6212
 21
34.5455
  0
LINE
  8
0
 10
28.6212
 20
34.5455
 11
28.8459
 21
34.6076
  0
LINE
  8
0
 10
28.8459
 20
34.6076
 11
29.0733
 21
34.6587
  0
LINE
  8
0
 10
29.0733
 20
34.6587
 11
29.303
 21
34.6986
  0
LINE
  8
0
 10
29.303
 20
34.6986
 11
29.5344
 21
34.7271
  0
LINE
  8
0
 10
29.5344
 20
34.7271
 11
29.7669
 21
34.7443
  0
LINE
  8
0
 10
29.7669
 20
34.7443
 11
29.875
 21
34.7469
  0
LINE
  8
0
 10
29.875
 20
34.7469
 11
29.875
 21
30.125
  0
LINE
  8
0
 10
29.875
 20
30.125
 11
25.2531
 21
30.125
  0
LINE
  8
0
 10
30.125
 20
30.125
 11
30.125
 21
34.7469
  0
LINE
  8
0
 10
30.125
 20
34.7469
 11
30.2331
 21
34.7443
  0
LINE
  8
0
 10
30.2331
 20
34.7443
 11
30.4656
 21
34.7271
  0
LINE
  8
0
 10
30.4656
 20
34.7271
 11
30.697
 21
34.6986
  0
LINE
  8
0
 10
30.697
 20
34.6986
 11
30.9267
 21
34.6587
  0
LINE
  8
0
 10
30.9267
 20
34.6587
 11
31.1541
 21
34.6076
  0
LINE
  8
0
 10
31.1541
 20
34.6076
 11
31.3788
 21
34.5455
  0
LINE
  8
0
 10
31.3788
 20
34.5455
 11
31.6002
 21
34.4723
  0
LINE
  8
0
 10
31.6002
 20
34.4723
 11
31.8177
 21
34.3884
  0
LINE
  8
0
 10
31.8177
 20
34.3884
 11
32.0309
 21
34.2939
  0
LINE
  8
0
 10
32.0309
 20
34.2939
 11
32.2391
 21
34.1891
  0
LINE
  8
0
 10
32.2391
 20
34.1891
 11
32.442
 21
34.0742
  0
LINE
  8
0
 10
32.442
 20
34.0742
 11
32.6389
 21
33.9495
  0
LINE
  8
0
 10
32.6389
 20
33.9495
 11
32.8296
 21
33.8152
  0
LINE
  8
0
 10
32.8296
 20
33.8152
 11
33.0134
 21
33.6718
  0
LINE
  8
0
 10
33.0134
 20
33.6718
 11
33.1899
 21
33.5195
  0
LINE
  8
0
 10
33.1899
 20
33.5195
 11
33.3587
 21
33.3587
  0
LINE
  8
0
 10
33.3587
 20
33.3587
 11
33.5195
 21
33.1899
  0
LINE
  8
0
 10
33.5195
 20
33.1899
 11
33.6718
 21
33.0134
  0
LINE
  8
0
 10
33.6718
 20
33.0134
 11
33.8152
 21
32.8296
  0
LINE
  8
0
 10
33.8152
 20
32.8296
 11
33.9495
 21
32.6389
  0
LINE
  8
0
 10
33.9495
 20
32.6389
 11
34.0742
 21
32.442
  0
LINE
  8
0
 10
34.0742
 20
32.442
 11
34.1891
 21
32.2391
  0
LINE
  8
0
 10
34.1891
 20
32.2391
 11
34.2939
 21
32.0309
  0
LINE
  8
0
 10
34.2939
 20
32.0309
 11
34.3884
 21
31.8177
  0
LINE
  8
0
 10
34.3884
 20
31.8177
 11
34.4723
 21
31.6002
  0
LINE
  8
0
 10
34.4723
 20
31.6002
 11
34.5455
 21
31.3788
  0
LINE
  8
0
 10
34.5455
 20
31.3788
 11
34.6076
 21
31.1541
  0
LINE
  8
0
 10
34.6076
 20
31.1541
 11
34.6587
 21
30.9267
  0
LINE
  8
0
 10
34.6587
 20
30.9267
 11
34.6986
 21
30.697
  0
LINE
  8
0
 10
34.6986
 20
30.697
 11
34.7271
 21
30.4656
  0
LINE
  8
0
 10
34.7271
 20
30.4656
 11
34.7443
 21
30.2331
  0
LINE
  8
0
 10
34.7443
 20
30.2331
 11
34.7469
 21
30.125
  0
LINE
  8
0
 10
34.7469
 20
30.125
 11
30.125
 21
30.125
  0
LINE
  8
0
 10
29.7669
 20
25.2557
 11
29.5344
 21
25.2729
  0
LINE
  8
0
 10
29.5344
 20
25.2729
 11
29.303
 21
25.3014
  0
LINE
  8
0
 10
29.303
 20
25.3014
 11
29.0733
 21
25.3413
  0
LINE
  8
0
 10
29.0733
 20
25.3413
 11
28.8459
 21
25.3924
  0
LINE
  8
0
 10
28.8459
 20
25.3924
 11
28.6212
 21
25.4545
  0
LINE
  8
0
 10
28.6212
 20
25.4545
 11
28.3998
 21
25.5277
  0
LINE
  8
0
 10
28.3998
 20
25.5277
 11
28.1823
 21
25.6116
  0
LINE
  8
0
 10
28.1823
 20
25.6116
 11
27.9691
 21
25.7061
  0
LINE
  8
0
 10
27.9691
 20
25.7061
 11
27.7609
 21
25.8109
  0
LINE
  8
0
 10
27.7609
 20
25.8109
 11
27.558
 21
25.9258
  0
LINE
  8
0
 10
27.558
 20
25.9258
 11
27.3611
 21
26.0505
  0
LINE
  8
0
 10
27.3611
 20
26.0505
 11
27.1704
 21
26.1848
  0
LINE
  8
0
 10
27.1704
 20
26.1848
 11
26.9866
 21
26.3282
  0
LINE
  8
0
 10
26.9866
 20
26.3282
 11
26.8101
 21
26.4805
  0
LINE
  8
0
 10
26.8101
 20
26.4805
 11
26.6413
 21
26.6413
  0
LINE
  8
0
 10
26.6413
 20
26.6413
 11
26.4805
 21
26.8101
  0
LINE
  8
0
 10
26.4805
 20
26.8101
 11
26.3282
 21
26.9866
  0
LINE
  8
0
 10
26.3282
 20
26.9866
 11
26.1848
 21
27.1704
  0
LINE
  8
0
 10
26.1848
 20
27.1704
 11
26.0505
 21
27.3611
  0
LINE
  8
0
 10
26.0505
 20
27.3611
 11
25.9258
 21
27.558
  0
LINE
  8
0
 10
25.9258
 20
27.558
 11
25.8109
 21
27.7609
  0
LINE
  8
0
 10
25.8109
 20
27.7609
 11
25.7061
 21
27.9691
  0
LINE
  8
0
 10
25.7061
 20
27.9691
 11
25.6116
 21
28.1823
  0
LINE
  8
0
 10
25.6116
 20
28.1823
 11
25.5277
 21
28.3998
  0
LINE
  8
0
 10
25.5277
 20
28.3998
 11
25.4545
 21
28.6212
  0
LINE
  8
0
 10
25.4545
 20
28.6212
 11
25.3924
 21
28.8459
  0
LINE
  8
0
 10
25.3924
 20
28.8459
 11
25.3413
 21
29.0733
  0
LINE
  8
0
 10
25.3413
 20
29.0733
 11
25.3014
 21
29.303
  0
LINE
  8
0
 10
25.3014
 20
29.303
 11
25.2729
 21
29.5344
  0
LINE
  8
0
 10
25.2729
 20
29.5344
 11
25.2557
 21
29.7669
  0
LINE
  8
0
 10
25.2557
 20
29.7669
 11
25.2531
 21
29.875
  0
LINE
  8
0
 10
25.2531
 20
29.875
 11
29.875
 21
29.875
  0
LINE
  8
0
 10
29.875
 20
29.875
 11
29.875
 21
25.2531
  0
LINE
  8
0
 10
29.875
 20
25.2531
 11
29.7669
 21
25.2557
  0
LINE
  8
0
 10
30.125
 20
29.875
 11
34.7469
 21
29.875
  0
LINE
  8
0
 10
34.7469
 20
29.875
 11
34.7443
 21
29.7669
  0
LINE
  8
0
 10
34.7443
 20
29.7669
 11
34.7271
 21
29.5344
  0
LINE
  8
0
 10
34.7271
 20
29.5344
 11
34.6986
 21
29.303
  0
LINE
  8
0
 10
34.6986
 20
29.303
 11
34.6587
 21
29.0733
  0
LINE
  8
0
 10
34.6587
 20
29.0733
 11
34.6076
 21
28.8459
  0
LINE
  8
0
 10
34.6076
 20
28.8459
 11
34.5455
 21
28.6212
  0
LINE
  8
0
 10
34.5455
 20
28.6212
 11
34.4723
 21
28.3998
  0
LINE
  8
0
 10
34.4723
 20
28.3998
 11
34.3884
 21
28.1823
  0
LINE
  8
0
 10
34.3884
 20
28.1823
 11
34.2939
 21
27.9691
  0
LINE
  8
0
 10
34.2939
 20
27.9691
 11
34.1891
 21
27.7609
  0
LINE
  8
0
 10
34.1891
 20
27.7609
 11
34.0742
 21
27.558
  0
LINE
  8
0
 10
34.0742
 20
27.558
 11
33.9495
 21
27.3611
  0
LINE
  8
0
 10
33.9495
 20
27.3611
 11
33.8152
 21
27.1704
  0
LINE
  8
0
 10
33.8152
 20
27.1704
 11
33.6718
 21
26.9866
  0
LINE
  8
0
 10
33.6718
 20
26.9866
 11
33.5195
 21
26.8101
  0
LINE
  8
0
 10
33.5195
 20
26.8101
 11
33.3587
 21
26.6413
  0
LINE
  8
0
 10
33.3587
 20
26.6413
 11
33.1899
 21
26.4805
  0
LINE
  8
0
 10
33.1899
 20
26.4805
 11
33.0134
 21
26.3282
  0
LINE
  8
0
 10
33.0134
 20
26.3282
 11
32.8296
 21
26.1848
  0
LINE
  8
0
 10
32.8296
 20
26.1848
 11
32.6389
 21
26.0505
  0
LINE
  8
0
 10
32.6389
 20
26.0505
 11
32.442
 21
25.9258
  0
LINE
  8
0
 10
32.442
 20
25.9258
 11
32.2391
 21
25.8109
  0
LINE
  8
0
 10
32.2391
 20
25.8109
 11
32.0309
 21
25.7061
  0
LINE
  8
0
 10
32.0309
 20
25.7061
 11
31.8177
 21
25.6116
  0
LINE
  8
0
 10
31.8177
 20
25.6116
 11
31.6002
 21
25.5277
  0
LINE
  8
0
 10
31.6002
 20
25.5277
 11
31.3788
 21
25.4545
  0
LINE
  8
0
 10
31.3788
 20
25.4545
 11
31.1541
 21
25.3924
  0
LINE
  8
0
 10
31.1541
 20
25.3924
 11
30.9267
 21
25.3413
  0
LINE
  8
0
 10
30.9267
 20
25.3413
 11
30.697
 21
25.3014
  0
LINE
  8
0
 10
30.697
 20
25.3014
 11
30.4656
 21
25.2729
  0
LINE
  8
0
 10
30.4656
 20
25.2729
 11
30.2331
 21
25.2557
  0
LINE
  8
0
 10
30.2331
 20
25.2557
 11
30.125
 21
25.2531
  0
LINE
  8
0
 10
30.125
 20
25.2531
 11
30.125
 21
29.875
  0
LINE
  8
0
 10
-17.0048
 20
2.09801
 11
-17.0108
 21
2.14673
  0
LINE
  8
0
 10
-17.0108
 20
2.14673
 11
-17.0192
 21
2.19508
  0
LINE
  8
0
 10
-17.0192
 20
2.19508
 11
-17.03
 21
2.24297
  0
LINE
  8
0
 10
-17.03
 20
2.24297
 11
-17.0431
 21
2.29028
  0
LINE
  8
0
 10
-17.0431
 20
2.29028
 11
-17.0585
 21
2.33688
  0
LINE
  8
0
 10
-17.0585
 20
2.33688
 11
-17.0761
 21
2.38268
  0
LINE
  8
0
 10
-17.0761
 20
2.38268
 11
-17.096
 21
2.42755
  0
LINE
  8
0
 10
-17.096
 20
2.42755
 11
-17.1181
 21
2.47139
  0
LINE
  8
0
 10
-17.1181
 20
2.47139
 11
-17.1423
 21
2.5141
  0
LINE
  8
0
 10
-17.1423
 20
2.5141
 11
-17.1685
 21
2.55556
  0
LINE
  8
0
 10
-17.1685
 20
2.55556
 11
-17.1968
 21
2.59569
  0
LINE
  8
0
 10
-17.1968
 20
2.59569
 11
-17.227
 21
2.63438
  0
LINE
  8
0
 10
-17.227
 20
2.63438
 11
-17.2591
 21
2.67155
  0
LINE
  8
0
 10
-17.2591
 20
2.67155
 11
-17.2929
 21
2.70709
  0
LINE
  8
0
 10
-17.2929
 20
2.70709
 11
-17.3284
 21
2.74094
  0
LINE
  8
0
 10
-17.3284
 20
2.74094
 11
-17.3656
 21
2.77301
  0
LINE
  8
0
 10
-17.3656
 20
2.77301
 11
-17.4043
 21
2.80321
  0
LINE
  8
0
 10
-17.4043
 20
2.80321
 11
-17.4444
 21
2.83147
  0
LINE
  8
0
 10
-17.4444
 20
2.83147
 11
-17.4859
 21
2.85773
  0
LINE
  8
0
 10
-17.4859
 20
2.85773
 11
-17.5286
 21
2.88191
  0
LINE
  8
0
 10
-17.5286
 20
2.88191
 11
-17.5724
 21
2.90398
  0
LINE
  8
0
 10
-17.5724
 20
2.90398
 11
-17.6173
 21
2.92387
  0
LINE
  8
0
 10
-17.6173
 20
2.92387
 11
-17.6631
 21
2.94154
  0
LINE
  8
0
 10
-17.6631
 20
2.94154
 11
-17.7097
 21
2.95694
  0
LINE
  8
0
 10
-17.7097
 20
2.95694
 11
-17.757
 21
2.97002
  0
LINE
  8
0
 10
-17.757
 20
2.97002
 11
-17.8049
 21
2.98077
  0
LINE
  8
0
 10
-17.8049
 20
2.98077
 11
-17.8533
 21
2.98917
  0
LINE
  8
0
 10
-17.8533
 20
2.98917
 11
-17.902
 21
2.99518
  0
LINE
  8
0
 10
-17.902
 20
2.99518
 11
-17.9509
 21
2.99879
  0
LINE
  8
0
 10
-17.9509
 20
2.99879
 11
-18
 21
3
  0
LINE
  8
0
 10
-18
 20
3
 11
-34
 21
3
  0
LINE
  8
0
 10
-34
 20
3
 11
-34.0491
 21
3.00121
  0
LINE
  8
0
 10
-34.0491
 20
3.00121
 11
-34.098
 21
3.00482
  0
LINE
  8
0
 10
-34.098
 20
3.00482
 11
-34.1467
 21
3.01083
  0
LINE
  8
0
 10
-34.1467
 20
3.01083
 11
-34.1951
 21
3.01923
  0
LINE
  8
0
 10
-34.1951
 20
3.01923
 11
-34.243
 21
3.02998
  0
LINE
  8
0
 10
-34.243
 20
3.02998
 11
-34.2903
 21
3.04306
  0
LINE
  8
0
 10
-34.2903
 20
3.04306
 11
-34.3369
 21
3.05846
  0
LINE
  8
0
 10
-34.3369
 20
3.05846
 11
-34.3827
 21
3.07613
  0
LINE
  8
0
 10
-34.3827
 20
3.07613
 11
-34.4276
 21
3.09602
  0
LINE
  8
0
 10
-34.4276
 20
3.09602
 11
-34.4714
 21
3.11809
  0
LINE
  8
0
 10
-34.4714
 20
3.11809
 11
-34.5141
 21
3.14227
  0
LINE
  8
0
 10
-34.5141
 20
3.14227
 11
-34.5556
 21
3.16853
  0
LINE
  8
0
 10
-34.5556
 20
3.16853
 11
-34.5957
 21
3.19679
  0
LINE
  8
0
 10
-34.5957
 20
3.19679
 11
-34.6344
 21
3.22699
  0
LINE
  8
0
 10
-34.6344
 20
3.22699
 11
-34.6716
 21
3.25906
  0
LINE
  8
0
 10
-34.6716
 20
3.25906
 11
-34.7071
 21
3.29291
  0
LINE
  8
0
 10
-34.7071
 20
3.29291
 11
-34.7409
 21
3.32845
  0
LINE
  8
0
 10
-34.7409
 20
3.32845
 11
-34.773
 21
3.36562
  0
LINE
  8
0
 10
-34.773
 20
3.36562
 11
-34.8032
 21
3.40431
  0
LINE
  8
0
 10
-34.8032
 20
3.40431
 11
-34.8315
 21
3.44444
  0
LINE
  8
0
 10
-34.8315
 20
3.44444
 11
-34.8577
 21
3.4859
  0
LINE
  8
0
 10
-34.8577
 20
3.4859
 11
-34.8819
 21
3.52861
  0
LINE
  8
0
 10
-34.8819
 20
3.52861
 11
-34.904
 21
3.57245
  0
LINE
  8
0
 10
-34.904
 20
3.57245
 11
-34.9239
 21
3.61732
  0
LINE
  8
0
 10
-34.9239
 20
3.61732
 11
-34.9415
 21
3.66312
  0
LINE
  8
0
 10
-34.9415
 20
3.66312
 11
-34.9569
 21
3.70972
  0
LINE
  8
0
 10
-34.9569
 20
3.70972
 11
-34.97
 21
3.75703
  0
LINE
  8
0
 10
-34.97
 20
3.75703
 11
-34.9808
 21
3.80492
  0
LINE
  8
0
 10
-34.9808
 20
3.80492
 11
-34.9892
 21
3.85327
  0
LINE
  8
0
 10
-34.9892
 20
3.85327
 11
-34.9952
 21
3.90199
  0
LINE
  8
0
 10
-34.9952
 20
3.90199
 11
-34.9988
 21
3.95094
  0
LINE
  8
0
 10
-34.9988
 20
3.95094
 11
-35
 21
4
  0
LINE
  8
0
 10
-35
 20
4
 11
-35
 21
9
  0
LINE
  8
0
 10
-35
 20
9
 11
-35.0012
 21
9.04906
  0
LINE
  8
0
 10
-35.0012
 20
9.04906
 11
-35.0048
 21
9.09801
  0
LINE
  8
0
 10
-35.0048
 20
9.09801
 11
-35.0108
 21
9.14673
  0
LINE
  8
0
 10
-35.0108
 20
9.14673
 11
-35.0192
 21
9.19508
  0
LINE
  8
0
 10
-35.0192
 20
9.19508
 11
-35.03
 21
9.24297
  0
LINE
  8
0
 10
-35.03
 20
9.24297
 11
-35.0431
 21
9.29028
  0
LINE
  8
0
 10
-35.0431
 20
9.29028
 11
-35.0585
 21
9.33688
  0
LINE
  8
0
 10
-35.0585
 20
9.33688
 11
-35.0761
 21
9.38268
  0
LINE
  8
0
 10
-35.0761
 20
9.38268
 11
-35.096
 21
9.42755
  0
LINE
  8
0
 10
-35.096
 20
9.42755
 11
-35.1181
 21
9.47139
  0
LINE
  8
0
 10
-35.1181
 20
9.47139
 11
-35.1423
 21
9.5141
  0
LINE
  8
0
 10
-35.1423
 20
9.5141
 11
-35.1685
 21
9.55556
  0
LINE
  8
0
 10
-35.1685
 20
9.55556
 11
-35.1968
 21
9.59569
  0
LINE
  8
0
 10
-35.1968
 20
9.59569
 11
-35.227
 21
9.63438
  0
LINE
  8
0
 10
-35.227
 20
9.63438
 11
-35.2591
 21
9.67155
  0
LINE
  8
0
 10
-35.2591
 20
9.67155
 11
-35.2929
 21
9.70709
  0
LINE
  8
0
 10
-35.2929
 20
9.70709
 11
-35.3284
 21
9.74094
  0
LINE
  8
0
 10
-35.3284
 20
9.74094
 11
-35.3656
 21
9.77301
  0
LINE
  8
0
 10
-35.3656
 20
9.77301
 11
-35.4043
 21
9.80321
  0
LINE
  8
0
 10
-35.4043
 20
9.80321
 11
-35.4444
 21
9.83147
  0
LINE
  8
0
 10
-35.4444
 20
9.83147
 11
-35.4859
 21
9.85773
  0
LINE
  8
0
 10
-35.4859
 20
9.85773
 11
-35.5286
 21
9.88191
  0
LINE
  8
0
 10
-35.5286
 20
9.88191
 11
-35.5724
 21
9.90398
  0
LINE
  8
0
 10
-35.5724
 20
9.90398
 11
-35.6173
 21
9.92387
  0
LINE
  8
0
 10
-35.6173
 20
9.92387
 11
-35.6631
 21
9.94154
  0
LINE
  8
0
 10
-35.6631
 20
9.94154
 11
-35.7097
 21
9.95694
  0
LINE
  8
0
 10
-35.7097
 20
9.95694
 11
-35.757
 21
9.97002
  0
LINE
  8
0
 10
-35.757
 20
9.97002
 11
-35.8049
 21
9.98077
  0
LINE
  8
0
 10
-35.8049
 20
9.98077
 11
-35.8533
 21
9.98917
  0
LINE
  8
0
 10
-35.8533
 20
9.98917
 11
-35.902
 21
9.99518
  0
LINE
  8
0
 10
-35.902
 20
9.99518
 11
-35.9509
 21
9.99879
  0
LINE
  8
0
 10
-35.9509
 20
9.99879
 11
-36
 21
10
  0
LINE
  8
0
 10
-36
 20
10
 11
-54
 21
10
  0
LINE
  8
0
 10
-54
 20
10
 11
-54.0491
 21
9.99879
  0
LINE
  8
0
 10
-54.0491
 20
9.99879
 11
-54.098
 21
9.99518
  0
LINE
  8
0
 10
-54.098
 20
9.99518
 11
-54.1467
 21
9.98917
  0
LINE
  8
0
 10
-54.1467
 20
9.98917
 11
-54.1951
 21
9.98077
  0
LINE
  8
0
 10
-54.1951
 20
9.98077
 11
-54.243
 21
9.97002
  0
LINE
  8
0
 10
-54.243
 20
9.97002
 11
-54.2903
 21
9.95694
  0
LINE
  8
0
 10
-54.2903
 20
9.95694
 11
-54.3369
 21
9.94154
  0
LINE
  8
0
 10
-54.3369
 20
9.94154
 11
-54.3827
 21
9.92387
  0
LINE
  8
0
 10
-54.3827
 20
9.92387
 11
-54.4276
 21
9.90398
  0
LINE
  8
0
 10
-54.4276
 20
9.90398
 11
-54.4714
 21
9.88191
  0
LINE
  8
0
 10
-54.4714
 20
9.88191
 11
-54.5141
 21
9.85773
  0
LINE
  8
0
 10
-54.5141
 20
9.85773
 11
-54.5556
 21
9.83147
  0
LINE
  8
0
 10
-54.5556
 20
9.83147
 11
-54.5957
 21
9.80321
  0
LINE
  8
0
 10
-54.5957
 20
9.80321
 11
-54.6344
 21
9.77301
  0
LINE
  8
0
 10
-54.6344
 20
9.77301
 11
-54.6716
 21
9.74094
  0
LINE
  8
0
 10
-54.6716
 20
9.74094
 11
-54.7071
 21
9.70709
  0
LINE
  8
0
 10
-54.7071
 20
9.70709
 11
-54.7409
 21
9.67155
  0
LINE
  8
0
 10
-54.7409
 20
9.67155
 11
-54.773
 21
9.63438
  0
LINE
  8
0
 10
-54.773
 20
9.63438
 11
-54.8032
 21
9.59569
  0
LINE
  8
0
 10
-54.8032
 20
9.59569
 11
-54.8315
 21
9.55556
  0
LINE
  8
0
 10
-54.8315
 20
9.55556
 11
-54.8577
 21
9.5141
  0
LINE
  8
0
 10
-54.8577
 20
9.5141
 11
-54.8819
 21
9.47139
  0
LINE
  8
0
 10
-54.8819
 20
9.47139
 11
-54.904
 21
9.42755
  0
LINE
  8
0
 10
-54.904
 20
9.42755
 11
-54.9239
 21
9.38268
  0
LINE
  8
0
 10
-54.9239
 20
9.38268
 11
-54.9415
 21
9.33688
  0
LINE
  8
0
 10
-54.9415
 20
9.33688
 11
-54.9569
 21
9.29028
  0
LINE
  8
0
 10
-54.9569
 20
9.29028
 11
-54.97
 21
9.24297
  0
LINE
  8
0
 10
-54.97
 20
9.24297
 11
-54.9808
 21
9.19508
  0
LINE
  8
0
 10
-54.9808
 20
9.19508
 11
-54.9892
 21
9.14673
  0
LINE
  8
0
 10
-54.9892
 20
9.14673
 11
-54.9952
 21
9.09801
  0
LINE
  8
0
 10
-54.9952
 20
9.09801
 11
-54.9988
 21
9.04906
  0
LINE
  8
0
 10
-54.9988
 20
9.04906
 11
-55
 21
9
  0
LINE
  8
0
 10
-55
 20
9
 11
-55
 21
4
  0
LINE
  8
0
 10
-55
 20
4
 11
-55.0012
 21
3.95094
  0
LINE
  8
0
 10
-55.0012
 20
3.95094
 11
-55.0048
 21
3.90199
  0
LINE
  8
0
 10
-55.0048
 20
3.90199
 11
-55.0108
 21
3.85327
  0
LINE
  8
0
 10
-55.0108
 20
3.85327
 11
-55.0192
 21
3.80492
  0
LINE
  8
0
 10
-55.0192
 20
3.80492
 11
-55.03
 21
3.75703
  0
LINE
  8
0
 10
-55.03
 20
3.75703
 11
-55.0431
 21
3.70972
  0
LINE
  8
0
 10
-55.0431
 20
3.70972
 11
-55.0585
 21
3.66312
  0
LINE
  8
0
 10
-55.0585
 20
3.66312
 11
-55.0761
 21
3.61732
  0
LINE
  8
0
 10
-55.0761
 20
3.61732
 11
-55.096
 21
3.57245
  0
LINE
  8
0
 10
-55.096
 20
3.57245
 11
-55.1181
 21
3.52861
  0
LINE
  8
0
 10
-55.1181
 20
3.52861
 11
-55.1423
 21
3.4859
  0
LINE
  8
0
 10
-55.1423
 20
3.4859
 11
-55.1685
 21
3.44444
  0
LINE
  8
0
 10
-55.1685
 20
3.44444
 11
-55.1968
 21
3.40431
  0
LINE
  8
0
 10
-55.1968
 20
3.40431
 11
-55.227
 21
3.36562
  0
LINE
  8
0
 10
-55.227
 20
3.36562
 11
-55.2591
 21
3.32845
  0
LINE
  8
0
 10
-55.2591
 20
3.32845
 11
-55.2929
 21
3.29291
  0
LINE
  8
0
 10
-55.2929
 20
3.29291
 11
-55.3284
 21
3.25906
  0
LINE
  8
0
 10
-55.3284
 20
3.25906
 11
-55.3656
 21
3.22699
  0
LINE
  8
0
 10
-55.3656
 20
3.22699
 11
-55.4043
 21
3.19679
  0
LINE
  8
0
 10
-55.4043
 20
3.19679
 11
-55.4444
 21
3.16853
  0
LINE
  8
0
 10
-55.4444
 20
3.16853
 11
-55.4859
 21
3.14227
  0
LINE
  8
0
 10
-55.4859
 20
3.14227
 11
-55.5286
 21
3.11809
  0
LINE
  8
0
 10
-55.5286
 20
3.11809
 11
-55.5724
 21
3.09602
  0
LINE
  8
0
 10
-55.5724
 20
3.09602
 11
-55.6173
 21
3.07613
  0
LINE
  8
0
 10
-55.6173
 20
3.07613
 11
-55.6631
 21
3.05846
  0
LINE
  8
0
 10
-55.6631
 20
3.05846
 11
-55.7097
 21
3.04306
  0
LINE
  8
0
 10
-55.7097
 20
3.04306
 11
-55.757
 21
3.02998
  0
LINE
  8
0
 10
-55.757
 20
3.02998
 11
-55.8049
 21
3.01923
  0
LINE
  8
0
 10
-55.8049
 20
3.01923
 11
-55.8533
 21
3.01083
  0
LINE
  8
0
 10
-55.8533
 20
3.01083
 11
-55.902
 21
3.00482
  0
LINE
  8
0
 10
-55.902
 20
3.00482
 11
-55.9509
 21
3.00121
  0
LINE
  8
0
 10
-55.9509
 20
3.00121
 11
-56
 21
3
  0
LINE
  8
0
 10
-56
 20
3
 11
-72
 21
3
  0
LINE
  8
0
 10
-72
 20
3
 11
-72.0491
 21
2.99879
  0
LINE
  8
0
 10
-72.0491
 20
2.99879
 11
-72.098
 21
2.99518
  0
LINE
  8
0
 10
-72.098
 20
2.99518
 11
-72.1467
 21
2.98917
  0
LINE
  8
0
 10
-72.1467
 20
2.98917
 11
-72.1951
 21
2.98077
  0
LINE
  8
0
 10
-72.1951
 20
2.98077
 11
-72.243
 21
2.97002
  0
LINE
  8
0
 10
-72.243
 20
2.97002
 11
-72.2903
 21
2.95694
  0
LINE
  8
0
 10
-72.2903
 20
2.95694
 11
-72.3369
 21
2.94154
  0
LINE
  8
0
 10
-72.3369
 20
2.94154
 11
-72.3827
 21
2.92387
  0
LINE
  8
0
 10
-72.3827
 20
2.92387
 11
-72.4276
 21
2.90398
  0
LINE
  8
0
 10
-72.4276
 20
2.90398
 11
-72.4714
 21
2.88191
  0
LINE
  8
0
 10
-72.4714
 20
2.88191
 11
-72.5141
 21
2.85773
  0
LINE
  8
0
 10
-72.5141
 20
2.85773
 11
-72.5556
 21
2.83147
  0
LINE
  8
0
 10
-72.5556
 20
2.83147
 11
-72.5957
 21
2.80321
  0
LINE
  8
0
 10
-72.5957
 20
2.80321
 11
-72.6344
 21
2.77301
  0
LINE
  8
0
 10
-72.6344
 20
2.77301
 11
-72.6716
 21
2.74094
  0
LINE
  8
0
 10
-72.6716
 20
2.74094
 11
-72.7071
 21
2.70709
  0
LINE
  8
0
 10
-72.7071
 20
2.70709
 11
-72.7409
 21
2.67155
  0
LINE
  8
0
 10
-72.7409
 20
2.67155
 11
-72.773
 21
2.63438
  0
LINE
  8
0
 10
-72.773
 20
2.63438
 11
-72.8032
 21
2.59569
  0
LINE
  8
0
 10
-72.8032
 20
2.59569
 11
-72.8315
 21
2.55556
  0
LINE
  8
0
 10
-72.8315
 20
2.55556
 11
-72.8577
 21
2.5141
  0
LINE
  8
0
 10
-72.8577
 20
2.5141
 11
-72.8819
 21
2.47139
  0
LINE
  8
0
 10
-72.8819
 20
2.47139
 11
-72.904
 21
2.42755
  0
LINE
  8
0
 10
-72.904
 20
2.42755
 11
-72.9239
 21
2.38268
  0
LINE
  8
0
 10
-72.9239
 20
2.38268
 11
-72.9415
 21
2.33688
  0
LINE
  8
0
 10
-72.9415
 20
2.33688
 11
-72.9569
 21
2.29028
  0
LINE
  8
0
 10
-72.9569
 20
2.29028
 11
-72.97
 21
2.24297
  0
LINE
  8
0
 10
-72.97
 20
2.24297
 11
-72.9808
 21
2.19508
  0
LINE
  8
0
 10
-72.9808
 20
2.19508
 11
-72.9892
 21
2.14673
  0
LINE
  8
0
 10
-72.9892
 20
2.14673
 11
-72.9952
 21
2.09801
  0
LINE
  8
0
 10
-72.9952
 20
2.09801
 11
-72.9988
 21
2.04906
  0
LINE
  8
0
 10
-72.9988
 20
2.04906
 11
-73
 21
2
  0
LINE
  8
0
 10
-73
 20
2
 11
-73
 21
-7
  0
LINE
  8
0
 10
-73
 20
-7
 11
-73.0012
 21
-7.04906
  0
LINE
  8
0
 10
-73.0012
 20
-7.04906
 11
-73.0048
 21
-7.09801
  0
LINE
  8
0
 10
-73.0048
 20
-7.09801
 11
-73.0108
 21
-7.14673
  0
LINE
  8
0
 10
-73.0108
 20
-7.14673
 11
-73.0192
 21
-7.19508
  0
LINE
  8
0
 10
-73.0192
 20
-7.19508
 11
-73.03
 21
-7.24297
  0
LINE
  8
0
 10
-73.03
 20
-7.24297
 11
-73.0431
 21
-7.29028
  0
LINE
  8
0
 10
-73.0431
 20
-7.29028
 11
-73.0585
 21
-7.33688
  0
LINE
  8
0
 10
-73.0585
 20
-7.33688
 11
-73.0761
 21
-7.38268
  0
LINE
  8
0
 10
-73.0761
 20
-7.38268
 11
-73.096
 21
-7.42755
  0
LINE
  8
0
 10
-73.096
 20
-7.42755
 11
-73.1181
 21
-7.47139
  0
LINE
  8
0
 10
-73.1181
 20
-7.47139
 11
-73.1423
 21
-7.5141
  0
LINE
  8
0
 10
-73.1423
 20
-7.5141
 11
-73.1685
 21
-7.55556
  0
LINE
  8
0
 10
-73.1685
 20
-7.55556
 11
-73.1968
 21
-7.59569
  0
LINE
  8
0
 10
-73.1968
 20
-7.59569
 11
-73.227
 21
-7.63438
  0
LINE
  8
0
 10
-73.227
 20
-7.63438
 11
-73.2591
 21
-7.67155
  0
LINE
  8
0
 10
-73.2591
 20
-7.67155
 11
-73.2929
 21
-7.70709
  0
LINE
  8
0
 10
-73.2929
 20
-7.70709
 11
-73.3284
 21
-7.74094
  0
LINE
  8
0
 10
-73.3284
 20
-7.74094
 11
-73.3656
 21
-7.77301
  0
LINE
  8
0
 10
-73.3656
 20
-7.77301
 11
-73.4043
 21
-7.80321
  0
LINE
  8
0
 10
-73.4043
 20
-7.80321
 11
-73.4444
 21
-7.83147
  0
LINE
  8
0
 10
-73.4444
 20
-7.83147
 11
-73.4859
 21
-7.85773
  0
LINE
  8
0
 10
-73.4859
 20
-7.85773
 11
-73.5286
 21
-7.88191
  0
LINE
  8
0
 10
-73.5286
 20
-7.88191
 11
-73.5724
 21
-7.90398
  0
LINE
  8
0
 10
-73.5724
 20
-7.90398
 11
-73.6173
 21
-7.92387
  0
LINE
  8
0
 10
-73.6173
 20
-7.92387
 11
-73.6631
 21
-7.94154
  0
LINE
  8
0
 10
-73.6631
 20
-7.94154
 11
-73.7097
 21
-7.95694
  0
LINE
  8
0
 10
-73.7097
 20
-7.95694
 11
-73.757
 21
-7.97002
  0
LINE
  8
0
 10
-73.757
 20
-7.97002
 11
-73.8049
 21
-7.98077
  0
LINE
  8
0
 10
-73.8049
 20
-7.98077
 11
-73.8533
 21
-7.98917
  0
LINE
  8
0
 10
-73.8533
 20
-7.98917
 11
-73.902
 21
-7.99518
  0
LINE
  8
0
 10
-73.902
 20
-7.99518
 11
-73.9509
 21
-7.99879
  0
LINE
  8
0
 10
-73.9509
 20
-7.99879
 11
-74
 21
-8
  0
LINE
  8
0
 10
-74
 20
-8
 11
-108
 21
-8
  0
LINE
  8
0
 10
-108
 20
-8
 11
-108.049
 21
-8.00121
  0
LINE
  8
0
 10
-108.049
 20
-8.00121
 11
-108.098
 21
-8.00482
  0
LINE
  8
0
 10
-108.098
 20
-8.00482
 11
-108.147
 21
-8.01083
  0
LINE
  8
0
 10
-108.147
 20
-8.01083
 11
-108.195
 21
-8.01923
  0
LINE
  8
0
 10
-108.195
 20
-8.01923
 11
-108.243
 21
-8.02998
  0
LINE
  8
0
 10
-108.243
 20
-8.02998
 11
-108.29
 21
-8.04306
  0
LINE
  8
0
 10
-108.29
 20
-8.04306
 11
-108.337
 21
-8.05846
  0
LINE
  8
0
 10
-108.337
 20
-8.05846
 11
-108.383
 21
-8.07613
  0
LINE
  8
0
 10
-108.383
 20
-8.07613
 11
-108.428
 21
-8.09602
  0
LINE
  8
0
 10
-108.428
 20
-8.09602
 11
-108.471
 21
-8.11809
  0
LINE
  8
0
 10
-108.471
 20
-8.11809
 11
-108.514
 21
-8.14227
  0
LINE
  8
0
 10
-108.514
 20
-8.14227
 11
-108.556
 21
-8.16853
  0
LINE
  8
0
 10
-108.556
 20
-8.16853
 11
-108.596
 21
-8.19679
  0
LINE
  8
0
 10
-108.596
 20
-8.19679
 11
-108.634
 21
-8.22699
  0
LINE
  8
0
 10
-108.634
 20
-8.22699
 11
-108.672
 21
-8.25906
  0
LINE
  8
0
 10
-108.672
 20
-8.25906
 11
-108.707
 21
-8.29291
  0
LINE
  8
0
 10
-108.707
 20
-8.29291
 11
-108.741
 21
-8.32845
  0
LINE
  8
0
 10
-108.741
 20
-8.32845
 11
-108.773
 21
-8.36562
  0
LINE
  8
0
 10
-108.773
 20
-8.36562
 11
-108.803
 21
-8.40431
  0
LINE
  8
0
 10
-108.803
 20
-8.40431
 11
-108.831
 21
-8.44444
  0
LINE
  8
0
 10
-108.831
 20
-8.44444
 11
-108.858
 21
-8.4859
  0
LINE
  8
0
 10
-108.858
 20
-8.4859
 11
-108.882
 21
-8.52861
  0
LINE
  8
0
 10
-108.882
 20
-8.52861
 11
-108.904
 21
-8.57245
  0
LINE
  8
0
 10
-108.904
 20
-8.57245
 11
-108.924
 21
-8.61732
  0
LINE
  8
0
 10
-108.924
 20
-8.61732
 11
-108.942
 21
-8.66312
  0
LINE
  8
0
 10
-108.942
 20
-8.66312
 11
-108.957
 21
-8.70972
  0
LINE
  8
0
 10
-108.957
 20
-8.70972
 11
-108.97
 21
-8.75703
  0
LINE
  8
0
 10
-108.97
 20
-8.75703
 11
-108.981
 21
-8.80492
  0
LINE
  8
0
 10
-108.981
 20
-8.80492
 11
-108.989
 21
-8.85327
  0
LINE
  8
0
 10
-108.989
 20
-8.85327
 11
-108.995
 21
-8.90199
  0
LINE
  8
0
 10
-108.995
 20
-8.90199
 11
-108.999
 21
-8.95094
  0
LINE
  8
0
 10
-108.999
 20
-8.95094
 11
-109
 21
-9
  0
LINE
  8
0
 10
-109
 20
-9
 11
-109
 21
-94
  0
LINE
  8
0
 10
-109
 20
-94
 11
-108.999
 21
-94.0491
  0
LINE
  8
0
 10
-108.999
 20
-94.0491
 11
-108.995
 21
-94.098
  0
LINE
  8
0
 10
-108.995
 20
-94.098
 11
-108.989
 21
-94.1467
  0
LINE
  8
0
 10
-108.989
 20
-94.1467
 11
-108.981
 21
-94.1951
  0
LINE
  8
0
 10
-108.981
 20
-94.1951
 11
-108.97
 21
-94.243
  0
LINE
  8
0
 10
-108.97
 20
-94.243
 11
-108.957
 21
-94.2903
  0
LINE
  8
0
 10
-108.957
 20
-94.2903
 11
-108.942
 21
-94.3369
  0
LINE
  8
0
 10
-108.942
 20
-94.3369
 11
-108.924
 21
-94.3827
  0
LINE
  8
0
 10
-108.924
 20
-94.3827
 11
-108.904
 21
-94.4276
  0
LINE
  8
0
 10
-108.904
 20
-94.4276
 11
-108.882
 21
-94.4714
  0
LINE
  8
0
 10
-108.882
 20
-94.4714
 11
-108.858
 21
-94.5141
  0
LINE
  8
0
 10
-108.858
 20
-94.5141
 11
-108.831
 21
-94.5556
  0
LINE
  8
0
 10
-108.831
 20
-94.5556
 11
-108.803
 21
-94.5957
  0
LINE
  8
0
 10
-108.803
 20
-94.5957
 11
-108.773
 21
-94.6344
  0
LINE
  8
0
 10
-108.773
 20
-94.6344
 11
-108.741
 21
-94.6716
  0
LINE
  8
0
 10
-108.741
 20
-94.6716
 11
-108.707
 21
-94.7071
  0
LINE
  8
0
 10
-108.707
 20
-94.7071
 11
-108.672
 21
-94.7409
  0
LINE
  8
0
 10
-108.672
 20
-94.7409
 11
-108.634
 21
-94.773
  0
LINE
  8
0
 10
-108.634
 20
-94.773
 11
-108.596
 21
-94.8032
  0
LINE
  8
0
 10
-108.596
 20
-94.8032
 11
-108.556
 21
-94.8315
  0
LINE
  8
0
 10
-108.556
 20
-94.8315
 11
-108.514
 21
-94.8577
  0
LINE
  8
0
 10
-108.514
 20
-94.8577
 11
-108.471
 21
-94.8819
  0
LINE
  8
0
 10
-108.471
 20
-94.8819
 11
-108.428
 21
-94.904
  0
LINE
  8
0
 10
-108.428
 20
-94.904
 11
-108.383
 21
-94.9239
  0
LINE
  8
0
 10
-108.383
 20
-94.9239
 11
-108.337
 21
-94.9415
  0
LINE
  8
0
 10
-108.337
 20
-94.9415
 11
-108.29
 21
-94.9569
  0
LINE
  8
0
 10
-108.29
 20
-94.9569
 11
-108.243
 21
-94.97
  0
LINE
  8
0
 10
-108.243
 20
-94.97
 11
-108.195
 21
-94.9808
  0
LINE
  8
0
 10
-108.195
 20
-94.9808
 11
-108.147
 21
-94.9892
  0
LINE
  8
0
 10
-108.147
 20
-94.9892
 11
-108.098
 21
-94.9952
  0
LINE
  8
0
 10
-108.098
 20
-94.9952
 11
-108.049
 21
-94.9988
  0
LINE
  8
0
 10
-108.049
 20
-94.9988
 11
-108
 21
-95
  0
LINE
  8
0
 10
-108
 20
-95
 11
-56
 21
-95
  0
LINE
  8
0
 10
-56
 20
-95
 11
-55.9509
 21
-95.0012
  0
LINE
  8
0
 10
-55.9509
 20
-95.0012
 11
-55.902
 21
-95.0048
  0
LINE
  8
0
 10
-55.902
 20
-95.0048
 11
-55.8533
 21
-95.0108
  0
LINE
  8
0
 10
-55.8533
 20
-95.0108
 11
-55.8049
 21
-95.0192
  0
LINE
  8
0
 10
-55.8049
 20
-95.0192
 11
-55.757
 21
-95.03
  0
LINE
  8
0
 10
-55.757
 20
-95.03
 11
-55.7097
 21
-95.0431
  0
LINE
  8
0
 10
-55.7097
 20
-95.0431
 11
-55.6631
 21
-95.0585
  0
LINE
  8
0
 10
-55.6631
 20
-95.0585
 11
-55.6173
 21
-95.0761
  0
LINE
  8
0
 10
-55.6173
 20
-95.0761
 11
-55.5724
 21
-95.096
  0
LINE
  8
0
 10
-55.5724
 20
-95.096
 11
-55.5286
 21
-95.1181
  0
LINE
  8
0
 10
-55.5286
 20
-95.1181
 11
-55.4859
 21
-95.1423
  0
LINE
  8
0
 10
-55.4859
 20
-95.1423
 11
-55.4444
 21
-95.1685
  0
LINE
  8
0
 10
-55.4444
 20
-95.1685
 11
-55.4043
 21
-95.1968
  0
LINE
  8
0
 10
-55.4043
 20
-95.1968
 11
-55.3656
 21
-95.227
  0
LINE
  8
0
 10
-55.3656
 20
-95.227
 11
-55.3284
 21
-95.2591
  0
LINE
  8
0
 10
-55.3284
 20
-95.2591
 11
-55.2929
 21
-95.2929
  0
LINE
  8
0
 10
-55.2929
 20
-95.2929
 11
-55.2591
 21
-95.3284
  0
LINE
  8
0
 10
-55.2591
 20
-95.3284
 11
-55.227
 21
-95.3656
  0
LINE
  8
0
 10
-55.227
 20
-95.3656
 11
-55.1968
 21
-95.4043
  0
LINE
  8
0
 10
-55.1968
 20
-95.4043
 11
-55.1685
 21
-95.4444
  0
LINE
  8
0
 10
-55.1685
 20
-95.4444
 11
-55.1423
 21
-95.4859
  0
LINE
  8
0
 10
-55.1423
 20
-95.4859
 11
-55.1181
 21
-95.5286
  0
LINE
  8
0
 10
-55.1181
 20
-95.5286
 11
-55.096
 21
-95.5724
  0
LINE
  8
0
 10
-55.096
 20
-95.5724
 11
-55.0761
 21
-95.6173
  0
LINE
  8
0
 10
-55.0761
 20
-95.6173
 11
-55.0585
 21
-95.6631
  0
LINE
  8
0
 10
-55.0585
 20
-95.6631
 11
-55.0431
 21
-95.7097
  0
LINE
  8
0
 10
-55.0431
 20
-95.7097
 11
-55.03
 21
-95.757
  0
LINE
  8
0
 10
-55.03
 20
-95.757
 11
-55.0192
 21
-95.8049
  0
LINE
  8
0
 10
-55.0192
 20
-95.8049
 11
-55.0108
 21
-95.8533
  0
LINE
  8
0
 10
-55.0108
 20
-95.8533
 11
-55.0048
 21
-95.902
  0
LINE
  8
0
 10
-55.0048
 20
-95.902
 11
-55.0012
 21
-95.9509
  0
LINE
  8
0
 10
-55.0012
 20
-95.9509
 11
-55
 21
-96
  0
LINE
  8
0
 10
-55
 20
-96
 11
-55
 21
-102.5
  0
LINE
  8
0
 10
-55
 20
-102.5
 11
-54.9988
 21
-102.549
  0
LINE
  8
0
 10
-54.9988
 20
-102.549
 11
-54.9952
 21
-102.598
  0
LINE
  8
0
 10
-54.9952
 20
-102.598
 11
-54.9892
 21
-102.647
  0
LINE
  8
0
 10
-54.9892
 20
-102.647
 11
-54.9808
 21
-102.695
  0
LINE
  8
0
 10
-54.9808
 20
-102.695
 11
-54.97
 21
-102.743
  0
LINE
  8
0
 10
-54.97
 20
-102.743
 11
-54.9569
 21
-102.79
  0
LINE
  8
0
 10
-54.9569
 20
-102.79
 11
-54.9415
 21
-102.837
  0
LINE
  8
0
 10
-54.9415
 20
-102.837
 11
-54.9239
 21
-102.883
  0
LINE
  8
0
 10
-54.9239
 20
-102.883
 11
-54.904
 21
-102.928
  0
LINE
  8
0
 10
-54.904
 20
-102.928
 11
-54.8819
 21
-102.971
  0
LINE
  8
0
 10
-54.8819
 20
-102.971
 11
-54.8577
 21
-103.014
  0
LINE
  8
0
 10
-54.8577
 20
-103.014
 11
-54.8315
 21
-103.056
  0
LINE
  8
0
 10
-54.8315
 20
-103.056
 11
-54.8032
 21
-103.096
  0
LINE
  8
0
 10
-54.8032
 20
-103.096
 11
-54.773
 21
-103.134
  0
LINE
  8
0
 10
-54.773
 20
-103.134
 11
-54.7409
 21
-103.172
  0
LINE
  8
0
 10
-54.7409
 20
-103.172
 11
-54.7071
 21
-103.207
  0
LINE
  8
0
 10
-54.7071
 20
-103.207
 11
-54.6716
 21
-103.241
  0
LINE
  8
0
 10
-54.6716
 20
-103.241
 11
-54.6344
 21
-103.273
  0
LINE
  8
0
 10
-54.6344
 20
-103.273
 11
-54.5957
 21
-103.303
  0
LINE
  8
0
 10
-54.5957
 20
-103.303
 11
-54.5556
 21
-103.331
  0
LINE
  8
0
 10
-54.5556
 20
-103.331
 11
-54.5141
 21
-103.358
  0
LINE
  8
0
 10
-54.5141
 20
-103.358
 11
-54.4714
 21
-103.382
  0
LINE
  8
0
 10
-54.4714
 20
-103.382
 11
-54.4276
 21
-103.404
  0
LINE
  8
0
 10
-54.4276
 20
-103.404
 11
-54.3827
 21
-103.424
  0
LINE
  8
0
 10
-54.3827
 20
-103.424
 11
-54.3369
 21
-103.442
  0
LINE
  8
0
 10
-54.3369
 20
-103.442
 11
-54.2903
 21
-103.457
  0
LINE
  8
0
 10
-54.2903
 20
-103.457
 11
-54.243
 21
-103.47
  0
LINE
  8
0
 10
-54.243
 20
-103.47
 11
-54.1951
 21
-103.481
  0
LINE
  8
0
 10
-54.1951
 20
-103.481
 11
-54.1467
 21
-103.489
  0
LINE
  8
0
 10
-54.1467
 20
-103.489
 11
-54.098
 21
-103.495
  0
LINE
  8
0
 10
-54.098
 20
-103.495
 11
-54.0491
 21
-103.499
  0
LINE
  8
0
 10
-54.0491
 20
-103.499
 11
-54
 21
-103.5
  0
LINE
  8
0
 10
-54
 20
-103.5
 11
-45
 21
-103.5
  0
LINE
  8
0
 10
-45
 20
-103.5
 11
-41.5407
 21
-103.585
  0
LINE
  8
0
 10
-41.5407
 20
-103.585
 11
-38.0897
 21
-103.839
  0
LINE
  8
0
 10
-38.0897
 20
-103.839
 11
-34.6554
 21
-104.263
  0
LINE
  8
0
 10
-34.6554
 20
-104.263
 11
-31.2461
 21
-104.855
  0
LINE
  8
0
 10
-31.2461
 20
-104.855
 11
-27.8701
 21
-105.613
  0
LINE
  8
0
 10
-27.8701
 20
-105.613
 11
-24.5349
 21
-106.536
  0
LINE
  8
0
 10
-24.5349
 20
-106.536
 11
-21.2493
 21
-107.621
  0
LINE
  8
0
 10
-21.2493
 20
-107.621
 11
-18.0207
 21
-108.867
  0
LINE
  8
0
 10
-18.0207
 20
-108.867
 11
-14.8573
 21
-110.269
  0
LINE
  8
0
 10
-14.8573
 20
-110.269
 11
-11.7667
 21
-111.824
  0
LINE
  8
0
 10
-11.7667
 20
-111.824
 11
-8.75577
 21
-113.53
  0
LINE
  8
0
 10
-8.75577
 20
-113.53
 11
-5.83224
 21
-115.381
  0
LINE
  8
0
 10
-5.83224
 20
-115.381
 11
-3.00319
 21
-117.374
  0
LINE
  8
0
 10
-3.00319
 20
-117.374
 11
-0.275269
 21
-119.503
  0
LINE
  8
0
 10
-0.275269
 20
-119.503
 11
2.34503
 21
-121.763
  0
LINE
  8
0
 10
2.34503
 20
-121.763
 11
4.85124
 21
-124.149
  0
LINE
  8
0
 10
4.85124
 20
-124.149
 11
11.215
 21
-130.513
  0
LINE
  8
0
 10
11.215
 20
-130.513
 11
11.2505
 21
-130.547
  0
LINE
  8
0
 10
11.2505
 20
-130.547
 11
11.2877
 21
-130.579
  0
LINE
  8
0
 10
11.2877
 20
-130.579
 11
11.3264
 21
-130.609
  0
LINE
  8
0
 10
11.3264
 20
-130.609
 11
11.3665
 21
-130.637
  0
LINE
  8
0
 10
11.3665
 20
-130.637
 11
11.408
 21
-130.664
  0
LINE
  8
0
 10
11.408
 20
-130.664
 11
11.4507
 21
-130.688
  0
LINE
  8
0
 10
11.4507
 20
-130.688
 11
11.4945
 21
-130.71
  0
LINE
  8
0
 10
11.4945
 20
-130.71
 11
11.5394
 21
-130.73
  0
LINE
  8
0
 10
11.5394
 20
-130.73
 11
11.5852
 21
-130.747
  0
LINE
  8
0
 10
11.5852
 20
-130.747
 11
11.6318
 21
-130.763
  0
LINE
  8
0
 10
11.6318
 20
-130.763
 11
11.6791
 21
-130.776
  0
LINE
  8
0
 10
11.6791
 20
-130.776
 11
11.727
 21
-130.787
  0
LINE
  8
0
 10
11.727
 20
-130.787
 11
11.7754
 21
-130.795
  0
LINE
  8
0
 10
11.7754
 20
-130.795
 11
11.8241
 21
-130.801
  0
LINE
  8
0
 10
11.8241
 20
-130.801
 11
11.873
 21
-130.805
  0
LINE
  8
0
 10
11.873
 20
-130.805
 11
11.9221
 21
-130.806
  0
LINE
  8
0
 10
11.9221
 20
-130.806
 11
11.9711
 21
-130.805
  0
LINE
  8
0
 10
11.9711
 20
-130.805
 11
12.0201
 21
-130.801
  0
LINE
  8
0
 10
12.0201
 20
-130.801
 11
12.0688
 21
-130.795
  0
LINE
  8
0
 10
12.0688
 20
-130.795
 11
12.1172
 21
-130.787
  0
LINE
  8
0
 10
12.1172
 20
-130.787
 11
12.1651
 21
-130.776
  0
LINE
  8
0
 10
12.1651
 20
-130.776
 11
12.2124
 21
-130.763
  0
LINE
  8
0
 10
12.2124
 20
-130.763
 11
12.259
 21
-130.747
  0
LINE
  8
0
 10
12.259
 20
-130.747
 11
12.3048
 21
-130.73
  0
LINE
  8
0
 10
12.3048
 20
-130.73
 11
12.3496
 21
-130.71
  0
LINE
  8
0
 10
12.3496
 20
-130.71
 11
12.3935
 21
-130.688
  0
LINE
  8
0
 10
12.3935
 20
-130.688
 11
12.4362
 21
-130.664
  0
LINE
  8
0
 10
12.4362
 20
-130.664
 11
12.4776
 21
-130.637
  0
LINE
  8
0
 10
12.4776
 20
-130.637
 11
12.5178
 21
-130.609
  0
LINE
  8
0
 10
12.5178
 20
-130.609
 11
12.5565
 21
-130.579
  0
LINE
  8
0
 10
12.5565
 20
-130.579
 11
12.5936
 21
-130.547
  0
LINE
  8
0
 10
12.5936
 20
-130.547
 11
12.6292
 21
-130.513
  0
LINE
  8
0
 10
12.6292
 20
-130.513
 11
36.6708
 21
-106.471
  0
LINE
  8
0
 10
36.6708
 20
-106.471
 11
36.7047
 21
-106.436
  0
LINE
  8
0
 10
36.7047
 20
-106.436
 11
36.7367
 21
-106.399
  0
LINE
  8
0
 10
36.7367
 20
-106.399
 11
36.7669
 21
-106.36
  0
LINE
  8
0
 10
36.7669
 20
-106.36
 11
36.7952
 21
-106.32
  0
LINE
  8
0
 10
36.7952
 20
-106.32
 11
36.8214
 21
-106.278
  0
LINE
  8
0
 10
36.8214
 20
-106.278
 11
36.8456
 21
-106.236
  0
LINE
  8
0
 10
36.8456
 20
-106.236
 11
36.8677
 21
-106.192
  0
LINE
  8
0
 10
36.8677
 20
-106.192
 11
36.8876
 21
-106.147
  0
LINE
  8
0
 10
36.8876
 20
-106.147
 11
36.9053
 21
-106.101
  0
LINE
  8
0
 10
36.9053
 20
-106.101
 11
36.9207
 21
-106.054
  0
LINE
  8
0
 10
36.9207
 20
-106.054
 11
36.9337
 21
-106.007
  0
LINE
  8
0
 10
36.9337
 20
-106.007
 11
36.9445
 21
-105.959
  0
LINE
  8
0
 10
36.9445
 20
-105.959
 11
36.9529
 21
-105.911
  0
LINE
  8
0
 10
36.9529
 20
-105.911
 11
36.9589
 21
-105.862
  0
LINE
  8
0
 10
36.9589
 20
-105.862
 11
36.9625
 21
-105.813
  0
LINE
  8
0
 10
36.9625
 20
-105.813
 11
36.9637
 21
-105.764
  0
LINE
  8
0
 10
36.9637
 20
-105.764
 11
36.9625
 21
-105.715
  0
LINE
  8
0
 10
36.9625
 20
-105.715
 11
36.9589
 21
-105.666
  0
LINE
  8
0
 10
36.9589
 20
-105.666
 11
36.9529
 21
-105.617
  0
LINE
  8
0
 10
36.9529
 20
-105.617
 11
36.9445
 21
-105.569
  0
LINE
  8
0
 10
36.9445
 20
-105.569
 11
36.9337
 21
-105.521
  0
LINE
  8
0
 10
36.9337
 20
-105.521
 11
36.9207
 21
-105.474
  0
LINE
  8
0
 10
36.9207
 20
-105.474
 11
36.9053
 21
-105.427
  0
LINE
  8
0
 10
36.9053
 20
-105.427
 11
36.8876
 21
-105.382
  0
LINE
  8
0
 10
36.8876
 20
-105.382
 11
36.8677
 21
-105.337
  0
LINE
  8
0
 10
36.8677
 20
-105.337
 11
36.8456
 21
-105.293
  0
LINE
  8
0
 10
36.8456
 20
-105.293
 11
36.8214
 21
-105.25
  0
LINE
  8
0
 10
36.8214
 20
-105.25
 11
36.7952
 21
-105.209
  0
LINE
  8
0
 10
36.7952
 20
-105.209
 11
36.7669
 21
-105.169
  0
LINE
  8
0
 10
36.7669
 20
-105.169
 11
36.7367
 21
-105.13
  0
LINE
  8
0
 10
36.7367
 20
-105.13
 11
36.7047
 21
-105.093
  0
LINE
  8
0
 10
36.7047
 20
-105.093
 11
36.6708
 21
-105.057
  0
LINE
  8
0
 10
36.6708
 20
-105.057
 11
26.1673
 21
-94.5536
  0
LINE
  8
0
 10
26.1673
 20
-94.5536
 11
26.1423
 21
-94.5141
  0
LINE
  8
0
 10
26.1423
 20
-94.5141
 11
26.1181
 21
-94.4714
  0
LINE
  8
0
 10
26.1181
 20
-94.4714
 11
26.096
 21
-94.4276
  0
LINE
  8
0
 10
26.096
 20
-94.4276
 11
26.0761
 21
-94.3827
  0
LINE
  8
0
 10
26.0761
 20
-94.3827
 11
26.0585
 21
-94.3369
  0
LINE
  8
0
 10
26.0585
 20
-94.3369
 11
26.0431
 21
-94.2903
  0
LINE
  8
0
 10
26.0431
 20
-94.2903
 11
26.03
 21
-94.243
  0
LINE
  8
0
 10
26.03
 20
-94.243
 11
26.0192
 21
-94.1951
  0
LINE
  8
0
 10
26.0192
 20
-94.1951
 11
26.0108
 21
-94.1467
  0
LINE
  8
0
 10
26.0108
 20
-94.1467
 11
26.0048
 21
-94.098
  0
LINE
  8
0
 10
26.0048
 20
-94.098
 11
26.0012
 21
-94.0491
  0
LINE
  8
0
 10
26.0012
 20
-94.0491
 11
26
 21
-94
  0
LINE
  8
0
 10
26
 20
-94
 11
26
 21
0
  0
LINE
  8
0
 10
26
 20
0
 11
25.9988
 21
0.049057
  0
LINE
  8
0
 10
25.9988
 20
0.049057
 11
25.9952
 21
0.0980072
  0
LINE
  8
0
 10
25.9952
 20
0.0980072
 11
25.9892
 21
0.146729
  0
LINE
  8
0
 10
25.9892
 20
0.146729
 11
25.9808
 21
0.195084
  0
LINE
  8
0
 10
25.9808
 20
0.195084
 11
25.97
 21
0.242966
  0
LINE
  8
0
 10
25.97
 20
0.242966
 11
25.9569
 21
0.290283
  0
LINE
  8
0
 10
25.9569
 20
0.290283
 11
25.9415
 21
0.336884
  0
LINE
  8
0
 10
25.9415
 20
0.336884
 11
25.9239
 21
0.382675
  0
LINE
  8
0
 10
25.9239
 20
0.382675
 11
25.904
 21
0.427551
  0
LINE
  8
0
 10
25.904
 20
0.427551
 11
25.8819
 21
0.47139
  0
LINE
  8
0
 10
25.8819
 20
0.47139
 11
25.8577
 21
0.514099
  0
LINE
  8
0
 10
25.8577
 20
0.514099
 11
25.8315
 21
0.555557
  0
LINE
  8
0
 10
25.8315
 20
0.555557
 11
25.8032
 21
0.595688
  0
LINE
  8
0
 10
25.8032
 20
0.595688
 11
25.773
 21
0.634384
  0
LINE
  8
0
 10
25.773
 20
0.634384
 11
25.7409
 21
0.671555
  0
LINE
  8
0
 10
25.7409
 20
0.671555
 11
25.7071
 21
0.707092
  0
LINE
  8
0
 10
25.7071
 20
0.707092
 11
25.6716
 21
0.740936
  0
LINE
  8
0
 10
25.6716
 20
0.740936
 11
25.6344
 21
0.77301
  0
LINE
  8
0
 10
25.6344
 20
0.77301
 11
25.5957
 21
0.803207
  0
LINE
  8
0
 10
25.5957
 20
0.803207
 11
25.5556
 21
0.831467
  0
LINE
  8
0
 10
25.5556
 20
0.831467
 11
25.5141
 21
0.857727
  0
LINE
  8
0
 10
25.5141
 20
0.857727
 11
25.4714
 21
0.881912
  0
LINE
  8
0
 10
25.4714
 20
0.881912
 11
25.4276
 21
0.903976
  0
LINE
  8
0
 10
25.4276
 20
0.903976
 11
25.3827
 21
0.923874
  0
LINE
  8
0
 10
25.3827
 20
0.923874
 11
25.3369
 21
0.941544
  0
LINE
  8
0
 10
25.3369
 20
0.941544
 11
25.2903
 21
0.95694
  0
LINE
  8
0
 10
25.2903
 20
0.95694
 11
25.243
 21
0.970016
  0
LINE
  8
0
 10
25.243
 20
0.970016
 11
25.1951
 21
0.980774
  0
LINE
  8
0
 10
25.1951
 20
0.980774
 11
25.1467
 21
0.989166
  0
LINE
  8
0
 10
25.1467
 20
0.989166
 11
25.098
 21
0.995178
  0
LINE
  8
0
 10
25.098
 20
0.995178
 11
25.0491
 21
0.998795
  0
LINE
  8
0
 10
25.0491
 20
0.998795
 11
25
 21
1
  0
LINE
  8
0
 10
25
 20
1
 11
-16
 21
1
  0
LINE
  8
0
 10
-16
 20
1
 11
-16.0491
 21
1.00121
  0
LINE
  8
0
 10
-16.0491
 20
1.00121
 11
-16.098
 21
1.00482
  0
LINE
  8
0
 10
-16.098
 20
1.00482
 11
-16.1467
 21
1.01083
  0
LINE
  8
0
 10
-16.1467
 20
1.01083
 11
-16.1951
 21
1.01923
  0
LINE
  8
0
 10
-16.1951
 20
1.01923
 11
-16.243
 21
1.02998
  0
LINE
  8
0
 10
-16.243
 20
1.02998
 11
-16.2903
 21
1.04306
  0
LINE
  8
0
 10
-16.2903
 20
1.04306
 11
-16.3369
 21
1.05846
  0
LINE
  8
0
 10
-16.3369
 20
1.05846
 11
-16.3827
 21
1.07613
  0
LINE
  8
0
 10
-16.3827
 20
1.07613
 11
-16.4276
 21
1.09602
  0
LINE
  8
0
 10
-16.4276
 20
1.09602
 11
-16.4714
 21
1.11809
  0
LINE
  8
0
 10
-16.4714
 20
1.11809
 11
-16.5141
 21
1.14227
  0
LINE
  8
0
 10
-16.5141
 20
1.14227
 11
-16.5556
 21
1.16853
  0
LINE
  8
0
 10
-16.5556
 20
1.16853
 11
-16.5957
 21
1.19679
  0
LINE
  8
0
 10
-16.5957
 20
1.19679
 11
-16.6344
 21
1.22699
  0
LINE
  8
0
 10
-16.6344
 20
1.22699
 11
-16.6716
 21
1.25906
  0
LINE
  8
0
 10
-16.6716
 20
1.25906
 11
-16.7071
 21
1.29291
  0
LINE
  8
0
 10
-16.7071
 20
1.29291
 11
-16.7409
 21
1.32845
  0
LINE
  8
0
 10
-16.7409
 20
1.32845
 11
-16.773
 21
1.36562
  0
LINE
  8
0
 10
-16.773
 20
1.36562
 11
-16.8032
 21
1.40431
  0
LINE
  8
0
 10
-16.8032
 20
1.40431
 11
-16.8315
 21
1.44444
  0
LINE
  8
0
 10
-16.8315
 20
1.44444
 11
-16.8577
 21
1.4859
  0
LINE
  8
0
 10
-16.8577
 20
1.4859
 11
-16.8819
 21
1.52861
  0
LINE
  8
0
 10
-16.8819
 20
1.52861
 11
-16.904
 21
1.57245
  0
LINE
  8
0
 10
-16.904
 20
1.57245
 11
-16.9239
 21
1.61732
  0
LINE
  8
0
 10
-16.9239
 20
1.61732
 11
-16.9415
 21
1.66312
  0
LINE
  8
0
 10
-16.9415
 20
1.66312
 11
-16.9569
 21
1.70972
  0
LINE
  8
0
 10
-16.9569
 20
1.70972
 11
-16.97
 21
1.75703
  0
LINE
  8
0
 10
-16.97
 20
1.75703
 11
-16.9808
 21
1.80492
  0
LINE
  8
0
 10
-16.9808
 20
1.80492
 11
-16.9892
 21
1.85327
  0
LINE
  8
0
 10
-16.9892
 20
1.85327
 11
-16.9952
 21
1.90199
  0
LINE
  8
0
 10
-16.9952
 20
1.90199
 11
-16.9988
 21
1.95094
  0
LINE
  8
0
 10
-16.9988
 20
1.95094
 11
-17.0012
 21
2.04906
  0
LINE
  8
0
 10
-17.0012
 20
2.04906
 11
-17.0048
 21
2.09801
  0
LINE
  8
0
 10
-52.5
 20
-7
 11
-52.5
 21
8
  0
LINE
  8
0
 10
-52.5
 20
8
 11
-37.5
 21
8
  0
LINE
  8
0
 10
-37.5
 20
8
 11
-37.5
 21
-7
  0
LINE
  8
0
 10
-37.5
 20
-7
 11
-52.5
 21
-7
  0
LINE
  8
0
 10
-70.5
 20
-14
 11
-70.5
 21
1
  0
LINE
  8
0
 10
-70.5
 20
1
 11
-55.5
 21
1
  0
LINE
  8
0
 10
-55.5
 20
1
 11
-55.5
 21
-14
  0
LINE
  8
0
 10
-55.5
 20
-14
 11
-70.5
 21
-14
  0
LINE
  8
0
 10
-34.5
 20
-14
 11
-34.5
 21
1
  0
LINE
  8
0
 10
-34.5
 20
1
 11
-19.5
 21
1
  0
LINE
  8
0
 10
-19.5
 20
1
 11
-19.5
 21
-14
  0
LINE
  8
0
 10
-19.5
 20
-14
 11
-34.5
 21
-14
  0
LINE
  8
0
 10
-16.5
 20
-16
 11
-16.5
 21
-1
  0
LINE
  8
0
 10
-16.5
 20
-1
 11
-1.5
 21
-1
  0
LINE
  8
0
 10
-1.5
 20
-1
 11
-1.5
 21
-16
  0
LINE
  8
0
 10
-1.5
 20
-16
 11
-16.5
 21
-16
  0
LINE
  8
0
 10
-52.5
 20
-24
 11
-52.5
 21
-9
  0
LINE
  8
0
 10
-52.5
 20
-9
 11
-37.5
 21
-9
  0
LINE
  8
0
 10
-37.5
 20
-9
 11
-37.5
 21
-24
  0
LINE
  8
0
 10
-37.5
 20
-24
 11
-52.5
 21
-24
  0
LINE
  8
0
 10
-106.5
 20
-25
 11
-106.5
 21
-10
  0
LINE
  8
0
 10
-106.5
 20
-10
 11
-91.5
 21
-10
  0
LINE
  8
0
 10
-91.5
 20
-10
 11
-91.5
 21
-25
  0
LINE
  8
0
 10
-91.5
 20
-25
 11
-106.5
 21
-25
  0
LINE
  8
0
 10
-88.5
 20
-25
 11
-88.5
 21
-10
  0
LINE
  8
0
 10
-88.5
 20
-10
 11
-73.5
 21
-10
  0
LINE
  8
0
 10
-73.5
 20
-10
 11
-73.5
 21
-25
  0
LINE
  8
0
 10
-73.5
 20
-25
 11
-88.5
 21
-25
  0
LINE
  8
0
 10
-34.5
 20
-31
 11
-34.5
 21
-16
  0
LINE
  8
0
 10
-34.5
 20
-16
 11
-19.5
 21
-16
  0
LINE
  8
0
 10
-19.5
 20
-16
 11
-19.5
 21
-31
  0
LINE
  8
0
 10
-19.5
 20
-31
 11
-34.5
 21
-31
  0
LINE
  8
0
 10
-70.5
 20
-31
 11
-70.5
 21
-16
  0
LINE
  8
0
 10
-70.5
 20
-16
 11
-55.5
 21
-16
  0
LINE
  8
0
 10
-55.5
 20
-16
 11
-55.5
 21
-31
  0
LINE
  8
0
 10
-55.5
 20
-31
 11
-70.5
 21
-31
  0
LINE
  8
0
 10
-16.5
 20
-33
 11
-16.5
 21
-18
  0
LINE
  8
0
 10
-16.5
 20
-18
 11
-1.5
 21
-18
  0
LINE
  8
0
 10
-1.5
 20
-18
 11
-1.5
 21
-33
  0
LINE
  8
0
 10
-1.5
 20
-33
 11
-16.5
 21
-33
  0
LINE
  8
0
 10
-52.5
 20
-41
 11
-52.5
 21
-26
  0
LINE
  8
0
 10
-52.5
 20
-26
 11
-37.5
 21
-26
  0
LINE
  8
0
 10
-37.5
 20
-26
 11
-37.5
 21
-41
  0
LINE
  8
0
 10
-37.5
 20
-41
 11
-52.5
 21
-41
  0
LINE
  8
0
 10
-88.5
 20
-42
 11
-88.5
 21
-27
  0
LINE
  8
0
 10
-88.5
 20
-27
 11
-73.5
 21
-27
  0
LINE
  8
0
 10
-73.5
 20
-27
 11
-73.5
 21
-42
  0
LINE
  8
0
 10
-73.5
 20
-42
 11
-88.5
 21
-42
  0
LINE
  8
0
 10
-106.5
 20
-42
 11
-106.5
 21
-27
  0
LINE
  8
0
 10
-106.5
 20
-27
 11
-91.5
 21
-27
  0
LINE
  8
0
 10
-91.5
 20
-27
 11
-91.5
 21
-42
  0
LINE
  8
0
 10
-91.5
 20
-42
 11
-106.5
 21
-42
  0
LINE
  8
0
 10
-34.5
 20
-48
 11
-34.5
 21
-33
  0
LINE
  8
0
 10
-34.5
 20
-33
 11
-19.5
 21
-33
  0
LINE
  8
0
 10
-19.5
 20
-33
 11
-19.5
 21
-48
  0
LINE
  8
0
 10
-19.5
 20
-48
 11
-34.5
 21
-48
  0
LINE
  8
0
 10
-70.5
 20
-48
 11
-70.5
 21
-33
  0
LINE
  8
0
 10
-70.5
 20
-33
 11
-55.5
 21
-33
  0
LINE
  8
0
 10
-55.5
 20
-33
 11
-55.5
 21
-48
  0
LINE
  8
0
 10
-55.5
 20
-48
 11
-70.5
 21
-48
  0
LINE
  8
0
 10
-16.5
 20
-50
 11
-16.5
 21
-35
  0
LINE
  8
0
 10
-16.5
 20
-35
 11
-1.5
 21
-35
  0
LINE
  8
0
 10
-1.5
 20
-35
 11
-1.5
 21
-50
  0
LINE
  8
0
 10
-1.5
 20
-50
 11
-16.5
 21
-50
  0
LINE
  8
0
 10
-52.5
 20
-58
 11
-52.5
 21
-43
  0
LINE
  8
0
 10
-52.5
 20
-43
 11
-37.5
 21
-43
  0
LINE
  8
0
 10
-37.5
 20
-43
 11
-37.5
 21
-58
  0
LINE
  8
0
 10
-37.5
 20
-58
 11
-52.5
 21
-58
  0
LINE
  8
0
 10
-88.5
 20
-59
 11
-88.5
 21
-44
  0
LINE
  8
0
 10
-88.5
 20
-44
 11
-73.5
 21
-44
  0
LINE
  8
0
 10
-73.5
 20
-44
 11
-73.5
 21
-59
  0
LINE
  8
0
 10
-73.5
 20
-59
 11
-88.5
 21
-59
  0
LINE
  8
0
 10
-106.5
 20
-59
 11
-106.5
 21
-44
  0
LINE
  8
0
 10
-106.5
 20
-44
 11
-91.5
 21
-44
  0
LINE
  8
0
 10
-91.5
 20
-44
 11
-91.5
 21
-59
  0
LINE
  8
0
 10
-91.5
 20
-59
 11
-106.5
 21
-59
  0
LINE
  8
0
 10
-34.5
 20
-65
 11
-34.5
 21
-50
  0
LINE
  8
0
 10
-34.5
 20
-50
 11
-19.5
 21
-50
  0
LINE
  8
0
 10
-19.5
 20
-50
 11
-19.5
 21
-65
  0
LINE
  8
0
 10
-19.5
 20
-65
 11
-34.5
 21
-65
  0
LINE
  8
0
 10
-70.5
 20
-65
 11
-70.5
 21
-50
  0
LINE
  8
0
 10
-70.5
 20
-50
 11
-55.5
 21
-50
  0
LINE
  8
0
 10
-55.5
 20
-50
 11
-55.5
 21
-65
  0
LINE
  8
0
 10
-55.5
 20
-65
 11
-70.5
 21
-65
  0
LINE
  8
0
 10
-16.5
 20
-67
 11
-16.5
 21
-52
  0
LINE
  8
0
 10
-16.5
 20
-52
 11
-1.5
 21
-52
  0
LINE
  8
0
 10
-1.5
 20
-52
 11
-1.5
 21
-67
  0
LINE
  8
0
 10
-1.5
 20
-67
 11
-16.5
 21
-67
  0
LINE
  8
0
 10
-106.5
 20
-76
 11
-106.5
 21
-61
  0
LINE
  8
0
 10
-106.5
 20
-61
 11
-91.5
 21
-61
  0
LINE
  8
0
 10
-91.5
 20
-61
 11
-91.5
 21
-76
  0
LINE
  8
0
 10
-91.5
 20
-76
 11
-106.5
 21
-76
  0
LINE
  8
0
 10
-88.5
 20
-76
 11
-88.5
 21
-61
  0
LINE
  8
0
 10
-88.5
 20
-61
 11
-73.5
 21
-61
  0
LINE
  8
0
 10
-73.5
 20
-61
 11
-73.5
 21
-76
  0
LINE
  8
0
 10
-73.5
 20
-76
 11
-88.5
 21
-76
  0
LINE
  8
0
 10
-52.5
 20
-84.5
 11
-52.5
 21
-69.5
  0
LINE
  8
0
 10
-52.5
 20
-69.5
 11
-37.5
 21
-69.5
  0
LINE
  8
0
 10
-37.5
 20
-69.5
 11
-37.5
 21
-84.5
  0
LINE
  8
0
 10
-37.5
 20
-84.5
 11
-52.5
 21
-84.5
  0
LINE
  8
0
 10
-29.0802
 20
-85.6085
 11
-25.1979
 21
-71.1196
  0
LINE
  8
0
 10
-25.1979
 20
-71.1196
 11
-10.709
 21
-75.0019
  0
LINE
  8
0
 10
-10.709
 20
-75.0019
 11
-14.5913
 21
-89.4908
  0
LINE
  8
0
 10
-14.5913
 20
-89.4908
 11
-29.0802
 21
-85.6085
  0
LINE
  8
0
 10
-70.5
 20
-93
 11
-70.5
 21
-78
  0
LINE
  8
0
 10
-70.5
 20
-78
 11
-55.5
 21
-78
  0
LINE
  8
0
 10
-55.5
 20
-78
 11
-55.5
 21
-93
  0
LINE
  8
0
 10
-55.5
 20
-93
 11
-70.5
 21
-93
  0
LINE
  8
0
 10
-88.5
 20
-93
 11
-88.5
 21
-78
  0
LINE
  8
0
 10
-88.5
 20
-78
 11
-73.5
 21
-78
  0
LINE
  8
0
 10
-73.5
 20
-78
 11
-73.5
 21
-93
  0
LINE
  8
0
 10
-73.5
 20
-93
 11
-88.5
 21
-93
  0
LINE
  8
0
 10
-106.5
 20
-93
 11
-106.5
 21
-78
  0
LINE
  8
0
 10
-106.5
 20
-78
 11
-91.5
 21
-78
  0
LINE
  8
0
 10
-91.5
 20
-78
 11
-91.5
 21
-93
  0
LINE
  8
0
 10
-91.5
 20
-93
 11
-106.5
 21
-93
  0
LINE
  8
0
 10
-6.74519
 20
-92.7407
 11
0.754807
 21
-79.7504
  0
LINE
  8
0
 10
0.754807
 20
-79.7504
 11
13.7452
 21
-87.2504
  0
LINE
  8
0
 10
13.7452
 20
-87.2504
 11
6.24518
 21
-100.241
  0
LINE
  8
0
 10
6.24518
 20
-100.241
 11
-6.74519
 21
-92.7407
  0
LINE
  8
0
 10
-52.5
 20
-101.5
 11
-52.5
 21
-86.5
  0
LINE
  8
0
 10
-52.5
 20
-86.5
 11
-37.5
 21
-86.5
  0
LINE
  8
0
 10
-37.5
 20
-86.5
 11
-37.5
 21
-101.5
  0
LINE
  8
0
 10
-37.5
 20
-101.5
 11
-52.5
 21
-101.5
  0
LINE
  8
0
 10
-33.4801
 20
-102.029
 11
-29.5978
 21
-87.5404
  0
LINE
  8
0
 10
-29.5978
 20
-87.5404
 11
-15.1089
 21
-91.4226
  0
LINE
  8
0
 10
-15.1089
 20
-91.4226
 11
-18.9912
 21
-105.912
  0
LINE
  8
0
 10
-18.9912
 20
-105.912
 11
-33.4801
 21
-102.029
  0
LINE
  8
0
 10
-15.2452
 20
-107.463
 11
-7.74519
 21
-94.4728
  0
LINE
  8
0
 10
-7.74519
 20
-94.4728
 11
5.24518
 21
-101.973
  0
LINE
  8
0
 10
5.24518
 20
-101.973
 11
-2.25482
 21
-114.963
  0
LINE
  8
0
 10
-2.25482
 20
-114.963
 11
-15.2452
 21
-107.463
  0
LINE
  8
0
 10
12.9827
 20
-105.411
 11
23.5894
 21
-94.804
  0
LINE
  8
0
 10
23.5894
 20
-94.804
 11
34.196
 21
-105.411
  0
LINE
  8
0
 10
34.196
 20
-105.411
 11
23.5894
 21
-116.017
  0
LINE
  8
0
 10
23.5894
 20
-116.017
 11
12.9827
 21
-105.411
  0
LINE
  8
0
 10
0.961929
 20
-117.431
 11
11.5685
 21
-106.825
  0
LINE
  8
0
 10
11.5685
 20
-106.825
 11
22.1751
 21
-117.431
  0
LINE
  8
0
 10
22.1751
 20
-117.431
 11
11.5685
 21
-128.038
  0
LINE
  8
0
 10
11.5685
 20
-128.038
 11
0.961929
 21
-117.431
  0
ENDSEC
  0
SECTION
  2
OBJECTS
  0
DICTIONARY
  0
ENDSEC
  0
EOF
