M48
; DRILL file {KiCad 5.99.0+really5.1.10+dfsg1-1} date Thu Dec 23 16:27:03 2021
; FORMAT={-:-/ absolute / metric / decimal}
; #@! TF.CreationDate,2021-12-23T16:27:03+00:00
; #@! TF.GenerationSoftware,Kicad,Pcbnew,5.99.0+really5.1.10+dfsg1-1
; #@! TF.FileFunction,Plated,1,2,PTH
FMAT,2
METRIC
T1C0.400
T2C0.800
T3C0.900
T4C1.000
T5C1.020
T6C1.100
T7C1.270
T8C1.500
%
G90
G05
T1
X32.5Y-47.0
X32.5Y-64.25
X32.5Y-81.25
X32.5Y-98.0
X32.5Y-114.75
X86.5Y-28.0
X86.5Y-46.5
X86.5Y-80.25
X86.5Y-107.0
X138.25Y-35.5
X140.75Y-70.0
X140.75Y-74.5
X141.0Y-49.25
X141.0Y-58.75
X141.0Y-153.75
X149.5Y-35.5
X158.0Y-136.5
T2
X41.5Y-50.38
X41.5Y-58.0
X41.5Y-67.38
X41.5Y-75.0
X41.5Y-84.38
X41.5Y-92.0
X41.5Y-101.38
X41.5Y-109.0
X41.5Y-115.63
X41.5Y-123.25
X49.63Y-111.0
X57.25Y-111.0
X59.25Y-67.38
X59.25Y-75.0
X59.5Y-50.38
X59.5Y-58.0
X59.5Y-84.38
X59.5Y-92.0
X59.5Y-115.5
X59.5Y-123.12
X67.38Y-83.0
X75.0Y-83.0
X77.5Y-39.38
X77.5Y-47.0
X77.5Y-56.38
X77.5Y-64.0
X77.5Y-73.13
X77.5Y-80.75
X77.5Y-115.5
X77.5Y-123.12
X95.5Y-32.38
X95.5Y-40.0
X95.5Y-49.38
X95.5Y-57.0
X95.5Y-66.38
X95.5Y-74.0
X95.5Y-83.38
X95.5Y-91.0
X97.0Y-129.0
X97.995Y-121.445
X98.75Y-116.0
X99.745Y-108.445
X113.5Y-39.38
X113.5Y-47.0
X113.5Y-69.0
X113.5Y-76.62
X113.5Y-80.0
X113.5Y-87.62
X113.5Y-90.88
X113.5Y-98.5
X113.75Y-56.38
X113.75Y-64.0
X117.0Y-134.25
X119.916Y-127.21
X121.38Y-51.0
X121.38Y-68.0
X121.38Y-85.0
X122.0Y-122.25
X124.916Y-115.21
X129.0Y-51.0
X129.0Y-68.0
X129.0Y-85.0
X134.25Y-144.0
X136.25Y-145.5
X138.889Y-137.955
X140.889Y-139.455
X142.25Y-133.5
X144.25Y-135.0
X146.889Y-127.455
X148.889Y-128.955
T4
X134.0Y-90.25
X134.0Y-92.79
X136.54Y-90.25
X136.54Y-92.79
X137.0Y-98.5
X137.0Y-103.5
X140.16Y-90.21
X140.16Y-92.75
X140.2Y-86.75
X142.7Y-90.21
X142.7Y-92.75
X142.74Y-86.75
X145.24Y-90.21
X145.24Y-92.75
X145.28Y-86.75
X147.78Y-90.21
X147.78Y-92.75
X147.82Y-86.75
X151.5Y-98.5
X151.5Y-101.0
X151.5Y-103.5
T5
X135.11Y-34.37
X135.11Y-36.91
X135.11Y-39.45
X135.11Y-41.99
X135.11Y-44.53
X135.11Y-47.07
X135.11Y-49.61
X135.11Y-52.15
X135.11Y-54.69
X135.11Y-57.23
X135.11Y-59.77
X135.11Y-62.31
X135.11Y-64.85
X135.11Y-67.39
X135.11Y-69.93
X135.11Y-72.47
X135.11Y-75.01
X135.11Y-77.55
X135.11Y-80.09
X135.11Y-82.63
X141.46Y-82.4
X144.0Y-82.4
X146.54Y-82.4
X152.89Y-34.37
X152.89Y-36.91
X152.89Y-39.45
X152.89Y-41.99
X152.89Y-44.53
X152.89Y-47.07
X152.89Y-49.61
X152.89Y-52.15
X152.89Y-54.69
X152.89Y-57.23
X152.89Y-59.77
X152.89Y-62.31
X152.89Y-64.85
X152.89Y-67.39
X152.89Y-69.93
X152.89Y-72.47
X152.89Y-75.01
X152.89Y-77.55
X152.89Y-80.09
X152.89Y-82.63
T6
X151.0Y-86.25
X151.0Y-92.75
X155.5Y-86.25
X155.5Y-92.75
T7
X27.5Y-55.3
X27.5Y-72.3
X27.5Y-89.3
X27.5Y-106.3
X27.5Y-123.3
X32.5Y-57.4
X32.5Y-74.4
X32.5Y-91.4
X32.5Y-108.4
X32.5Y-125.4
X37.5Y-55.3
X37.5Y-72.3
X37.5Y-89.3
X37.5Y-106.3
X37.5Y-123.3
X45.5Y-55.3
X45.5Y-72.3
X45.5Y-89.3
X45.5Y-106.3
X45.5Y-123.3
X50.5Y-57.4
X50.5Y-74.4
X50.5Y-91.4
X50.5Y-108.4
X50.5Y-125.4
X55.5Y-55.3
X55.5Y-72.3
X55.5Y-89.3
X55.5Y-106.3
X55.5Y-123.3
X63.5Y-44.3
X63.5Y-61.3
X63.5Y-78.3
X63.5Y-95.3
X63.5Y-123.3
X68.5Y-46.4
X68.5Y-63.4
X68.5Y-80.4
X68.5Y-97.4
X68.5Y-125.4
X73.5Y-44.3
X73.5Y-61.3
X73.5Y-78.3
X73.5Y-95.3
X73.5Y-123.3
X80.6Y-119.5
X81.5Y-37.3
X81.5Y-54.3
X81.5Y-71.3
X81.5Y-88.3
X81.5Y-114.8
X81.5Y-131.8
X82.7Y-114.5
X82.7Y-124.5
X86.5Y-39.4
X86.5Y-56.4
X86.5Y-73.4
X86.5Y-90.4
X86.5Y-116.9
X86.5Y-133.9
X91.5Y-37.3
X91.5Y-54.3
X91.5Y-71.3
X91.5Y-88.3
X91.5Y-114.8
X91.5Y-131.8
X99.5Y-44.3
X99.5Y-61.3
X99.5Y-78.3
X99.5Y-95.3
X101.437Y-133.097
X103.751Y-120.983
X104.485Y-126.356
X104.5Y-46.4
X104.5Y-63.4
X104.5Y-80.4
X104.5Y-97.4
X105.723Y-136.42
X105.837Y-116.676
X107.074Y-116.697
X109.5Y-44.3
X109.5Y-61.3
X109.5Y-78.3
X109.5Y-95.3
X110.123Y-119.999
X111.096Y-135.685
X115.496Y-119.265
X117.5Y-46.3
X117.5Y-63.3
X117.5Y-80.3
X117.5Y-97.3
X120.27Y-139.513
X122.5Y-48.4
X122.5Y-65.4
X122.5Y-82.4
X122.5Y-99.4
X123.55Y-143.832
X124.959Y-133.791
X125.64Y-128.411
X127.5Y-46.3
X127.5Y-63.3
X127.5Y-80.3
X127.5Y-97.3
X128.77Y-124.791
X128.93Y-144.513
X129.959Y-125.131
X132.05Y-129.11
X136.857Y-150.672
X137.43Y-129.791
X138.907Y-155.693
X142.867Y-146.359
X143.928Y-157.743
X144.918Y-141.338
X148.877Y-138.651
X149.938Y-139.288
X150.928Y-143.672
X155.949Y-145.723
T3
X146.4Y-109.7G85X146.0Y-109.7
G05
X146.004Y-118.89G85X146.404Y-118.89
G05
X147.104Y-114.29G85X147.504Y-114.29
G05
X151.5Y-114.3G85X151.1Y-114.3
G05
X154.5Y-114.3G85X154.1Y-114.3
G05
T8
X144.65Y-95.4G85X143.35Y-95.4
G05
X144.65Y-106.6G85X143.35Y-106.6
G05
T0
M30
