G04 #@! TF.GenerationSoftware,KiCad,Pcbnew,5.99.0+really5.1.10+dfsg1-1*
G04 #@! TF.CreationDate,2021-12-23T16:25:37+00:00*
G04 #@! TF.ProjectId,pinanococ-keyboard,70696e61-6e6f-4636-9f63-2d6b6579626f,rev?*
G04 #@! TF.SameCoordinates,Original*
G04 #@! TF.FileFunction,Profile,NP*
%FSLAX46Y46*%
G04 Gerber Fmt 4.6, Leading zero omitted, Abs format (unit mm)*
G04 Created by KiCad (PCBNEW 5.99.0+really5.1.10+dfsg1-1) date 2021-12-23 16:25:37*
%MOMM*%
%LPD*%
G01*
G04 APERTURE LIST*
G04 #@! TA.AperFunction,Profile*
%ADD10C,0.200000*%
G04 #@! TD*
G04 APERTURE END LIST*
D10*
X114498800Y-31950941D02*
X114495200Y-31901990D01*
X114501200Y-32049060D02*
X114498800Y-31950941D01*
X114504800Y-32098010D02*
X114501200Y-32049060D01*
X114510800Y-32146730D02*
X114504800Y-32098010D01*
X114519200Y-32195080D02*
X114510800Y-32146730D01*
X114530000Y-32242970D02*
X114519200Y-32195080D01*
X114543100Y-32290280D02*
X114530000Y-32242970D01*
X114558500Y-32336880D02*
X114543100Y-32290280D01*
X114576100Y-32382680D02*
X114558500Y-32336880D01*
X114596000Y-32427550D02*
X114576100Y-32382680D01*
X114618100Y-32471390D02*
X114596000Y-32427550D01*
X114642300Y-32514100D02*
X114618100Y-32471390D01*
X114668500Y-32555560D02*
X114642300Y-32514100D01*
X114696800Y-32595690D02*
X114668500Y-32555560D01*
X114727000Y-32634380D02*
X114696800Y-32595690D01*
X114759100Y-32671550D02*
X114727000Y-32634380D01*
X114792900Y-32707090D02*
X114759100Y-32671550D01*
X114828400Y-32740940D02*
X114792900Y-32707090D01*
X114865600Y-32773010D02*
X114828400Y-32740940D01*
X114904300Y-32803210D02*
X114865600Y-32773010D01*
X114944401Y-32831470D02*
X114904300Y-32803210D01*
X114985900Y-32857730D02*
X114944401Y-32831470D01*
X115028600Y-32881910D02*
X114985900Y-32857730D01*
X115072400Y-32903980D02*
X115028600Y-32881910D01*
X115117300Y-32923870D02*
X115072400Y-32903980D01*
X115163100Y-32941540D02*
X115117300Y-32923870D01*
X115209701Y-32956940D02*
X115163100Y-32941540D01*
X115257001Y-32970021D02*
X115209701Y-32956940D01*
X115304900Y-32980770D02*
X115257001Y-32970021D01*
X115353300Y-32989171D02*
X115304900Y-32980770D01*
X115402001Y-32995180D02*
X115353300Y-32989171D01*
X115450900Y-32998791D02*
X115402001Y-32995180D01*
X115500000Y-33000000D02*
X115450900Y-32998791D01*
X156500000Y-33000000D02*
X115500000Y-33000000D01*
X156549100Y-33001205D02*
X156500000Y-33000000D01*
X156598000Y-33004822D02*
X156549100Y-33001205D01*
X156646700Y-33010834D02*
X156598000Y-33004822D01*
X156695100Y-33019226D02*
X156646700Y-33010834D01*
X156743000Y-33029984D02*
X156695100Y-33019226D01*
X156790300Y-33043060D02*
X156743000Y-33029984D01*
X156836900Y-33058456D02*
X156790300Y-33043060D01*
X156882700Y-33076126D02*
X156836900Y-33058456D01*
X156927600Y-33096024D02*
X156882700Y-33076126D01*
X156971400Y-33118088D02*
X156927600Y-33096024D01*
X157014100Y-33142273D02*
X156971400Y-33118088D01*
X157055600Y-33168533D02*
X157014100Y-33142273D01*
X157095700Y-33196793D02*
X157055600Y-33168533D01*
X157134400Y-33226990D02*
X157095700Y-33196793D01*
X157171600Y-33259064D02*
X157134400Y-33226990D01*
X157207100Y-33292908D02*
X157171600Y-33259064D01*
X157240900Y-33328445D02*
X157207100Y-33292908D01*
X157273000Y-33365616D02*
X157240900Y-33328445D01*
X157303200Y-33404312D02*
X157273000Y-33365616D01*
X157331500Y-33444443D02*
X157303200Y-33404312D01*
X157357700Y-33485901D02*
X157331500Y-33444443D01*
X157381900Y-33528610D02*
X157357700Y-33485901D01*
X157404000Y-33572449D02*
X157381900Y-33528610D01*
X157423900Y-33617325D02*
X157404000Y-33572449D01*
X157441500Y-33663116D02*
X157423900Y-33617325D01*
X157456900Y-33709717D02*
X157441500Y-33663116D01*
X157470000Y-33757034D02*
X157456900Y-33709717D01*
X157480800Y-33804916D02*
X157470000Y-33757034D01*
X157489200Y-33853271D02*
X157480800Y-33804916D01*
X157495200Y-33901993D02*
X157489200Y-33853271D01*
X157498800Y-33950943D02*
X157495200Y-33901993D01*
X157500000Y-34000000D02*
X157498800Y-33950943D01*
X157500000Y-128000000D02*
X157500000Y-34000000D01*
X157501200Y-128049100D02*
X157500000Y-128000000D01*
X157504800Y-128098000D02*
X157501200Y-128049100D01*
X157510800Y-128146700D02*
X157504800Y-128098000D01*
X157519200Y-128195100D02*
X157510800Y-128146700D01*
X157530000Y-128243000D02*
X157519200Y-128195100D01*
X157543100Y-128290300D02*
X157530000Y-128243000D01*
X157558500Y-128336900D02*
X157543100Y-128290300D01*
X157576100Y-128382700D02*
X157558500Y-128336900D01*
X157596000Y-128427600D02*
X157576100Y-128382700D01*
X157618100Y-128471400D02*
X157596000Y-128427600D01*
X157642300Y-128514100D02*
X157618100Y-128471400D01*
X157667300Y-128553600D02*
X157642300Y-128514100D01*
X168170800Y-139057000D02*
X157667300Y-128553600D01*
X168204700Y-139093000D02*
X168170800Y-139057000D01*
X168236700Y-139130000D02*
X168204700Y-139093000D01*
X168266900Y-139169000D02*
X168236700Y-139130000D01*
X168295200Y-139209000D02*
X168266900Y-139169000D01*
X168321400Y-139250000D02*
X168295200Y-139209000D01*
X168345600Y-139293000D02*
X168321400Y-139250000D01*
X168367700Y-139337000D02*
X168345600Y-139293000D01*
X168387600Y-139382000D02*
X168367700Y-139337000D01*
X168405300Y-139427000D02*
X168387600Y-139382000D01*
X168420700Y-139474000D02*
X168405300Y-139427000D01*
X168433700Y-139521000D02*
X168420700Y-139474000D01*
X168444500Y-139569000D02*
X168433700Y-139521000D01*
X168452900Y-139617000D02*
X168444500Y-139569000D01*
X168458900Y-139666000D02*
X168452900Y-139617000D01*
X168462500Y-139715000D02*
X168458900Y-139666000D01*
X168463700Y-139764000D02*
X168462500Y-139715000D01*
X168462500Y-139813000D02*
X168463700Y-139764000D01*
X168458900Y-139862000D02*
X168462500Y-139813000D01*
X168452900Y-139911000D02*
X168458900Y-139862000D01*
X168444500Y-139959000D02*
X168452900Y-139911000D01*
X168433700Y-140007000D02*
X168444500Y-139959000D01*
X168420700Y-140054000D02*
X168433700Y-140007000D01*
X168405300Y-140101000D02*
X168420700Y-140054000D01*
X168387600Y-140147000D02*
X168405300Y-140101000D01*
X168367700Y-140192000D02*
X168387600Y-140147000D01*
X168345600Y-140236000D02*
X168367700Y-140192000D01*
X168321400Y-140278000D02*
X168345600Y-140236000D01*
X168295200Y-140320000D02*
X168321400Y-140278000D01*
X168266900Y-140360000D02*
X168295200Y-140320000D01*
X168236700Y-140399000D02*
X168266900Y-140360000D01*
X168204700Y-140436000D02*
X168236700Y-140399000D01*
X168170800Y-140471000D02*
X168204700Y-140436000D01*
X144129200Y-164513000D02*
X168170800Y-140471000D01*
X144093600Y-164547000D02*
X144129200Y-164513000D01*
X144056500Y-164579000D02*
X144093600Y-164547000D01*
X144017800Y-164609000D02*
X144056500Y-164579000D01*
X143977600Y-164637000D02*
X144017800Y-164609000D01*
X143936200Y-164663999D02*
X143977600Y-164637000D01*
X143893500Y-164687999D02*
X143936200Y-164663999D01*
X143849600Y-164710000D02*
X143893500Y-164687999D01*
X143804800Y-164729999D02*
X143849600Y-164710000D01*
X143759000Y-164747000D02*
X143804800Y-164729999D01*
X143712400Y-164763000D02*
X143759000Y-164747000D01*
X143665100Y-164776000D02*
X143712400Y-164763000D01*
X143617200Y-164787000D02*
X143665100Y-164776000D01*
X143568800Y-164794999D02*
X143617200Y-164787000D01*
X143520100Y-164800999D02*
X143568800Y-164794999D01*
X143471100Y-164805000D02*
X143520100Y-164800999D01*
X143422100Y-164806000D02*
X143471100Y-164805000D01*
X143373000Y-164805000D02*
X143422100Y-164806000D01*
X143324100Y-164800999D02*
X143373000Y-164805000D01*
X143275400Y-164794999D02*
X143324100Y-164800999D01*
X143227000Y-164787000D02*
X143275400Y-164794999D01*
X143179100Y-164776000D02*
X143227000Y-164787000D01*
X143131800Y-164763000D02*
X143179100Y-164776000D01*
X143085200Y-164747000D02*
X143131800Y-164763000D01*
X143039400Y-164729999D02*
X143085200Y-164747000D01*
X142994500Y-164710000D02*
X143039400Y-164729999D01*
X142950700Y-164687999D02*
X142994500Y-164710000D01*
X142908000Y-164663999D02*
X142950700Y-164687999D01*
X142866500Y-164637000D02*
X142908000Y-164663999D01*
X142826400Y-164609000D02*
X142866500Y-164637000D01*
X142787700Y-164579000D02*
X142826400Y-164609000D01*
X142750500Y-164547000D02*
X142787700Y-164579000D01*
X142715000Y-164513000D02*
X142750500Y-164547000D01*
X136351240Y-158149000D02*
X142715000Y-164513000D01*
X133845030Y-155763000D02*
X136351240Y-158149000D01*
X131224731Y-153503000D02*
X133845030Y-155763000D01*
X128496810Y-151374000D02*
X131224731Y-153503000D01*
X125667760Y-149381000D02*
X128496810Y-151374000D01*
X122744230Y-147530000D02*
X125667760Y-149381000D01*
X119733300Y-145824000D02*
X122744230Y-147530000D01*
X116642700Y-144269000D02*
X119733300Y-145824000D01*
X113479300Y-142867000D02*
X116642700Y-144269000D01*
X110250700Y-141621000D02*
X113479300Y-142867000D01*
X106965100Y-140536000D02*
X110250700Y-141621000D01*
X103629900Y-139613000D02*
X106965100Y-140536000D01*
X100253900Y-138855000D02*
X103629900Y-139613000D01*
X96844600Y-138263000D02*
X100253900Y-138855000D01*
X93410300Y-137839000D02*
X96844600Y-138263000D01*
X89959300Y-137585000D02*
X93410300Y-137839000D01*
X86500000Y-137500000D02*
X89959300Y-137585000D01*
X77500000Y-137500000D02*
X86500000Y-137500000D01*
X77450900Y-137499000D02*
X77500000Y-137500000D01*
X77402000Y-137495000D02*
X77450900Y-137499000D01*
X77353300Y-137489000D02*
X77402000Y-137495000D01*
X77304900Y-137481000D02*
X77353300Y-137489000D01*
X77257000Y-137470000D02*
X77304900Y-137481000D01*
X77209700Y-137457000D02*
X77257000Y-137470000D01*
X77163100Y-137442000D02*
X77209700Y-137457000D01*
X77117300Y-137424000D02*
X77163100Y-137442000D01*
X77072400Y-137404000D02*
X77117300Y-137424000D01*
X77028600Y-137382000D02*
X77072400Y-137404000D01*
X76985900Y-137358000D02*
X77028600Y-137382000D01*
X76944400Y-137331000D02*
X76985900Y-137358000D01*
X76904300Y-137303000D02*
X76944400Y-137331000D01*
X76865600Y-137273000D02*
X76904300Y-137303000D01*
X76828400Y-137241000D02*
X76865600Y-137273000D01*
X76792900Y-137207000D02*
X76828400Y-137241000D01*
X76759100Y-137172000D02*
X76792900Y-137207000D01*
X76727000Y-137134000D02*
X76759100Y-137172000D01*
X76696800Y-137096000D02*
X76727000Y-137134000D01*
X76668500Y-137056000D02*
X76696800Y-137096000D01*
X76642300Y-137014000D02*
X76668500Y-137056000D01*
X76618100Y-136971000D02*
X76642300Y-137014000D01*
X76596000Y-136928000D02*
X76618100Y-136971000D01*
X76576100Y-136883000D02*
X76596000Y-136928000D01*
X76558500Y-136837000D02*
X76576100Y-136883000D01*
X76543100Y-136790000D02*
X76558500Y-136837000D01*
X76530000Y-136743000D02*
X76543100Y-136790000D01*
X76519200Y-136695000D02*
X76530000Y-136743000D01*
X76510800Y-136647000D02*
X76519200Y-136695000D01*
X76504800Y-136598000D02*
X76510800Y-136647000D01*
X76501200Y-136549000D02*
X76504800Y-136598000D01*
X76500000Y-136500000D02*
X76501200Y-136549000D01*
X76500000Y-130000000D02*
X76500000Y-136500000D01*
X76498800Y-129950900D02*
X76500000Y-130000000D01*
X76495200Y-129902000D02*
X76498800Y-129950900D01*
X76489200Y-129853300D02*
X76495200Y-129902000D01*
X76480800Y-129804900D02*
X76489200Y-129853300D01*
X76470000Y-129757000D02*
X76480800Y-129804900D01*
X76456900Y-129709700D02*
X76470000Y-129757000D01*
X76441500Y-129663100D02*
X76456900Y-129709700D01*
X76423900Y-129617300D02*
X76441500Y-129663100D01*
X76404000Y-129572400D02*
X76423900Y-129617300D01*
X76381900Y-129528600D02*
X76404000Y-129572400D01*
X76357700Y-129485900D02*
X76381900Y-129528600D01*
X76331500Y-129444400D02*
X76357700Y-129485900D01*
X76303200Y-129404300D02*
X76331500Y-129444400D01*
X76273000Y-129365600D02*
X76303200Y-129404300D01*
X76240900Y-129328400D02*
X76273000Y-129365600D01*
X76207100Y-129292900D02*
X76240900Y-129328400D01*
X76171600Y-129259100D02*
X76207100Y-129292900D01*
X76134400Y-129227000D02*
X76171600Y-129259100D01*
X76095700Y-129196800D02*
X76134400Y-129227000D01*
X76055600Y-129168500D02*
X76095700Y-129196800D01*
X76014100Y-129142300D02*
X76055600Y-129168500D01*
X75971400Y-129118100D02*
X76014100Y-129142300D01*
X75927600Y-129096000D02*
X75971400Y-129118100D01*
X75882700Y-129076100D02*
X75927600Y-129096000D01*
X75836900Y-129058500D02*
X75882700Y-129076100D01*
X75790300Y-129043100D02*
X75836900Y-129058500D01*
X75743000Y-129030000D02*
X75790300Y-129043100D01*
X75695100Y-129019200D02*
X75743000Y-129030000D01*
X75646700Y-129010800D02*
X75695100Y-129019200D01*
X75598000Y-129004800D02*
X75646700Y-129010800D01*
X75549100Y-129001200D02*
X75598000Y-129004800D01*
X75500000Y-129000000D02*
X75549100Y-129001200D01*
X23500000Y-129000000D02*
X75500000Y-129000000D01*
X23451000Y-128998800D02*
X23500000Y-129000000D01*
X23402000Y-128995200D02*
X23451000Y-128998800D01*
X23353000Y-128989200D02*
X23402000Y-128995200D01*
X23305000Y-128980800D02*
X23353000Y-128989200D01*
X23257000Y-128970000D02*
X23305000Y-128980800D01*
X23210000Y-128956900D02*
X23257000Y-128970000D01*
X23163000Y-128941500D02*
X23210000Y-128956900D01*
X23117000Y-128923900D02*
X23163000Y-128941500D01*
X23072000Y-128904000D02*
X23117000Y-128923900D01*
X23029000Y-128881900D02*
X23072000Y-128904000D01*
X22986000Y-128857700D02*
X23029000Y-128881900D01*
X22944000Y-128831500D02*
X22986000Y-128857700D01*
X22904000Y-128803200D02*
X22944000Y-128831500D01*
X22866000Y-128773000D02*
X22904000Y-128803200D01*
X22828000Y-128740900D02*
X22866000Y-128773000D01*
X22793000Y-128707100D02*
X22828000Y-128740900D01*
X22759000Y-128671600D02*
X22793000Y-128707100D01*
X22727000Y-128634400D02*
X22759000Y-128671600D01*
X22697000Y-128595700D02*
X22727000Y-128634400D01*
X22669000Y-128555600D02*
X22697000Y-128595700D01*
X22642000Y-128514100D02*
X22669000Y-128555600D01*
X22618000Y-128471400D02*
X22642000Y-128514100D01*
X22596000Y-128427600D02*
X22618000Y-128471400D01*
X22576000Y-128382700D02*
X22596000Y-128427600D01*
X22558000Y-128336900D02*
X22576000Y-128382700D01*
X22543000Y-128290300D02*
X22558000Y-128336900D01*
X22530000Y-128243000D02*
X22543000Y-128290300D01*
X22519000Y-128195100D02*
X22530000Y-128243000D01*
X22511000Y-128146700D02*
X22519000Y-128195100D01*
X22505000Y-128098000D02*
X22511000Y-128146700D01*
X22501000Y-128049100D02*
X22505000Y-128098000D01*
X22500000Y-128000000D02*
X22501000Y-128049100D01*
X22500000Y-43000000D02*
X22500000Y-128000000D01*
X22501000Y-42950940D02*
X22500000Y-43000000D01*
X22505000Y-42901990D02*
X22501000Y-42950940D01*
X22511000Y-42853270D02*
X22505000Y-42901990D01*
X22519000Y-42804920D02*
X22511000Y-42853270D01*
X22530000Y-42757030D02*
X22519000Y-42804920D01*
X22543000Y-42709720D02*
X22530000Y-42757030D01*
X22558000Y-42663120D02*
X22543000Y-42709720D01*
X22576000Y-42617320D02*
X22558000Y-42663120D01*
X22596000Y-42572450D02*
X22576000Y-42617320D01*
X22618000Y-42528610D02*
X22596000Y-42572450D01*
X22642000Y-42485900D02*
X22618000Y-42528610D01*
X22669000Y-42444440D02*
X22642000Y-42485900D01*
X22697000Y-42404310D02*
X22669000Y-42444440D01*
X22727000Y-42365620D02*
X22697000Y-42404310D01*
X22759000Y-42328450D02*
X22727000Y-42365620D01*
X22793000Y-42292909D02*
X22759000Y-42328450D01*
X22828000Y-42259060D02*
X22793000Y-42292909D01*
X22866000Y-42226990D02*
X22828000Y-42259060D01*
X22904000Y-42196790D02*
X22866000Y-42226990D01*
X22944000Y-42168530D02*
X22904000Y-42196790D01*
X22986000Y-42142270D02*
X22944000Y-42168530D01*
X23029000Y-42118090D02*
X22986000Y-42142270D01*
X23072000Y-42096019D02*
X23029000Y-42118090D01*
X23117000Y-42076129D02*
X23072000Y-42096019D01*
X23163000Y-42058460D02*
X23117000Y-42076129D01*
X23210000Y-42043060D02*
X23163000Y-42058460D01*
X23257000Y-42029980D02*
X23210000Y-42043060D01*
X23305000Y-42019230D02*
X23257000Y-42029980D01*
X23353000Y-42010830D02*
X23305000Y-42019230D01*
X23402000Y-42004820D02*
X23353000Y-42010830D01*
X23451000Y-42001210D02*
X23402000Y-42004820D01*
X23500000Y-42000000D02*
X23451000Y-42001210D01*
X57500000Y-42000000D02*
X23500000Y-42000000D01*
X57549100Y-41998790D02*
X57500000Y-42000000D01*
X57598000Y-41995180D02*
X57549100Y-41998790D01*
X57646700Y-41989170D02*
X57598000Y-41995180D01*
X57695100Y-41980770D02*
X57646700Y-41989170D01*
X57743000Y-41970020D02*
X57695100Y-41980770D01*
X57790300Y-41956940D02*
X57743000Y-41970020D01*
X57836900Y-41941540D02*
X57790300Y-41956940D01*
X57882700Y-41923870D02*
X57836900Y-41941540D01*
X57927600Y-41903980D02*
X57882700Y-41923870D01*
X57971400Y-41881910D02*
X57927600Y-41903980D01*
X58014100Y-41857730D02*
X57971400Y-41881910D01*
X58055600Y-41831470D02*
X58014100Y-41857730D01*
X58095700Y-41803210D02*
X58055600Y-41831470D01*
X58134400Y-41773010D02*
X58095700Y-41803210D01*
X58171600Y-41740940D02*
X58134400Y-41773010D01*
X58207100Y-41707090D02*
X58171600Y-41740940D01*
X58240900Y-41671550D02*
X58207100Y-41707090D01*
X58273000Y-41634380D02*
X58240900Y-41671550D01*
X58303200Y-41595690D02*
X58273000Y-41634380D01*
X58331500Y-41555560D02*
X58303200Y-41595690D01*
X58357700Y-41514100D02*
X58331500Y-41555560D01*
X58381900Y-41471390D02*
X58357700Y-41514100D01*
X58404000Y-41427550D02*
X58381900Y-41471390D01*
X58423900Y-41382680D02*
X58404000Y-41427550D01*
X58441500Y-41336880D02*
X58423900Y-41382680D01*
X58456900Y-41290280D02*
X58441500Y-41336880D01*
X58470000Y-41242970D02*
X58456900Y-41290280D01*
X58480800Y-41195080D02*
X58470000Y-41242970D01*
X58489200Y-41146730D02*
X58480800Y-41195080D01*
X58495200Y-41098010D02*
X58489200Y-41146730D01*
X58498800Y-41049060D02*
X58495200Y-41098010D01*
X58500000Y-41000000D02*
X58498800Y-41049060D01*
X58500000Y-32000000D02*
X58500000Y-41000000D01*
X58501200Y-31950941D02*
X58500000Y-32000000D01*
X58504800Y-31901990D02*
X58501200Y-31950941D01*
X58510800Y-31853270D02*
X58504800Y-31901990D01*
X58519200Y-31804920D02*
X58510800Y-31853270D01*
X58530000Y-31757030D02*
X58519200Y-31804920D01*
X58543100Y-31709720D02*
X58530000Y-31757030D01*
X58558500Y-31663120D02*
X58543100Y-31709720D01*
X58576100Y-31617320D02*
X58558500Y-31663120D01*
X58596000Y-31572450D02*
X58576100Y-31617320D01*
X58618100Y-31528610D02*
X58596000Y-31572450D01*
X58642300Y-31485900D02*
X58618100Y-31528610D01*
X58668500Y-31444440D02*
X58642300Y-31485900D01*
X58696800Y-31404310D02*
X58668500Y-31444440D01*
X58727000Y-31365620D02*
X58696800Y-31404310D01*
X58759100Y-31328450D02*
X58727000Y-31365620D01*
X58792900Y-31292910D02*
X58759100Y-31328450D01*
X58828400Y-31259060D02*
X58792900Y-31292910D01*
X58865600Y-31226990D02*
X58828400Y-31259060D01*
X58904300Y-31196790D02*
X58865600Y-31226990D01*
X58944400Y-31168530D02*
X58904300Y-31196790D01*
X58985900Y-31142270D02*
X58944400Y-31168530D01*
X59028600Y-31118090D02*
X58985900Y-31142270D01*
X59072400Y-31096020D02*
X59028600Y-31118090D01*
X59117300Y-31076130D02*
X59072400Y-31096020D01*
X59163100Y-31058460D02*
X59117300Y-31076130D01*
X59209700Y-31043060D02*
X59163100Y-31058460D01*
X59257000Y-31029980D02*
X59209700Y-31043060D01*
X59304900Y-31019230D02*
X59257000Y-31029980D01*
X59353300Y-31010830D02*
X59304900Y-31019230D01*
X59402000Y-31004820D02*
X59353300Y-31010830D01*
X59450900Y-31001210D02*
X59402000Y-31004820D01*
X59500000Y-31000000D02*
X59450900Y-31001210D01*
X75500000Y-31000000D02*
X59500000Y-31000000D01*
X75549100Y-30998790D02*
X75500000Y-31000000D01*
X75598000Y-30995180D02*
X75549100Y-30998790D01*
X75646700Y-30989170D02*
X75598000Y-30995180D01*
X75695100Y-30980770D02*
X75646700Y-30989170D01*
X75743000Y-30970020D02*
X75695100Y-30980770D01*
X75790300Y-30956940D02*
X75743000Y-30970020D01*
X75836900Y-30941540D02*
X75790300Y-30956940D01*
X75882700Y-30923870D02*
X75836900Y-30941540D01*
X75927600Y-30903980D02*
X75882700Y-30923870D01*
X75971400Y-30881910D02*
X75927600Y-30903980D01*
X76014100Y-30857730D02*
X75971400Y-30881910D01*
X76055600Y-30831470D02*
X76014100Y-30857730D01*
X76095700Y-30803210D02*
X76055600Y-30831470D01*
X76134400Y-30773010D02*
X76095700Y-30803210D01*
X76171600Y-30740940D02*
X76134400Y-30773010D01*
X76207100Y-30707090D02*
X76171600Y-30740940D01*
X76240900Y-30671550D02*
X76207100Y-30707090D01*
X76273000Y-30634380D02*
X76240900Y-30671550D01*
X76303200Y-30595690D02*
X76273000Y-30634380D01*
X76331500Y-30555560D02*
X76303200Y-30595690D01*
X76357700Y-30514100D02*
X76331500Y-30555560D01*
X76381900Y-30471390D02*
X76357700Y-30514100D01*
X76404000Y-30427550D02*
X76381900Y-30471390D01*
X76423900Y-30382680D02*
X76404000Y-30427550D01*
X76441500Y-30336880D02*
X76423900Y-30382680D01*
X76456900Y-30290280D02*
X76441500Y-30336880D01*
X76470000Y-30242970D02*
X76456900Y-30290280D01*
X76480800Y-30195080D02*
X76470000Y-30242970D01*
X76489200Y-30146730D02*
X76480800Y-30195080D01*
X76495200Y-30098010D02*
X76489200Y-30146730D01*
X76498800Y-30049060D02*
X76495200Y-30098010D01*
X76500000Y-30000000D02*
X76498800Y-30049060D01*
X76500000Y-25000000D02*
X76500000Y-30000000D01*
X76501200Y-24950940D02*
X76500000Y-25000000D01*
X76504800Y-24901990D02*
X76501200Y-24950940D01*
X76510800Y-24853270D02*
X76504800Y-24901990D01*
X76519200Y-24804920D02*
X76510800Y-24853270D01*
X76530000Y-24757030D02*
X76519200Y-24804920D01*
X76543100Y-24709720D02*
X76530000Y-24757030D01*
X76558500Y-24663120D02*
X76543100Y-24709720D01*
X76576100Y-24617320D02*
X76558500Y-24663120D01*
X76596000Y-24572450D02*
X76576100Y-24617320D01*
X76618100Y-24528610D02*
X76596000Y-24572450D01*
X76642300Y-24485900D02*
X76618100Y-24528610D01*
X76668500Y-24444440D02*
X76642300Y-24485900D01*
X76696800Y-24404310D02*
X76668500Y-24444440D01*
X76727000Y-24365620D02*
X76696800Y-24404310D01*
X76759100Y-24328450D02*
X76727000Y-24365620D01*
X76792900Y-24292910D02*
X76759100Y-24328450D01*
X76828400Y-24259060D02*
X76792900Y-24292910D01*
X76865600Y-24226990D02*
X76828400Y-24259060D01*
X76904300Y-24196790D02*
X76865600Y-24226990D01*
X76944400Y-24168530D02*
X76904300Y-24196790D01*
X76985900Y-24142270D02*
X76944400Y-24168530D01*
X77028600Y-24118090D02*
X76985900Y-24142270D01*
X77072400Y-24096020D02*
X77028600Y-24118090D01*
X77117300Y-24076130D02*
X77072400Y-24096020D01*
X77163100Y-24058460D02*
X77117300Y-24076130D01*
X77209700Y-24043060D02*
X77163100Y-24058460D01*
X77257000Y-24029980D02*
X77209700Y-24043060D01*
X77304900Y-24019230D02*
X77257000Y-24029980D01*
X77353300Y-24010830D02*
X77304900Y-24019230D01*
X77402000Y-24004820D02*
X77353300Y-24010830D01*
X77450900Y-24001210D02*
X77402000Y-24004820D01*
X77500000Y-24000000D02*
X77450900Y-24001210D01*
X95500000Y-24000000D02*
X77500000Y-24000000D01*
X95549100Y-24001210D02*
X95500000Y-24000000D01*
X95598000Y-24004820D02*
X95549100Y-24001210D01*
X95646700Y-24010830D02*
X95598000Y-24004820D01*
X95695100Y-24019230D02*
X95646700Y-24010830D01*
X95743000Y-24029980D02*
X95695100Y-24019230D01*
X95790300Y-24043060D02*
X95743000Y-24029980D01*
X95836900Y-24058460D02*
X95790300Y-24043060D01*
X95882700Y-24076130D02*
X95836900Y-24058460D01*
X95927600Y-24096020D02*
X95882700Y-24076130D01*
X95971400Y-24118090D02*
X95927600Y-24096020D01*
X96014100Y-24142270D02*
X95971400Y-24118090D01*
X96055600Y-24168530D02*
X96014100Y-24142270D01*
X96095700Y-24196790D02*
X96055600Y-24168530D01*
X96134400Y-24226990D02*
X96095700Y-24196790D01*
X96171600Y-24259060D02*
X96134400Y-24226990D01*
X96207100Y-24292910D02*
X96171600Y-24259060D01*
X96240900Y-24328450D02*
X96207100Y-24292910D01*
X96273000Y-24365620D02*
X96240900Y-24328450D01*
X96303200Y-24404310D02*
X96273000Y-24365620D01*
X96331500Y-24444440D02*
X96303200Y-24404310D01*
X96357700Y-24485900D02*
X96331500Y-24444440D01*
X96381900Y-24528610D02*
X96357700Y-24485900D01*
X96404000Y-24572450D02*
X96381900Y-24528610D01*
X96423900Y-24617320D02*
X96404000Y-24572450D01*
X96441500Y-24663120D02*
X96423900Y-24617320D01*
X96456900Y-24709720D02*
X96441500Y-24663120D01*
X96470000Y-24757030D02*
X96456900Y-24709720D01*
X96480800Y-24804920D02*
X96470000Y-24757030D01*
X96489200Y-24853270D02*
X96480800Y-24804920D01*
X96495200Y-24901990D02*
X96489200Y-24853270D01*
X96498800Y-24950940D02*
X96495200Y-24901990D01*
X96500000Y-25000000D02*
X96498800Y-24950940D01*
X96500000Y-30000000D02*
X96500000Y-25000000D01*
X96501200Y-30049060D02*
X96500000Y-30000000D01*
X96504800Y-30098010D02*
X96501200Y-30049060D01*
X96510800Y-30146730D02*
X96504800Y-30098010D01*
X96519200Y-30195080D02*
X96510800Y-30146730D01*
X96530000Y-30242970D02*
X96519200Y-30195080D01*
X96543100Y-30290280D02*
X96530000Y-30242970D01*
X96558500Y-30336880D02*
X96543100Y-30290280D01*
X96576100Y-30382680D02*
X96558500Y-30336880D01*
X96596000Y-30427550D02*
X96576100Y-30382680D01*
X96618100Y-30471390D02*
X96596000Y-30427550D01*
X96642300Y-30514100D02*
X96618100Y-30471390D01*
X96668500Y-30555560D02*
X96642300Y-30514100D01*
X96696800Y-30595690D02*
X96668500Y-30555560D01*
X96727000Y-30634380D02*
X96696800Y-30595690D01*
X96759100Y-30671550D02*
X96727000Y-30634380D01*
X96792900Y-30707090D02*
X96759100Y-30671550D01*
X96828400Y-30740940D02*
X96792900Y-30707090D01*
X96865600Y-30773010D02*
X96828400Y-30740940D01*
X96904300Y-30803210D02*
X96865600Y-30773010D01*
X96944400Y-30831470D02*
X96904300Y-30803210D01*
X96985900Y-30857730D02*
X96944400Y-30831470D01*
X97028600Y-30881910D02*
X96985900Y-30857730D01*
X97072400Y-30903980D02*
X97028600Y-30881910D01*
X97117300Y-30923870D02*
X97072400Y-30903980D01*
X97163100Y-30941540D02*
X97117300Y-30923870D01*
X97209700Y-30956940D02*
X97163100Y-30941540D01*
X97257000Y-30970020D02*
X97209700Y-30956940D01*
X97304900Y-30980770D02*
X97257000Y-30970020D01*
X97353300Y-30989170D02*
X97304900Y-30980770D01*
X97402000Y-30995180D02*
X97353300Y-30989170D01*
X97450900Y-30998790D02*
X97402000Y-30995180D01*
X97500000Y-31000000D02*
X97450900Y-30998790D01*
X113500000Y-31000000D02*
X97500000Y-31000000D01*
X113549100Y-31001210D02*
X113500000Y-31000000D01*
X113598000Y-31004820D02*
X113549100Y-31001210D01*
X113646700Y-31010830D02*
X113598000Y-31004820D01*
X113695100Y-31019230D02*
X113646700Y-31010830D01*
X113743000Y-31029980D02*
X113695100Y-31019230D01*
X113790300Y-31043060D02*
X113743000Y-31029980D01*
X113836900Y-31058460D02*
X113790300Y-31043060D01*
X113882700Y-31076130D02*
X113836900Y-31058460D01*
X113927600Y-31096020D02*
X113882700Y-31076130D01*
X113971400Y-31118090D02*
X113927600Y-31096020D01*
X114014100Y-31142270D02*
X113971400Y-31118090D01*
X114055600Y-31168530D02*
X114014100Y-31142270D01*
X114095700Y-31196790D02*
X114055600Y-31168530D01*
X114134400Y-31226990D02*
X114095700Y-31196790D01*
X114171600Y-31259060D02*
X114134400Y-31226990D01*
X114207100Y-31292910D02*
X114171600Y-31259060D01*
X114240900Y-31328450D02*
X114207100Y-31292910D01*
X114273000Y-31365620D02*
X114240900Y-31328450D01*
X114303200Y-31404310D02*
X114273000Y-31365620D01*
X114331500Y-31444440D02*
X114303200Y-31404310D01*
X114357700Y-31485900D02*
X114331500Y-31444440D01*
X114381900Y-31528610D02*
X114357700Y-31485900D01*
X114404000Y-31572450D02*
X114381900Y-31528610D01*
X114423900Y-31617320D02*
X114404000Y-31572450D01*
X114441500Y-31663120D02*
X114423900Y-31617320D01*
X114456900Y-31709720D02*
X114441500Y-31663120D01*
X114470000Y-31757030D02*
X114456900Y-31709720D01*
X114480800Y-31804920D02*
X114470000Y-31757030D01*
X114489200Y-31853270D02*
X114480800Y-31804920D01*
X114495200Y-31901990D02*
X114489200Y-31853270D01*
M02*
