M48
; DRILL file {KiCad 5.99.0+really5.1.10+dfsg1-1} date Thu Dec 23 16:27:03 2021
; FORMAT={-:-/ absolute / metric / decimal}
; #@! TF.CreationDate,2021-12-23T16:27:03+00:00
; #@! TF.GenerationSoftware,Kicad,Pcbnew,5.99.0+really5.1.10+dfsg1-1
; #@! TF.FileFunction,NonPlated,1,2,NPTH
FMAT,2
METRIC
T1C0.800
T2C0.991
T3C1.500
T4C1.702
T5C1.800
T6C3.429
%
G90
G05
T1
X148.9Y-112.0
X148.904Y-116.59
X155.9Y-112.0
X155.904Y-116.59
T2
X27.28Y-47.3
X27.28Y-64.3
X27.28Y-81.3
X27.28Y-98.3
X27.28Y-115.3
X37.72Y-47.3
X37.72Y-64.3
X37.72Y-81.3
X37.72Y-98.3
X37.72Y-115.3
X45.28Y-47.3
X45.28Y-64.3
X45.28Y-81.3
X45.28Y-98.3
X45.28Y-115.3
X55.72Y-47.3
X55.72Y-64.3
X55.72Y-81.3
X55.72Y-98.3
X55.72Y-115.3
X63.28Y-36.3
X63.28Y-53.3
X63.28Y-70.3
X63.28Y-87.3
X63.28Y-115.3
X73.72Y-36.3
X73.72Y-53.3
X73.72Y-70.3
X73.72Y-87.3
X73.72Y-115.3
X81.28Y-29.3
X81.28Y-46.3
X81.28Y-63.3
X81.28Y-80.3
X81.28Y-106.8
X81.28Y-123.8
X90.7Y-114.28
X90.7Y-124.72
X91.72Y-29.3
X91.72Y-46.3
X91.72Y-63.3
X91.72Y-80.3
X91.72Y-106.8
X91.72Y-123.8
X99.28Y-36.3
X99.28Y-53.3
X99.28Y-70.3
X99.28Y-87.3
X103.295Y-125.313
X107.695Y-108.892
X109.72Y-36.3
X109.72Y-53.3
X109.72Y-70.3
X109.72Y-87.3
X112.156Y-128.64
X113.379Y-128.015
X114.858Y-118.555
X117.28Y-38.3
X117.28Y-55.3
X117.28Y-72.3
X117.28Y-89.3
X117.779Y-111.594
X124.079Y-132.475
X127.72Y-38.3
X127.72Y-55.3
X127.72Y-72.3
X127.72Y-89.3
X131.777Y-137.982
X132.579Y-117.753
X133.121Y-137.695
X136.997Y-128.941
X141.621Y-122.973
X142.358Y-144.86
X148.368Y-152.171
X149.74Y-152.242
X154.379Y-132.839
X155.751Y-144.789
X161.761Y-140.221
T3
X141.575Y-37.53
X146.425Y-37.53
T4
X27.0Y-51.5
X27.0Y-68.5
X27.0Y-85.5
X27.0Y-102.5
X27.0Y-119.5
X38.0Y-51.5
X38.0Y-68.5
X38.0Y-85.5
X38.0Y-102.5
X38.0Y-119.5
X45.0Y-51.5
X45.0Y-68.5
X45.0Y-85.5
X45.0Y-102.5
X45.0Y-119.5
X56.0Y-51.5
X56.0Y-68.5
X56.0Y-85.5
X56.0Y-102.5
X56.0Y-119.5
X63.0Y-40.5
X63.0Y-57.5
X63.0Y-74.5
X63.0Y-91.5
X63.0Y-119.5
X74.0Y-40.5
X74.0Y-57.5
X74.0Y-74.5
X74.0Y-91.5
X74.0Y-119.5
X81.0Y-33.5
X81.0Y-50.5
X81.0Y-67.5
X81.0Y-84.5
X81.0Y-111.0
X81.0Y-128.0
X86.5Y-114.0
X86.5Y-125.0
X92.0Y-33.5
X92.0Y-50.5
X92.0Y-67.5
X92.0Y-84.5
X92.0Y-111.0
X92.0Y-128.0
X99.0Y-40.5
X99.0Y-57.5
X99.0Y-74.5
X99.0Y-91.5
X101.937Y-129.297
X106.337Y-112.876
X108.027Y-127.823
X110.0Y-40.5
X110.0Y-57.5
X110.0Y-74.5
X110.0Y-91.5
X110.874Y-117.198
X112.563Y-132.144
X116.963Y-115.724
X117.0Y-42.5
X117.0Y-59.5
X117.0Y-76.5
X117.0Y-93.5
X121.737Y-135.972
X128.0Y-42.5
X128.0Y-59.5
X128.0Y-76.5
X128.0Y-93.5
X128.0Y-136.124
X130.237Y-121.25
X131.263Y-141.472
X133.5Y-126.598
X139.19Y-147.632
X139.763Y-126.75
X145.201Y-149.399
X146.968Y-155.41
X151.211Y-135.611
X152.979Y-141.621
X158.989Y-143.389
T5
X141.275Y-34.5
X146.725Y-34.5
T6
X32.5Y-51.5
X32.5Y-68.5
X32.5Y-85.5
X32.5Y-102.5
X32.5Y-119.5
X50.5Y-51.5
X50.5Y-68.5
X50.5Y-85.5
X50.5Y-102.5
X50.5Y-119.5
X68.5Y-40.5
X68.5Y-57.5
X68.5Y-74.5
X68.5Y-91.5
X68.5Y-119.5
X86.5Y-33.5
X86.5Y-50.5
X86.5Y-67.5
X86.5Y-84.5
X86.5Y-111.0
X86.5Y-119.5
X86.5Y-128.0
X104.5Y-40.5
X104.5Y-57.5
X104.5Y-74.5
X104.5Y-91.5
X107.25Y-130.721
X109.45Y-122.51
X111.65Y-114.3
X122.5Y-42.5
X122.5Y-59.5
X122.5Y-76.5
X122.5Y-93.5
X126.5Y-138.722
X130.75Y-131.361
X135.0Y-124.0
X143.079Y-151.521
X149.09Y-145.51
X155.1Y-139.5
T0
M30
