G04 #@! TF.GenerationSoftware,KiCad,Pcbnew,5.99.0+really5.1.10+dfsg1-1*
G04 #@! TF.CreationDate,2021-12-23T16:25:37+00:00*
G04 #@! TF.ProjectId,pinanochoc-keyboard,70696e61-6e6f-4636-9f63-2d6b6579626f,rev?*
G04 #@! TF.SameCoordinates,Original*
G04 #@! TF.FileFunction,Legend,Bot*
G04 #@! TF.FilePolarity,Positive*
%FSLAX46Y46*%
G04 Gerber Fmt 4.6, Leading zero omitted, Abs format (unit mm)*
G04 Created by KiCad (PCBNEW 5.99.0+really5.1.10+dfsg1-1) date 2021-12-23 16:25:37*
%MOMM*%
%LPD*%
G01*
G04 APERTURE LIST*
%ADD10C,0.150000*%
%ADD11C,0.010000*%
%ADD12O,1.700000X1.700000*%
%ADD13R,1.700000X1.700000*%
%ADD14R,1.700000X3.500000*%
%ADD15R,3.500000X1.700000*%
%ADD16O,1.500000X1.500000*%
%ADD17O,1.800000X1.800000*%
%ADD18C,2.000000*%
%ADD19R,2.000000X2.000000*%
%ADD20R,3.200000X2.000000*%
%ADD21C,1.701800*%
%ADD22C,0.990600*%
%ADD23C,2.032000*%
%ADD24C,3.429000*%
%ADD25O,2.000000X1.600000*%
%ADD26C,0.800000*%
%ADD27C,0.100000*%
%ADD28O,1.600000X1.600000*%
%ADD29R,1.600000X1.600000*%
G04 APERTURE END LIST*
D10*
X77428571Y-100728571D02*
X77428571Y-102228571D01*
X77428571Y-100800000D02*
X77285714Y-100728571D01*
X77000000Y-100728571D01*
X76857142Y-100800000D01*
X76785714Y-100871428D01*
X76714285Y-101014285D01*
X76714285Y-101442857D01*
X76785714Y-101585714D01*
X76857142Y-101657142D01*
X77000000Y-101728571D01*
X77285714Y-101728571D01*
X77428571Y-101657142D01*
X76071428Y-101728571D02*
X76071428Y-100728571D01*
X76071428Y-100228571D02*
X76142857Y-100300000D01*
X76071428Y-100371428D01*
X76000000Y-100300000D01*
X76071428Y-100228571D01*
X76071428Y-100371428D01*
X75357142Y-100728571D02*
X75357142Y-101728571D01*
X75357142Y-100871428D02*
X75285714Y-100800000D01*
X75142857Y-100728571D01*
X74928571Y-100728571D01*
X74785714Y-100800000D01*
X74714285Y-100942857D01*
X74714285Y-101728571D01*
X73357142Y-101728571D02*
X73357142Y-100942857D01*
X73428571Y-100800000D01*
X73571428Y-100728571D01*
X73857142Y-100728571D01*
X74000000Y-100800000D01*
X73357142Y-101657142D02*
X73500000Y-101728571D01*
X73857142Y-101728571D01*
X74000000Y-101657142D01*
X74071428Y-101514285D01*
X74071428Y-101371428D01*
X74000000Y-101228571D01*
X73857142Y-101157142D01*
X73500000Y-101157142D01*
X73357142Y-101085714D01*
X72000000Y-101657142D02*
X72142857Y-101728571D01*
X72428571Y-101728571D01*
X72571428Y-101657142D01*
X72642857Y-101585714D01*
X72714285Y-101442857D01*
X72714285Y-101014285D01*
X72642857Y-100871428D01*
X72571428Y-100800000D01*
X72428571Y-100728571D01*
X72142857Y-100728571D01*
X72000000Y-100800000D01*
X71142857Y-101728571D02*
X71285714Y-101657142D01*
X71357142Y-101585714D01*
X71428571Y-101442857D01*
X71428571Y-101014285D01*
X71357142Y-100871428D01*
X71285714Y-100800000D01*
X71142857Y-100728571D01*
X70928571Y-100728571D01*
X70785714Y-100800000D01*
X70714285Y-100871428D01*
X70642857Y-101014285D01*
X70642857Y-101442857D01*
X70714285Y-101585714D01*
X70785714Y-101657142D01*
X70928571Y-101728571D01*
X71142857Y-101728571D01*
X69357142Y-101657142D02*
X69500000Y-101728571D01*
X69785714Y-101728571D01*
X69928571Y-101657142D01*
X70000000Y-101585714D01*
X70071428Y-101442857D01*
X70071428Y-101014285D01*
X70000000Y-100871428D01*
X69928571Y-100800000D01*
X69785714Y-100728571D01*
X69500000Y-100728571D01*
X69357142Y-100800000D01*
X68714285Y-101728571D02*
X68714285Y-100228571D01*
X68071428Y-101728571D02*
X68071428Y-100942857D01*
X68142857Y-100800000D01*
X68285714Y-100728571D01*
X68500000Y-100728571D01*
X68642857Y-100800000D01*
X68714285Y-100871428D01*
X67142857Y-101728571D02*
X67285714Y-101657142D01*
X67357142Y-101585714D01*
X67428571Y-101442857D01*
X67428571Y-101014285D01*
X67357142Y-100871428D01*
X67285714Y-100800000D01*
X67142857Y-100728571D01*
X66928571Y-100728571D01*
X66785714Y-100800000D01*
X66714285Y-100871428D01*
X66642857Y-101014285D01*
X66642857Y-101442857D01*
X66714285Y-101585714D01*
X66785714Y-101657142D01*
X66928571Y-101728571D01*
X67142857Y-101728571D01*
X65357142Y-101657142D02*
X65500000Y-101728571D01*
X65785714Y-101728571D01*
X65928571Y-101657142D01*
X66000000Y-101585714D01*
X66071428Y-101442857D01*
X66071428Y-101014285D01*
X66000000Y-100871428D01*
X65928571Y-100800000D01*
X65785714Y-100728571D01*
X65500000Y-100728571D01*
X65357142Y-100800000D01*
X63714285Y-100728571D02*
X63357142Y-101728571D01*
X63000000Y-100728571D01*
X62142857Y-100228571D02*
X62000000Y-100228571D01*
X61857142Y-100300000D01*
X61785714Y-100371428D01*
X61714285Y-100514285D01*
X61642857Y-100800000D01*
X61642857Y-101157142D01*
X61714285Y-101442857D01*
X61785714Y-101585714D01*
X61857142Y-101657142D01*
X62000000Y-101728571D01*
X62142857Y-101728571D01*
X62285714Y-101657142D01*
X62357142Y-101585714D01*
X62428571Y-101442857D01*
X62500000Y-101157142D01*
X62500000Y-100800000D01*
X62428571Y-100514285D01*
X62357142Y-100371428D01*
X62285714Y-100300000D01*
X62142857Y-100228571D01*
X61000000Y-101585714D02*
X60928571Y-101657142D01*
X61000000Y-101728571D01*
X61071428Y-101657142D01*
X61000000Y-101585714D01*
X61000000Y-101728571D01*
X59500000Y-101728571D02*
X60357142Y-101728571D01*
X59928571Y-101728571D02*
X59928571Y-100228571D01*
X60071428Y-100442857D01*
X60214285Y-100585714D01*
X60357142Y-100657142D01*
X70857142Y-103414285D02*
X70928571Y-103342857D01*
X71071428Y-103271428D01*
X71214285Y-103271428D01*
X71357142Y-103342857D01*
X71428571Y-103414285D01*
X71500000Y-103557142D01*
X71500000Y-103700000D01*
X71428571Y-103842857D01*
X71357142Y-103914285D01*
X71214285Y-103985714D01*
X71071428Y-103985714D01*
X70928571Y-103914285D01*
X70857142Y-103842857D01*
X70857142Y-103271428D02*
X70857142Y-103842857D01*
X70785714Y-103914285D01*
X70714285Y-103914285D01*
X70571428Y-103842857D01*
X70500000Y-103700000D01*
X70500000Y-103342857D01*
X70642857Y-103128571D01*
X70857142Y-102985714D01*
X71142857Y-102914285D01*
X71428571Y-102985714D01*
X71642857Y-103128571D01*
X71785714Y-103342857D01*
X71857142Y-103628571D01*
X71785714Y-103914285D01*
X71642857Y-104128571D01*
X71428571Y-104271428D01*
X71142857Y-104342857D01*
X70857142Y-104271428D01*
X70642857Y-104128571D01*
X69857142Y-104128571D02*
X69857142Y-102628571D01*
X69500000Y-102628571D01*
X69285714Y-102700000D01*
X69142857Y-102842857D01*
X69071428Y-102985714D01*
X69000000Y-103271428D01*
X69000000Y-103485714D01*
X69071428Y-103771428D01*
X69142857Y-103914285D01*
X69285714Y-104057142D01*
X69500000Y-104128571D01*
X69857142Y-104128571D01*
X67642857Y-104128571D02*
X68357142Y-104128571D01*
X68357142Y-102628571D01*
X67142857Y-104128571D02*
X67142857Y-102628571D01*
X66285714Y-104128571D02*
X66928571Y-103271428D01*
X66285714Y-102628571D02*
X67142857Y-103485714D01*
X65214285Y-102628571D02*
X65214285Y-103700000D01*
X65285714Y-103914285D01*
X65428571Y-104057142D01*
X65642857Y-104128571D01*
X65785714Y-104128571D01*
D11*
G36*
X86360122Y-94037776D02*
G01*
X86254388Y-94038355D01*
X86177868Y-94039922D01*
X86125628Y-94042972D01*
X86092737Y-94047996D01*
X86074263Y-94055489D01*
X86065273Y-94065944D01*
X86060837Y-94079853D01*
X86060406Y-94081654D01*
X86053667Y-94114145D01*
X86041192Y-94178252D01*
X86024281Y-94267151D01*
X86004229Y-94374019D01*
X85982336Y-94492033D01*
X85981571Y-94496178D01*
X85959641Y-94611831D01*
X85939123Y-94714014D01*
X85921341Y-94796598D01*
X85907619Y-94853456D01*
X85899282Y-94878458D01*
X85898884Y-94878901D01*
X85874323Y-94891110D01*
X85823685Y-94911456D01*
X85757905Y-94935545D01*
X85757539Y-94935674D01*
X85674683Y-94966818D01*
X85577000Y-95006491D01*
X85484923Y-95046381D01*
X85480566Y-95048353D01*
X85330593Y-95116420D01*
X84998502Y-94889639D01*
X84896626Y-94820504D01*
X84804343Y-94758697D01*
X84726997Y-94707733D01*
X84669936Y-94671127D01*
X84638505Y-94652394D01*
X84635521Y-94651004D01*
X84612679Y-94657190D01*
X84570018Y-94687035D01*
X84505872Y-94741947D01*
X84418579Y-94823334D01*
X84329465Y-94909922D01*
X84243559Y-94995247D01*
X84166673Y-95073108D01*
X84103436Y-95138697D01*
X84058477Y-95187205D01*
X84036424Y-95213825D01*
X84035604Y-95215195D01*
X84033166Y-95233463D01*
X84042350Y-95263295D01*
X84065426Y-95308721D01*
X84104663Y-95373770D01*
X84162330Y-95462470D01*
X84239205Y-95576657D01*
X84307430Y-95677162D01*
X84368418Y-95767303D01*
X84418644Y-95841849D01*
X84454584Y-95895565D01*
X84472713Y-95923218D01*
X84473854Y-95925095D01*
X84471641Y-95951590D01*
X84454862Y-96003086D01*
X84426858Y-96069851D01*
X84416878Y-96091172D01*
X84373328Y-96186159D01*
X84326866Y-96293937D01*
X84289123Y-96387192D01*
X84261927Y-96456406D01*
X84240325Y-96509006D01*
X84227842Y-96536497D01*
X84226291Y-96538616D01*
X84203332Y-96542124D01*
X84149214Y-96551738D01*
X84071132Y-96566089D01*
X83976281Y-96583807D01*
X83871857Y-96603525D01*
X83765056Y-96623874D01*
X83663074Y-96643486D01*
X83573106Y-96660991D01*
X83502347Y-96675022D01*
X83457994Y-96684209D01*
X83447115Y-96686807D01*
X83435878Y-96693218D01*
X83427395Y-96707697D01*
X83421286Y-96735133D01*
X83417168Y-96780411D01*
X83414659Y-96848420D01*
X83413379Y-96944047D01*
X83412946Y-97072180D01*
X83412923Y-97124701D01*
X83412923Y-97551845D01*
X83515500Y-97572091D01*
X83572569Y-97583070D01*
X83657731Y-97599095D01*
X83760628Y-97618233D01*
X83870904Y-97638551D01*
X83901385Y-97644132D01*
X84003145Y-97663917D01*
X84091795Y-97683373D01*
X84159892Y-97700697D01*
X84199996Y-97714088D01*
X84206677Y-97718079D01*
X84223081Y-97746342D01*
X84246601Y-97801109D01*
X84272684Y-97871588D01*
X84277858Y-97886769D01*
X84312044Y-97980896D01*
X84354477Y-98087101D01*
X84396003Y-98182473D01*
X84396208Y-98182916D01*
X84465360Y-98332525D01*
X84010488Y-99001617D01*
X84302500Y-99294116D01*
X84390820Y-99381170D01*
X84471375Y-99457909D01*
X84539640Y-99520237D01*
X84591092Y-99564056D01*
X84621206Y-99585270D01*
X84625526Y-99586616D01*
X84650889Y-99576016D01*
X84702642Y-99546547D01*
X84775132Y-99501705D01*
X84862706Y-99444984D01*
X84957388Y-99381462D01*
X85053484Y-99316668D01*
X85139163Y-99260287D01*
X85208984Y-99215788D01*
X85257506Y-99186639D01*
X85279218Y-99176308D01*
X85305707Y-99185050D01*
X85355938Y-99208087D01*
X85419549Y-99240631D01*
X85426292Y-99244249D01*
X85511954Y-99287210D01*
X85570694Y-99308279D01*
X85607228Y-99308503D01*
X85626269Y-99288928D01*
X85626380Y-99288654D01*
X85635898Y-99265472D01*
X85658597Y-99210441D01*
X85692718Y-99127822D01*
X85736500Y-99021872D01*
X85788184Y-98896852D01*
X85846008Y-98757020D01*
X85902009Y-98621637D01*
X85963553Y-98472234D01*
X86020061Y-98333832D01*
X86069839Y-98210673D01*
X86111194Y-98107002D01*
X86142432Y-98027059D01*
X86161859Y-97975088D01*
X86167846Y-97955692D01*
X86152832Y-97933443D01*
X86113561Y-97897982D01*
X86061193Y-97858887D01*
X85912059Y-97735245D01*
X85795489Y-97593522D01*
X85712882Y-97436704D01*
X85665634Y-97267775D01*
X85655143Y-97089722D01*
X85662769Y-97007539D01*
X85704318Y-96837031D01*
X85775877Y-96686459D01*
X85873005Y-96557309D01*
X85991266Y-96451064D01*
X86126220Y-96369210D01*
X86273429Y-96313232D01*
X86428456Y-96284615D01*
X86586861Y-96284844D01*
X86744206Y-96315405D01*
X86896054Y-96377782D01*
X87037965Y-96473460D01*
X87097197Y-96527572D01*
X87210797Y-96666520D01*
X87289894Y-96818361D01*
X87335014Y-96978667D01*
X87346684Y-97143012D01*
X87325431Y-97306971D01*
X87271780Y-97466118D01*
X87186260Y-97616025D01*
X87069395Y-97752267D01*
X86938807Y-97858887D01*
X86884412Y-97899642D01*
X86845986Y-97934718D01*
X86832154Y-97955726D01*
X86839397Y-97978635D01*
X86859995Y-98033365D01*
X86892254Y-98115672D01*
X86934479Y-98221315D01*
X86984977Y-98346050D01*
X87042052Y-98485636D01*
X87098146Y-98621670D01*
X87160033Y-98771201D01*
X87217356Y-98909767D01*
X87268356Y-99033107D01*
X87311273Y-99136964D01*
X87344347Y-99217080D01*
X87365819Y-99269195D01*
X87373775Y-99288654D01*
X87392571Y-99308423D01*
X87428926Y-99308365D01*
X87487521Y-99287441D01*
X87573032Y-99244613D01*
X87573708Y-99244249D01*
X87638093Y-99211012D01*
X87690139Y-99186802D01*
X87719488Y-99176404D01*
X87720783Y-99176308D01*
X87742876Y-99186855D01*
X87791652Y-99216184D01*
X87861669Y-99260827D01*
X87947486Y-99317314D01*
X88042612Y-99381462D01*
X88139460Y-99446411D01*
X88226747Y-99502896D01*
X88298819Y-99547421D01*
X88350023Y-99576490D01*
X88374474Y-99586616D01*
X88396990Y-99573307D01*
X88442258Y-99536112D01*
X88505756Y-99479128D01*
X88582961Y-99406449D01*
X88669349Y-99322171D01*
X88697601Y-99294016D01*
X88989713Y-99001416D01*
X88767369Y-98675104D01*
X88699798Y-98574897D01*
X88640493Y-98484963D01*
X88592783Y-98410510D01*
X88559993Y-98356751D01*
X88545452Y-98328894D01*
X88545026Y-98326912D01*
X88552692Y-98300655D01*
X88573311Y-98247837D01*
X88603315Y-98177310D01*
X88624375Y-98130093D01*
X88663752Y-98039694D01*
X88700835Y-97948366D01*
X88729585Y-97871200D01*
X88737395Y-97847692D01*
X88759583Y-97784916D01*
X88781273Y-97736411D01*
X88793187Y-97718079D01*
X88819477Y-97706859D01*
X88876858Y-97690954D01*
X88957882Y-97672167D01*
X89055105Y-97652299D01*
X89098615Y-97644132D01*
X89209104Y-97623829D01*
X89315084Y-97604170D01*
X89406199Y-97587088D01*
X89472092Y-97574518D01*
X89484500Y-97572091D01*
X89587077Y-97551845D01*
X89587077Y-97124701D01*
X89586847Y-96984246D01*
X89585901Y-96877979D01*
X89583859Y-96801013D01*
X89580338Y-96748460D01*
X89574957Y-96715433D01*
X89567334Y-96697045D01*
X89557088Y-96688408D01*
X89552885Y-96686807D01*
X89527530Y-96681127D01*
X89471516Y-96669795D01*
X89392036Y-96654179D01*
X89296288Y-96635647D01*
X89191467Y-96615569D01*
X89084768Y-96595312D01*
X88983387Y-96576246D01*
X88894521Y-96559739D01*
X88825363Y-96547159D01*
X88783111Y-96539875D01*
X88773710Y-96538616D01*
X88765193Y-96521763D01*
X88746340Y-96476870D01*
X88720676Y-96412430D01*
X88710877Y-96387192D01*
X88671352Y-96289686D01*
X88624808Y-96181959D01*
X88583123Y-96091172D01*
X88552450Y-96021753D01*
X88532044Y-95964710D01*
X88525232Y-95929777D01*
X88526318Y-95925095D01*
X88540715Y-95902991D01*
X88573588Y-95853831D01*
X88621410Y-95782848D01*
X88680652Y-95695278D01*
X88747785Y-95596357D01*
X88761059Y-95576830D01*
X88838954Y-95461140D01*
X88896213Y-95373044D01*
X88935119Y-95308486D01*
X88957956Y-95263411D01*
X88967006Y-95233763D01*
X88964552Y-95215485D01*
X88964489Y-95215369D01*
X88945173Y-95191361D01*
X88902449Y-95144947D01*
X88840949Y-95080937D01*
X88765302Y-95004145D01*
X88680139Y-94919382D01*
X88670535Y-94909922D01*
X88563210Y-94805989D01*
X88480385Y-94729675D01*
X88420395Y-94679571D01*
X88381577Y-94654270D01*
X88364480Y-94651004D01*
X88339527Y-94665250D01*
X88287745Y-94698156D01*
X88214480Y-94746208D01*
X88125080Y-94805890D01*
X88024889Y-94873688D01*
X88001499Y-94889639D01*
X87669407Y-95116420D01*
X87519435Y-95048353D01*
X87428230Y-95008685D01*
X87330331Y-94968791D01*
X87246169Y-94936983D01*
X87242462Y-94935674D01*
X87176631Y-94911576D01*
X87125884Y-94891200D01*
X87101158Y-94878936D01*
X87101116Y-94878901D01*
X87093271Y-94856734D01*
X87079934Y-94802217D01*
X87062430Y-94721480D01*
X87042083Y-94620650D01*
X87020218Y-94505856D01*
X87018429Y-94496178D01*
X86996496Y-94377904D01*
X86976360Y-94270542D01*
X86959320Y-94180917D01*
X86946672Y-94115851D01*
X86939716Y-94082168D01*
X86939594Y-94081654D01*
X86935361Y-94067325D01*
X86927129Y-94056507D01*
X86909967Y-94048706D01*
X86878942Y-94043429D01*
X86829122Y-94040182D01*
X86755576Y-94038472D01*
X86653371Y-94037807D01*
X86517575Y-94037693D01*
X86500000Y-94037692D01*
X86360122Y-94037776D01*
G37*
X86360122Y-94037776D02*
X86254388Y-94038355D01*
X86177868Y-94039922D01*
X86125628Y-94042972D01*
X86092737Y-94047996D01*
X86074263Y-94055489D01*
X86065273Y-94065944D01*
X86060837Y-94079853D01*
X86060406Y-94081654D01*
X86053667Y-94114145D01*
X86041192Y-94178252D01*
X86024281Y-94267151D01*
X86004229Y-94374019D01*
X85982336Y-94492033D01*
X85981571Y-94496178D01*
X85959641Y-94611831D01*
X85939123Y-94714014D01*
X85921341Y-94796598D01*
X85907619Y-94853456D01*
X85899282Y-94878458D01*
X85898884Y-94878901D01*
X85874323Y-94891110D01*
X85823685Y-94911456D01*
X85757905Y-94935545D01*
X85757539Y-94935674D01*
X85674683Y-94966818D01*
X85577000Y-95006491D01*
X85484923Y-95046381D01*
X85480566Y-95048353D01*
X85330593Y-95116420D01*
X84998502Y-94889639D01*
X84896626Y-94820504D01*
X84804343Y-94758697D01*
X84726997Y-94707733D01*
X84669936Y-94671127D01*
X84638505Y-94652394D01*
X84635521Y-94651004D01*
X84612679Y-94657190D01*
X84570018Y-94687035D01*
X84505872Y-94741947D01*
X84418579Y-94823334D01*
X84329465Y-94909922D01*
X84243559Y-94995247D01*
X84166673Y-95073108D01*
X84103436Y-95138697D01*
X84058477Y-95187205D01*
X84036424Y-95213825D01*
X84035604Y-95215195D01*
X84033166Y-95233463D01*
X84042350Y-95263295D01*
X84065426Y-95308721D01*
X84104663Y-95373770D01*
X84162330Y-95462470D01*
X84239205Y-95576657D01*
X84307430Y-95677162D01*
X84368418Y-95767303D01*
X84418644Y-95841849D01*
X84454584Y-95895565D01*
X84472713Y-95923218D01*
X84473854Y-95925095D01*
X84471641Y-95951590D01*
X84454862Y-96003086D01*
X84426858Y-96069851D01*
X84416878Y-96091172D01*
X84373328Y-96186159D01*
X84326866Y-96293937D01*
X84289123Y-96387192D01*
X84261927Y-96456406D01*
X84240325Y-96509006D01*
X84227842Y-96536497D01*
X84226291Y-96538616D01*
X84203332Y-96542124D01*
X84149214Y-96551738D01*
X84071132Y-96566089D01*
X83976281Y-96583807D01*
X83871857Y-96603525D01*
X83765056Y-96623874D01*
X83663074Y-96643486D01*
X83573106Y-96660991D01*
X83502347Y-96675022D01*
X83457994Y-96684209D01*
X83447115Y-96686807D01*
X83435878Y-96693218D01*
X83427395Y-96707697D01*
X83421286Y-96735133D01*
X83417168Y-96780411D01*
X83414659Y-96848420D01*
X83413379Y-96944047D01*
X83412946Y-97072180D01*
X83412923Y-97124701D01*
X83412923Y-97551845D01*
X83515500Y-97572091D01*
X83572569Y-97583070D01*
X83657731Y-97599095D01*
X83760628Y-97618233D01*
X83870904Y-97638551D01*
X83901385Y-97644132D01*
X84003145Y-97663917D01*
X84091795Y-97683373D01*
X84159892Y-97700697D01*
X84199996Y-97714088D01*
X84206677Y-97718079D01*
X84223081Y-97746342D01*
X84246601Y-97801109D01*
X84272684Y-97871588D01*
X84277858Y-97886769D01*
X84312044Y-97980896D01*
X84354477Y-98087101D01*
X84396003Y-98182473D01*
X84396208Y-98182916D01*
X84465360Y-98332525D01*
X84010488Y-99001617D01*
X84302500Y-99294116D01*
X84390820Y-99381170D01*
X84471375Y-99457909D01*
X84539640Y-99520237D01*
X84591092Y-99564056D01*
X84621206Y-99585270D01*
X84625526Y-99586616D01*
X84650889Y-99576016D01*
X84702642Y-99546547D01*
X84775132Y-99501705D01*
X84862706Y-99444984D01*
X84957388Y-99381462D01*
X85053484Y-99316668D01*
X85139163Y-99260287D01*
X85208984Y-99215788D01*
X85257506Y-99186639D01*
X85279218Y-99176308D01*
X85305707Y-99185050D01*
X85355938Y-99208087D01*
X85419549Y-99240631D01*
X85426292Y-99244249D01*
X85511954Y-99287210D01*
X85570694Y-99308279D01*
X85607228Y-99308503D01*
X85626269Y-99288928D01*
X85626380Y-99288654D01*
X85635898Y-99265472D01*
X85658597Y-99210441D01*
X85692718Y-99127822D01*
X85736500Y-99021872D01*
X85788184Y-98896852D01*
X85846008Y-98757020D01*
X85902009Y-98621637D01*
X85963553Y-98472234D01*
X86020061Y-98333832D01*
X86069839Y-98210673D01*
X86111194Y-98107002D01*
X86142432Y-98027059D01*
X86161859Y-97975088D01*
X86167846Y-97955692D01*
X86152832Y-97933443D01*
X86113561Y-97897982D01*
X86061193Y-97858887D01*
X85912059Y-97735245D01*
X85795489Y-97593522D01*
X85712882Y-97436704D01*
X85665634Y-97267775D01*
X85655143Y-97089722D01*
X85662769Y-97007539D01*
X85704318Y-96837031D01*
X85775877Y-96686459D01*
X85873005Y-96557309D01*
X85991266Y-96451064D01*
X86126220Y-96369210D01*
X86273429Y-96313232D01*
X86428456Y-96284615D01*
X86586861Y-96284844D01*
X86744206Y-96315405D01*
X86896054Y-96377782D01*
X87037965Y-96473460D01*
X87097197Y-96527572D01*
X87210797Y-96666520D01*
X87289894Y-96818361D01*
X87335014Y-96978667D01*
X87346684Y-97143012D01*
X87325431Y-97306971D01*
X87271780Y-97466118D01*
X87186260Y-97616025D01*
X87069395Y-97752267D01*
X86938807Y-97858887D01*
X86884412Y-97899642D01*
X86845986Y-97934718D01*
X86832154Y-97955726D01*
X86839397Y-97978635D01*
X86859995Y-98033365D01*
X86892254Y-98115672D01*
X86934479Y-98221315D01*
X86984977Y-98346050D01*
X87042052Y-98485636D01*
X87098146Y-98621670D01*
X87160033Y-98771201D01*
X87217356Y-98909767D01*
X87268356Y-99033107D01*
X87311273Y-99136964D01*
X87344347Y-99217080D01*
X87365819Y-99269195D01*
X87373775Y-99288654D01*
X87392571Y-99308423D01*
X87428926Y-99308365D01*
X87487521Y-99287441D01*
X87573032Y-99244613D01*
X87573708Y-99244249D01*
X87638093Y-99211012D01*
X87690139Y-99186802D01*
X87719488Y-99176404D01*
X87720783Y-99176308D01*
X87742876Y-99186855D01*
X87791652Y-99216184D01*
X87861669Y-99260827D01*
X87947486Y-99317314D01*
X88042612Y-99381462D01*
X88139460Y-99446411D01*
X88226747Y-99502896D01*
X88298819Y-99547421D01*
X88350023Y-99576490D01*
X88374474Y-99586616D01*
X88396990Y-99573307D01*
X88442258Y-99536112D01*
X88505756Y-99479128D01*
X88582961Y-99406449D01*
X88669349Y-99322171D01*
X88697601Y-99294016D01*
X88989713Y-99001416D01*
X88767369Y-98675104D01*
X88699798Y-98574897D01*
X88640493Y-98484963D01*
X88592783Y-98410510D01*
X88559993Y-98356751D01*
X88545452Y-98328894D01*
X88545026Y-98326912D01*
X88552692Y-98300655D01*
X88573311Y-98247837D01*
X88603315Y-98177310D01*
X88624375Y-98130093D01*
X88663752Y-98039694D01*
X88700835Y-97948366D01*
X88729585Y-97871200D01*
X88737395Y-97847692D01*
X88759583Y-97784916D01*
X88781273Y-97736411D01*
X88793187Y-97718079D01*
X88819477Y-97706859D01*
X88876858Y-97690954D01*
X88957882Y-97672167D01*
X89055105Y-97652299D01*
X89098615Y-97644132D01*
X89209104Y-97623829D01*
X89315084Y-97604170D01*
X89406199Y-97587088D01*
X89472092Y-97574518D01*
X89484500Y-97572091D01*
X89587077Y-97551845D01*
X89587077Y-97124701D01*
X89586847Y-96984246D01*
X89585901Y-96877979D01*
X89583859Y-96801013D01*
X89580338Y-96748460D01*
X89574957Y-96715433D01*
X89567334Y-96697045D01*
X89557088Y-96688408D01*
X89552885Y-96686807D01*
X89527530Y-96681127D01*
X89471516Y-96669795D01*
X89392036Y-96654179D01*
X89296288Y-96635647D01*
X89191467Y-96615569D01*
X89084768Y-96595312D01*
X88983387Y-96576246D01*
X88894521Y-96559739D01*
X88825363Y-96547159D01*
X88783111Y-96539875D01*
X88773710Y-96538616D01*
X88765193Y-96521763D01*
X88746340Y-96476870D01*
X88720676Y-96412430D01*
X88710877Y-96387192D01*
X88671352Y-96289686D01*
X88624808Y-96181959D01*
X88583123Y-96091172D01*
X88552450Y-96021753D01*
X88532044Y-95964710D01*
X88525232Y-95929777D01*
X88526318Y-95925095D01*
X88540715Y-95902991D01*
X88573588Y-95853831D01*
X88621410Y-95782848D01*
X88680652Y-95695278D01*
X88747785Y-95596357D01*
X88761059Y-95576830D01*
X88838954Y-95461140D01*
X88896213Y-95373044D01*
X88935119Y-95308486D01*
X88957956Y-95263411D01*
X88967006Y-95233763D01*
X88964552Y-95215485D01*
X88964489Y-95215369D01*
X88945173Y-95191361D01*
X88902449Y-95144947D01*
X88840949Y-95080937D01*
X88765302Y-95004145D01*
X88680139Y-94919382D01*
X88670535Y-94909922D01*
X88563210Y-94805989D01*
X88480385Y-94729675D01*
X88420395Y-94679571D01*
X88381577Y-94654270D01*
X88364480Y-94651004D01*
X88339527Y-94665250D01*
X88287745Y-94698156D01*
X88214480Y-94746208D01*
X88125080Y-94805890D01*
X88024889Y-94873688D01*
X88001499Y-94889639D01*
X87669407Y-95116420D01*
X87519435Y-95048353D01*
X87428230Y-95008685D01*
X87330331Y-94968791D01*
X87246169Y-94936983D01*
X87242462Y-94935674D01*
X87176631Y-94911576D01*
X87125884Y-94891200D01*
X87101158Y-94878936D01*
X87101116Y-94878901D01*
X87093271Y-94856734D01*
X87079934Y-94802217D01*
X87062430Y-94721480D01*
X87042083Y-94620650D01*
X87020218Y-94505856D01*
X87018429Y-94496178D01*
X86996496Y-94377904D01*
X86976360Y-94270542D01*
X86959320Y-94180917D01*
X86946672Y-94115851D01*
X86939716Y-94082168D01*
X86939594Y-94081654D01*
X86935361Y-94067325D01*
X86927129Y-94056507D01*
X86909967Y-94048706D01*
X86878942Y-94043429D01*
X86829122Y-94040182D01*
X86755576Y-94038472D01*
X86653371Y-94037807D01*
X86517575Y-94037693D01*
X86500000Y-94037692D01*
X86360122Y-94037776D01*
G36*
X82254776Y-100397838D02*
G01*
X82177472Y-100448361D01*
X82140186Y-100493590D01*
X82110647Y-100575663D01*
X82108301Y-100640607D01*
X82113615Y-100727445D01*
X82313885Y-100815103D01*
X82411261Y-100859887D01*
X82474887Y-100895913D01*
X82507971Y-100927117D01*
X82513720Y-100957436D01*
X82495342Y-100990805D01*
X82475077Y-101012923D01*
X82416111Y-101048393D01*
X82351976Y-101050879D01*
X82293074Y-101023235D01*
X82249803Y-100968320D01*
X82242064Y-100948928D01*
X82204994Y-100888364D01*
X82162346Y-100862552D01*
X82103846Y-100840471D01*
X82103846Y-100924184D01*
X82109018Y-100981150D01*
X82129277Y-101029189D01*
X82171738Y-101084346D01*
X82178049Y-101091514D01*
X82225280Y-101140585D01*
X82265879Y-101166920D01*
X82316672Y-101179035D01*
X82358780Y-101183003D01*
X82434098Y-101183991D01*
X82487714Y-101171466D01*
X82521162Y-101152869D01*
X82573732Y-101111975D01*
X82610121Y-101067748D01*
X82633150Y-101012126D01*
X82645641Y-100937047D01*
X82650413Y-100834449D01*
X82650794Y-100782376D01*
X82649499Y-100719948D01*
X82531529Y-100719948D01*
X82530161Y-100753438D01*
X82526751Y-100758923D01*
X82504247Y-100751472D01*
X82455818Y-100731753D01*
X82391092Y-100703718D01*
X82377557Y-100697692D01*
X82295756Y-100656096D01*
X82250688Y-100619538D01*
X82240783Y-100585296D01*
X82264474Y-100550648D01*
X82284040Y-100535339D01*
X82354640Y-100504721D01*
X82420720Y-100509780D01*
X82476041Y-100547151D01*
X82514364Y-100613473D01*
X82526651Y-100666116D01*
X82531529Y-100719948D01*
X82649499Y-100719948D01*
X82648270Y-100660720D01*
X82638968Y-100570710D01*
X82620540Y-100505167D01*
X82590640Y-100456912D01*
X82546920Y-100418767D01*
X82527859Y-100406440D01*
X82441274Y-100374336D01*
X82346478Y-100372316D01*
X82254776Y-100397838D01*
G37*
X82254776Y-100397838D02*
X82177472Y-100448361D01*
X82140186Y-100493590D01*
X82110647Y-100575663D01*
X82108301Y-100640607D01*
X82113615Y-100727445D01*
X82313885Y-100815103D01*
X82411261Y-100859887D01*
X82474887Y-100895913D01*
X82507971Y-100927117D01*
X82513720Y-100957436D01*
X82495342Y-100990805D01*
X82475077Y-101012923D01*
X82416111Y-101048393D01*
X82351976Y-101050879D01*
X82293074Y-101023235D01*
X82249803Y-100968320D01*
X82242064Y-100948928D01*
X82204994Y-100888364D01*
X82162346Y-100862552D01*
X82103846Y-100840471D01*
X82103846Y-100924184D01*
X82109018Y-100981150D01*
X82129277Y-101029189D01*
X82171738Y-101084346D01*
X82178049Y-101091514D01*
X82225280Y-101140585D01*
X82265879Y-101166920D01*
X82316672Y-101179035D01*
X82358780Y-101183003D01*
X82434098Y-101183991D01*
X82487714Y-101171466D01*
X82521162Y-101152869D01*
X82573732Y-101111975D01*
X82610121Y-101067748D01*
X82633150Y-101012126D01*
X82645641Y-100937047D01*
X82650413Y-100834449D01*
X82650794Y-100782376D01*
X82649499Y-100719948D01*
X82531529Y-100719948D01*
X82530161Y-100753438D01*
X82526751Y-100758923D01*
X82504247Y-100751472D01*
X82455818Y-100731753D01*
X82391092Y-100703718D01*
X82377557Y-100697692D01*
X82295756Y-100656096D01*
X82250688Y-100619538D01*
X82240783Y-100585296D01*
X82264474Y-100550648D01*
X82284040Y-100535339D01*
X82354640Y-100504721D01*
X82420720Y-100509780D01*
X82476041Y-100547151D01*
X82514364Y-100613473D01*
X82526651Y-100666116D01*
X82531529Y-100719948D01*
X82649499Y-100719948D01*
X82648270Y-100660720D01*
X82638968Y-100570710D01*
X82620540Y-100505167D01*
X82590640Y-100456912D01*
X82546920Y-100418767D01*
X82527859Y-100406440D01*
X82441274Y-100374336D01*
X82346478Y-100372316D01*
X82254776Y-100397838D01*
G36*
X82929193Y-100386782D02*
G01*
X82905839Y-100396988D01*
X82850098Y-100441134D01*
X82802431Y-100504967D01*
X82772952Y-100573087D01*
X82768154Y-100606670D01*
X82784240Y-100653556D01*
X82819525Y-100678365D01*
X82857356Y-100693387D01*
X82874679Y-100696155D01*
X82883114Y-100676066D01*
X82899770Y-100632351D01*
X82907077Y-100612598D01*
X82948052Y-100544271D01*
X83007378Y-100510191D01*
X83083448Y-100511239D01*
X83089082Y-100512581D01*
X83129695Y-100531836D01*
X83159552Y-100569375D01*
X83179945Y-100629809D01*
X83192164Y-100717751D01*
X83197500Y-100837813D01*
X83198000Y-100901698D01*
X83198248Y-101002403D01*
X83199874Y-101071054D01*
X83204199Y-101114673D01*
X83212546Y-101140282D01*
X83226235Y-101154903D01*
X83246589Y-101165558D01*
X83247766Y-101166095D01*
X83286962Y-101182667D01*
X83306381Y-101188769D01*
X83309365Y-101170319D01*
X83311919Y-101119323D01*
X83313860Y-101042308D01*
X83315003Y-100945805D01*
X83315231Y-100875184D01*
X83314068Y-100738525D01*
X83309521Y-100634851D01*
X83300001Y-100558108D01*
X83283919Y-100502246D01*
X83259687Y-100461212D01*
X83225714Y-100428954D01*
X83192167Y-100406440D01*
X83111501Y-100376476D01*
X83017619Y-100369718D01*
X82929193Y-100386782D01*
G37*
X82929193Y-100386782D02*
X82905839Y-100396988D01*
X82850098Y-100441134D01*
X82802431Y-100504967D01*
X82772952Y-100573087D01*
X82768154Y-100606670D01*
X82784240Y-100653556D01*
X82819525Y-100678365D01*
X82857356Y-100693387D01*
X82874679Y-100696155D01*
X82883114Y-100676066D01*
X82899770Y-100632351D01*
X82907077Y-100612598D01*
X82948052Y-100544271D01*
X83007378Y-100510191D01*
X83083448Y-100511239D01*
X83089082Y-100512581D01*
X83129695Y-100531836D01*
X83159552Y-100569375D01*
X83179945Y-100629809D01*
X83192164Y-100717751D01*
X83197500Y-100837813D01*
X83198000Y-100901698D01*
X83198248Y-101002403D01*
X83199874Y-101071054D01*
X83204199Y-101114673D01*
X83212546Y-101140282D01*
X83226235Y-101154903D01*
X83246589Y-101165558D01*
X83247766Y-101166095D01*
X83286962Y-101182667D01*
X83306381Y-101188769D01*
X83309365Y-101170319D01*
X83311919Y-101119323D01*
X83313860Y-101042308D01*
X83315003Y-100945805D01*
X83315231Y-100875184D01*
X83314068Y-100738525D01*
X83309521Y-100634851D01*
X83300001Y-100558108D01*
X83283919Y-100502246D01*
X83259687Y-100461212D01*
X83225714Y-100428954D01*
X83192167Y-100406440D01*
X83111501Y-100376476D01*
X83017619Y-100369718D01*
X82929193Y-100386782D01*
G36*
X83612667Y-100383528D02*
G01*
X83556410Y-100409117D01*
X83512253Y-100440124D01*
X83479899Y-100474795D01*
X83457562Y-100519520D01*
X83443454Y-100580692D01*
X83435789Y-100664701D01*
X83432780Y-100777940D01*
X83432462Y-100852509D01*
X83432462Y-101143420D01*
X83482227Y-101166095D01*
X83521424Y-101182667D01*
X83540843Y-101188769D01*
X83544558Y-101170610D01*
X83547505Y-101121648D01*
X83549309Y-101050153D01*
X83549692Y-100993385D01*
X83551339Y-100911371D01*
X83555778Y-100846309D01*
X83562260Y-100806467D01*
X83567410Y-100798000D01*
X83602023Y-100806646D01*
X83656360Y-100828823D01*
X83719278Y-100858886D01*
X83779632Y-100891192D01*
X83826279Y-100920098D01*
X83848074Y-100939961D01*
X83848161Y-100940175D01*
X83846286Y-100976935D01*
X83829475Y-101012026D01*
X83799961Y-101040528D01*
X83756884Y-101050061D01*
X83720068Y-101048950D01*
X83667926Y-101048133D01*
X83640556Y-101060349D01*
X83624118Y-101092624D01*
X83622045Y-101098710D01*
X83614919Y-101144739D01*
X83633976Y-101172687D01*
X83683647Y-101186007D01*
X83737303Y-101188470D01*
X83833858Y-101170210D01*
X83883841Y-101144131D01*
X83945571Y-101082868D01*
X83978310Y-101007670D01*
X83981247Y-100928211D01*
X83953576Y-100854167D01*
X83911953Y-100807769D01*
X83870396Y-100781793D01*
X83805078Y-100748907D01*
X83728962Y-100715557D01*
X83716274Y-100710461D01*
X83632667Y-100673565D01*
X83584470Y-100641046D01*
X83568970Y-100608718D01*
X83583450Y-100572394D01*
X83608308Y-100544000D01*
X83667061Y-100509039D01*
X83731707Y-100506417D01*
X83790992Y-100533358D01*
X83833661Y-100587088D01*
X83839261Y-100600950D01*
X83871867Y-100651936D01*
X83919470Y-100689787D01*
X83979539Y-100720850D01*
X83979539Y-100632768D01*
X83976003Y-100578951D01*
X83960844Y-100536534D01*
X83927232Y-100491279D01*
X83894965Y-100456420D01*
X83844791Y-100407062D01*
X83805807Y-100380547D01*
X83763936Y-100369911D01*
X83716540Y-100368154D01*
X83612667Y-100383528D01*
G37*
X83612667Y-100383528D02*
X83556410Y-100409117D01*
X83512253Y-100440124D01*
X83479899Y-100474795D01*
X83457562Y-100519520D01*
X83443454Y-100580692D01*
X83435789Y-100664701D01*
X83432780Y-100777940D01*
X83432462Y-100852509D01*
X83432462Y-101143420D01*
X83482227Y-101166095D01*
X83521424Y-101182667D01*
X83540843Y-101188769D01*
X83544558Y-101170610D01*
X83547505Y-101121648D01*
X83549309Y-101050153D01*
X83549692Y-100993385D01*
X83551339Y-100911371D01*
X83555778Y-100846309D01*
X83562260Y-100806467D01*
X83567410Y-100798000D01*
X83602023Y-100806646D01*
X83656360Y-100828823D01*
X83719278Y-100858886D01*
X83779632Y-100891192D01*
X83826279Y-100920098D01*
X83848074Y-100939961D01*
X83848161Y-100940175D01*
X83846286Y-100976935D01*
X83829475Y-101012026D01*
X83799961Y-101040528D01*
X83756884Y-101050061D01*
X83720068Y-101048950D01*
X83667926Y-101048133D01*
X83640556Y-101060349D01*
X83624118Y-101092624D01*
X83622045Y-101098710D01*
X83614919Y-101144739D01*
X83633976Y-101172687D01*
X83683647Y-101186007D01*
X83737303Y-101188470D01*
X83833858Y-101170210D01*
X83883841Y-101144131D01*
X83945571Y-101082868D01*
X83978310Y-101007670D01*
X83981247Y-100928211D01*
X83953576Y-100854167D01*
X83911953Y-100807769D01*
X83870396Y-100781793D01*
X83805078Y-100748907D01*
X83728962Y-100715557D01*
X83716274Y-100710461D01*
X83632667Y-100673565D01*
X83584470Y-100641046D01*
X83568970Y-100608718D01*
X83583450Y-100572394D01*
X83608308Y-100544000D01*
X83667061Y-100509039D01*
X83731707Y-100506417D01*
X83790992Y-100533358D01*
X83833661Y-100587088D01*
X83839261Y-100600950D01*
X83871867Y-100651936D01*
X83919470Y-100689787D01*
X83979539Y-100720850D01*
X83979539Y-100632768D01*
X83976003Y-100578951D01*
X83960844Y-100536534D01*
X83927232Y-100491279D01*
X83894965Y-100456420D01*
X83844791Y-100407062D01*
X83805807Y-100380547D01*
X83763936Y-100369911D01*
X83716540Y-100368154D01*
X83612667Y-100383528D01*
G36*
X84104071Y-100386662D02*
G01*
X84101089Y-100438068D01*
X84098753Y-100516192D01*
X84097251Y-100614857D01*
X84096769Y-100718343D01*
X84096769Y-101068533D01*
X84158599Y-101130363D01*
X84201207Y-101168462D01*
X84238610Y-101183895D01*
X84289730Y-101182918D01*
X84310022Y-101180433D01*
X84373446Y-101173200D01*
X84425905Y-101169055D01*
X84438692Y-101168672D01*
X84481801Y-101171176D01*
X84543456Y-101177462D01*
X84567362Y-101180433D01*
X84626078Y-101185028D01*
X84665536Y-101175046D01*
X84704662Y-101144228D01*
X84718785Y-101130363D01*
X84780615Y-101068533D01*
X84780615Y-100413503D01*
X84730850Y-100390829D01*
X84687998Y-100374034D01*
X84662927Y-100368154D01*
X84656499Y-100386736D01*
X84650491Y-100438655D01*
X84645303Y-100518172D01*
X84641336Y-100619546D01*
X84639423Y-100705192D01*
X84634077Y-101042231D01*
X84587440Y-101048825D01*
X84545024Y-101044214D01*
X84524240Y-101029287D01*
X84518430Y-101001377D01*
X84513470Y-100941925D01*
X84509754Y-100858466D01*
X84507676Y-100758532D01*
X84507376Y-100707104D01*
X84507077Y-100411054D01*
X84445546Y-100389604D01*
X84401996Y-100375020D01*
X84378306Y-100368219D01*
X84377623Y-100368154D01*
X84375246Y-100386642D01*
X84372634Y-100437906D01*
X84370005Y-100515649D01*
X84367579Y-100613574D01*
X84365885Y-100705192D01*
X84360539Y-101042231D01*
X84243308Y-101042231D01*
X84237928Y-100734746D01*
X84232549Y-100427261D01*
X84175399Y-100397707D01*
X84133203Y-100377413D01*
X84108230Y-100368204D01*
X84107509Y-100368154D01*
X84104071Y-100386662D01*
G37*
X84104071Y-100386662D02*
X84101089Y-100438068D01*
X84098753Y-100516192D01*
X84097251Y-100614857D01*
X84096769Y-100718343D01*
X84096769Y-101068533D01*
X84158599Y-101130363D01*
X84201207Y-101168462D01*
X84238610Y-101183895D01*
X84289730Y-101182918D01*
X84310022Y-101180433D01*
X84373446Y-101173200D01*
X84425905Y-101169055D01*
X84438692Y-101168672D01*
X84481801Y-101171176D01*
X84543456Y-101177462D01*
X84567362Y-101180433D01*
X84626078Y-101185028D01*
X84665536Y-101175046D01*
X84704662Y-101144228D01*
X84718785Y-101130363D01*
X84780615Y-101068533D01*
X84780615Y-100413503D01*
X84730850Y-100390829D01*
X84687998Y-100374034D01*
X84662927Y-100368154D01*
X84656499Y-100386736D01*
X84650491Y-100438655D01*
X84645303Y-100518172D01*
X84641336Y-100619546D01*
X84639423Y-100705192D01*
X84634077Y-101042231D01*
X84587440Y-101048825D01*
X84545024Y-101044214D01*
X84524240Y-101029287D01*
X84518430Y-101001377D01*
X84513470Y-100941925D01*
X84509754Y-100858466D01*
X84507676Y-100758532D01*
X84507376Y-100707104D01*
X84507077Y-100411054D01*
X84445546Y-100389604D01*
X84401996Y-100375020D01*
X84378306Y-100368219D01*
X84377623Y-100368154D01*
X84375246Y-100386642D01*
X84372634Y-100437906D01*
X84370005Y-100515649D01*
X84367579Y-100613574D01*
X84365885Y-100705192D01*
X84360539Y-101042231D01*
X84243308Y-101042231D01*
X84237928Y-100734746D01*
X84232549Y-100427261D01*
X84175399Y-100397707D01*
X84133203Y-100377413D01*
X84108230Y-100368204D01*
X84107509Y-100368154D01*
X84104071Y-100386662D01*
G36*
X84897919Y-100530289D02*
G01*
X84898167Y-100676320D01*
X84899128Y-100788655D01*
X84901206Y-100872678D01*
X84904807Y-100933769D01*
X84910335Y-100977309D01*
X84918196Y-101008679D01*
X84928793Y-101033262D01*
X84936818Y-101047294D01*
X85003272Y-101123388D01*
X85087530Y-101171084D01*
X85180751Y-101188199D01*
X85274100Y-101172546D01*
X85329688Y-101144418D01*
X85388043Y-101095760D01*
X85427814Y-101036333D01*
X85451810Y-100958507D01*
X85462839Y-100854652D01*
X85464401Y-100778462D01*
X85464191Y-100772986D01*
X85327692Y-100772986D01*
X85326859Y-100860355D01*
X85323039Y-100918192D01*
X85314254Y-100956029D01*
X85298526Y-100983398D01*
X85279734Y-101004042D01*
X85216625Y-101043890D01*
X85148863Y-101047295D01*
X85084821Y-101014025D01*
X85079836Y-101009517D01*
X85058561Y-100986067D01*
X85045221Y-100958166D01*
X85037999Y-100916641D01*
X85035077Y-100852316D01*
X85034615Y-100781200D01*
X85035617Y-100691858D01*
X85039762Y-100632258D01*
X85048764Y-100593089D01*
X85064333Y-100565040D01*
X85077098Y-100550144D01*
X85136400Y-100512575D01*
X85204699Y-100508057D01*
X85269890Y-100536753D01*
X85282472Y-100547406D01*
X85303889Y-100571063D01*
X85317256Y-100599251D01*
X85324434Y-100641245D01*
X85327281Y-100706319D01*
X85327692Y-100772986D01*
X85464191Y-100772986D01*
X85459678Y-100655765D01*
X85443638Y-100563577D01*
X85413472Y-100494269D01*
X85366371Y-100440211D01*
X85329688Y-100412505D01*
X85263010Y-100382572D01*
X85185728Y-100368678D01*
X85113890Y-100372397D01*
X85073692Y-100387400D01*
X85057918Y-100391670D01*
X85047450Y-100375750D01*
X85040144Y-100333089D01*
X85034615Y-100268106D01*
X85028563Y-100195732D01*
X85020156Y-100152187D01*
X85004859Y-100127287D01*
X84978136Y-100110845D01*
X84961346Y-100103564D01*
X84897846Y-100076963D01*
X84897919Y-100530289D01*
G37*
X84897919Y-100530289D02*
X84898167Y-100676320D01*
X84899128Y-100788655D01*
X84901206Y-100872678D01*
X84904807Y-100933769D01*
X84910335Y-100977309D01*
X84918196Y-101008679D01*
X84928793Y-101033262D01*
X84936818Y-101047294D01*
X85003272Y-101123388D01*
X85087530Y-101171084D01*
X85180751Y-101188199D01*
X85274100Y-101172546D01*
X85329688Y-101144418D01*
X85388043Y-101095760D01*
X85427814Y-101036333D01*
X85451810Y-100958507D01*
X85462839Y-100854652D01*
X85464401Y-100778462D01*
X85464191Y-100772986D01*
X85327692Y-100772986D01*
X85326859Y-100860355D01*
X85323039Y-100918192D01*
X85314254Y-100956029D01*
X85298526Y-100983398D01*
X85279734Y-101004042D01*
X85216625Y-101043890D01*
X85148863Y-101047295D01*
X85084821Y-101014025D01*
X85079836Y-101009517D01*
X85058561Y-100986067D01*
X85045221Y-100958166D01*
X85037999Y-100916641D01*
X85035077Y-100852316D01*
X85034615Y-100781200D01*
X85035617Y-100691858D01*
X85039762Y-100632258D01*
X85048764Y-100593089D01*
X85064333Y-100565040D01*
X85077098Y-100550144D01*
X85136400Y-100512575D01*
X85204699Y-100508057D01*
X85269890Y-100536753D01*
X85282472Y-100547406D01*
X85303889Y-100571063D01*
X85317256Y-100599251D01*
X85324434Y-100641245D01*
X85327281Y-100706319D01*
X85327692Y-100772986D01*
X85464191Y-100772986D01*
X85459678Y-100655765D01*
X85443638Y-100563577D01*
X85413472Y-100494269D01*
X85366371Y-100440211D01*
X85329688Y-100412505D01*
X85263010Y-100382572D01*
X85185728Y-100368678D01*
X85113890Y-100372397D01*
X85073692Y-100387400D01*
X85057918Y-100391670D01*
X85047450Y-100375750D01*
X85040144Y-100333089D01*
X85034615Y-100268106D01*
X85028563Y-100195732D01*
X85020156Y-100152187D01*
X85004859Y-100127287D01*
X84978136Y-100110845D01*
X84961346Y-100103564D01*
X84897846Y-100076963D01*
X84897919Y-100530289D01*
G36*
X85786638Y-100374670D02*
G01*
X85697883Y-100407421D01*
X85625978Y-100465350D01*
X85597856Y-100506128D01*
X85567198Y-100580954D01*
X85567835Y-100635058D01*
X85600013Y-100671446D01*
X85611919Y-100677633D01*
X85663325Y-100696925D01*
X85689578Y-100691982D01*
X85698470Y-100659587D01*
X85698923Y-100641692D01*
X85715203Y-100575859D01*
X85757635Y-100529807D01*
X85816612Y-100507564D01*
X85882525Y-100513161D01*
X85936105Y-100542229D01*
X85954202Y-100558810D01*
X85967029Y-100578925D01*
X85975694Y-100609332D01*
X85981304Y-100656788D01*
X85984965Y-100728050D01*
X85987785Y-100829875D01*
X85988516Y-100862115D01*
X85991180Y-100972410D01*
X85994208Y-101050036D01*
X85998750Y-101101396D01*
X86005954Y-101132890D01*
X86016967Y-101150920D01*
X86032940Y-101161888D01*
X86043166Y-101166733D01*
X86086594Y-101183301D01*
X86112158Y-101188769D01*
X86120605Y-101170507D01*
X86125761Y-101115296D01*
X86127654Y-101022499D01*
X86126311Y-100891478D01*
X86125893Y-100871269D01*
X86122942Y-100751733D01*
X86119452Y-100664449D01*
X86114486Y-100602591D01*
X86107107Y-100559336D01*
X86096376Y-100527860D01*
X86081355Y-100501339D01*
X86073498Y-100489975D01*
X86028447Y-100439692D01*
X85978060Y-100400581D01*
X85971892Y-100397167D01*
X85881542Y-100370212D01*
X85786638Y-100374670D01*
G37*
X85786638Y-100374670D02*
X85697883Y-100407421D01*
X85625978Y-100465350D01*
X85597856Y-100506128D01*
X85567198Y-100580954D01*
X85567835Y-100635058D01*
X85600013Y-100671446D01*
X85611919Y-100677633D01*
X85663325Y-100696925D01*
X85689578Y-100691982D01*
X85698470Y-100659587D01*
X85698923Y-100641692D01*
X85715203Y-100575859D01*
X85757635Y-100529807D01*
X85816612Y-100507564D01*
X85882525Y-100513161D01*
X85936105Y-100542229D01*
X85954202Y-100558810D01*
X85967029Y-100578925D01*
X85975694Y-100609332D01*
X85981304Y-100656788D01*
X85984965Y-100728050D01*
X85987785Y-100829875D01*
X85988516Y-100862115D01*
X85991180Y-100972410D01*
X85994208Y-101050036D01*
X85998750Y-101101396D01*
X86005954Y-101132890D01*
X86016967Y-101150920D01*
X86032940Y-101161888D01*
X86043166Y-101166733D01*
X86086594Y-101183301D01*
X86112158Y-101188769D01*
X86120605Y-101170507D01*
X86125761Y-101115296D01*
X86127654Y-101022499D01*
X86126311Y-100891478D01*
X86125893Y-100871269D01*
X86122942Y-100751733D01*
X86119452Y-100664449D01*
X86114486Y-100602591D01*
X86107107Y-100559336D01*
X86096376Y-100527860D01*
X86081355Y-100501339D01*
X86073498Y-100489975D01*
X86028447Y-100439692D01*
X85978060Y-100400581D01*
X85971892Y-100397167D01*
X85881542Y-100370212D01*
X85786638Y-100374670D01*
G36*
X86446499Y-100376303D02*
G01*
X86369940Y-100404733D01*
X86369064Y-100405279D01*
X86321715Y-100440127D01*
X86286759Y-100480852D01*
X86262175Y-100533925D01*
X86245938Y-100605814D01*
X86236025Y-100702992D01*
X86230414Y-100831928D01*
X86229923Y-100850298D01*
X86222859Y-101127287D01*
X86282305Y-101158028D01*
X86325319Y-101178802D01*
X86351290Y-101188646D01*
X86352491Y-101188769D01*
X86356986Y-101170606D01*
X86360556Y-101121612D01*
X86362752Y-101050031D01*
X86363231Y-100992068D01*
X86363242Y-100898170D01*
X86367534Y-100839203D01*
X86382497Y-100811079D01*
X86414518Y-100809706D01*
X86469986Y-100830998D01*
X86553731Y-100870136D01*
X86615311Y-100902643D01*
X86646983Y-100930845D01*
X86656294Y-100961582D01*
X86656308Y-100963104D01*
X86640943Y-101016054D01*
X86595453Y-101044660D01*
X86525834Y-101048803D01*
X86475687Y-101048084D01*
X86449246Y-101062527D01*
X86432757Y-101097218D01*
X86423267Y-101141416D01*
X86436943Y-101166493D01*
X86442093Y-101170082D01*
X86490575Y-101184496D01*
X86558469Y-101186537D01*
X86628388Y-101176983D01*
X86677932Y-101159522D01*
X86746430Y-101101364D01*
X86785366Y-101020408D01*
X86793077Y-100957160D01*
X86787193Y-100900111D01*
X86765899Y-100853542D01*
X86723735Y-100812181D01*
X86655241Y-100770755D01*
X86554956Y-100723993D01*
X86548846Y-100721350D01*
X86458510Y-100679617D01*
X86402765Y-100645391D01*
X86378871Y-100614635D01*
X86384087Y-100583311D01*
X86415672Y-100547383D01*
X86425117Y-100539116D01*
X86488383Y-100507058D01*
X86553936Y-100508407D01*
X86611028Y-100539838D01*
X86648907Y-100598024D01*
X86652426Y-100609446D01*
X86686700Y-100664837D01*
X86730191Y-100691518D01*
X86793077Y-100717960D01*
X86793077Y-100649548D01*
X86773948Y-100550110D01*
X86717169Y-100458902D01*
X86687622Y-100428389D01*
X86620458Y-100389228D01*
X86535044Y-100371500D01*
X86446499Y-100376303D01*
G37*
X86446499Y-100376303D02*
X86369940Y-100404733D01*
X86369064Y-100405279D01*
X86321715Y-100440127D01*
X86286759Y-100480852D01*
X86262175Y-100533925D01*
X86245938Y-100605814D01*
X86236025Y-100702992D01*
X86230414Y-100831928D01*
X86229923Y-100850298D01*
X86222859Y-101127287D01*
X86282305Y-101158028D01*
X86325319Y-101178802D01*
X86351290Y-101188646D01*
X86352491Y-101188769D01*
X86356986Y-101170606D01*
X86360556Y-101121612D01*
X86362752Y-101050031D01*
X86363231Y-100992068D01*
X86363242Y-100898170D01*
X86367534Y-100839203D01*
X86382497Y-100811079D01*
X86414518Y-100809706D01*
X86469986Y-100830998D01*
X86553731Y-100870136D01*
X86615311Y-100902643D01*
X86646983Y-100930845D01*
X86656294Y-100961582D01*
X86656308Y-100963104D01*
X86640943Y-101016054D01*
X86595453Y-101044660D01*
X86525834Y-101048803D01*
X86475687Y-101048084D01*
X86449246Y-101062527D01*
X86432757Y-101097218D01*
X86423267Y-101141416D01*
X86436943Y-101166493D01*
X86442093Y-101170082D01*
X86490575Y-101184496D01*
X86558469Y-101186537D01*
X86628388Y-101176983D01*
X86677932Y-101159522D01*
X86746430Y-101101364D01*
X86785366Y-101020408D01*
X86793077Y-100957160D01*
X86787193Y-100900111D01*
X86765899Y-100853542D01*
X86723735Y-100812181D01*
X86655241Y-100770755D01*
X86554956Y-100723993D01*
X86548846Y-100721350D01*
X86458510Y-100679617D01*
X86402765Y-100645391D01*
X86378871Y-100614635D01*
X86384087Y-100583311D01*
X86415672Y-100547383D01*
X86425117Y-100539116D01*
X86488383Y-100507058D01*
X86553936Y-100508407D01*
X86611028Y-100539838D01*
X86648907Y-100598024D01*
X86652426Y-100609446D01*
X86686700Y-100664837D01*
X86730191Y-100691518D01*
X86793077Y-100717960D01*
X86793077Y-100649548D01*
X86773948Y-100550110D01*
X86717169Y-100458902D01*
X86687622Y-100428389D01*
X86620458Y-100389228D01*
X86535044Y-100371500D01*
X86446499Y-100376303D01*
G36*
X87340154Y-100242120D02*
G01*
X87334428Y-100321980D01*
X87327851Y-100369039D01*
X87318738Y-100389566D01*
X87305402Y-100389829D01*
X87301077Y-100387378D01*
X87243556Y-100369636D01*
X87168732Y-100370672D01*
X87092661Y-100388910D01*
X87045082Y-100412505D01*
X86996298Y-100450198D01*
X86960636Y-100492855D01*
X86936155Y-100547057D01*
X86920913Y-100619384D01*
X86912970Y-100716419D01*
X86910384Y-100844742D01*
X86910338Y-100869358D01*
X86910308Y-101145870D01*
X86971839Y-101167320D01*
X87015541Y-101181912D01*
X87039518Y-101188706D01*
X87040223Y-101188769D01*
X87042585Y-101170345D01*
X87044594Y-101119526D01*
X87046099Y-101042993D01*
X87046947Y-100947430D01*
X87047077Y-100889329D01*
X87047349Y-100774771D01*
X87048748Y-100692667D01*
X87052151Y-100636393D01*
X87058433Y-100599326D01*
X87068471Y-100574844D01*
X87083139Y-100556325D01*
X87092298Y-100547406D01*
X87155211Y-100511466D01*
X87223864Y-100508775D01*
X87286152Y-100539170D01*
X87297671Y-100550144D01*
X87314567Y-100570779D01*
X87326286Y-100595256D01*
X87333767Y-100630647D01*
X87337946Y-100684026D01*
X87339763Y-100762466D01*
X87340154Y-100870617D01*
X87340154Y-101145870D01*
X87401685Y-101167320D01*
X87445387Y-101181912D01*
X87469364Y-101188706D01*
X87470070Y-101188769D01*
X87471874Y-101170069D01*
X87473500Y-101117322D01*
X87474883Y-101035557D01*
X87475958Y-100929805D01*
X87476660Y-100805094D01*
X87476923Y-100666455D01*
X87476923Y-100131806D01*
X87349923Y-100078236D01*
X87340154Y-100242120D01*
G37*
X87340154Y-100242120D02*
X87334428Y-100321980D01*
X87327851Y-100369039D01*
X87318738Y-100389566D01*
X87305402Y-100389829D01*
X87301077Y-100387378D01*
X87243556Y-100369636D01*
X87168732Y-100370672D01*
X87092661Y-100388910D01*
X87045082Y-100412505D01*
X86996298Y-100450198D01*
X86960636Y-100492855D01*
X86936155Y-100547057D01*
X86920913Y-100619384D01*
X86912970Y-100716419D01*
X86910384Y-100844742D01*
X86910338Y-100869358D01*
X86910308Y-101145870D01*
X86971839Y-101167320D01*
X87015541Y-101181912D01*
X87039518Y-101188706D01*
X87040223Y-101188769D01*
X87042585Y-101170345D01*
X87044594Y-101119526D01*
X87046099Y-101042993D01*
X87046947Y-100947430D01*
X87047077Y-100889329D01*
X87047349Y-100774771D01*
X87048748Y-100692667D01*
X87052151Y-100636393D01*
X87058433Y-100599326D01*
X87068471Y-100574844D01*
X87083139Y-100556325D01*
X87092298Y-100547406D01*
X87155211Y-100511466D01*
X87223864Y-100508775D01*
X87286152Y-100539170D01*
X87297671Y-100550144D01*
X87314567Y-100570779D01*
X87326286Y-100595256D01*
X87333767Y-100630647D01*
X87337946Y-100684026D01*
X87339763Y-100762466D01*
X87340154Y-100870617D01*
X87340154Y-101145870D01*
X87401685Y-101167320D01*
X87445387Y-101181912D01*
X87469364Y-101188706D01*
X87470070Y-101188769D01*
X87471874Y-101170069D01*
X87473500Y-101117322D01*
X87474883Y-101035557D01*
X87475958Y-100929805D01*
X87476660Y-100805094D01*
X87476923Y-100666455D01*
X87476923Y-100131806D01*
X87349923Y-100078236D01*
X87340154Y-100242120D01*
G36*
X88965746Y-100349745D02*
G01*
X88888714Y-100401567D01*
X88829184Y-100476412D01*
X88793622Y-100571654D01*
X88786429Y-100641756D01*
X88787246Y-100671009D01*
X88794086Y-100693407D01*
X88812888Y-100713474D01*
X88849592Y-100735733D01*
X88910138Y-100764709D01*
X89000466Y-100804927D01*
X89000923Y-100805129D01*
X89084067Y-100843210D01*
X89152247Y-100877025D01*
X89198495Y-100902933D01*
X89215842Y-100917295D01*
X89215846Y-100917411D01*
X89200557Y-100948685D01*
X89164804Y-100983157D01*
X89123758Y-101007990D01*
X89102963Y-101012923D01*
X89046230Y-100995862D01*
X88997373Y-100953133D01*
X88973535Y-100906155D01*
X88950603Y-100871522D01*
X88905682Y-100832081D01*
X88852877Y-100798009D01*
X88806290Y-100779480D01*
X88796548Y-100778462D01*
X88785582Y-100795215D01*
X88784921Y-100838039D01*
X88792980Y-100895781D01*
X88808173Y-100957289D01*
X88828914Y-101011409D01*
X88829962Y-101013510D01*
X88892379Y-101100660D01*
X88973274Y-101159939D01*
X89065144Y-101189034D01*
X89160487Y-101185634D01*
X89251802Y-101147428D01*
X89255862Y-101144741D01*
X89327694Y-101079642D01*
X89374927Y-100994705D01*
X89401066Y-100883021D01*
X89404574Y-100851643D01*
X89410787Y-100703536D01*
X89403339Y-100634468D01*
X89215846Y-100634468D01*
X89213410Y-100677552D01*
X89200086Y-100690126D01*
X89166868Y-100680719D01*
X89114506Y-100658483D01*
X89055976Y-100630610D01*
X89054521Y-100629872D01*
X89004911Y-100603777D01*
X88985000Y-100586363D01*
X88989910Y-100568107D01*
X89010584Y-100544120D01*
X89063181Y-100509406D01*
X89119823Y-100506856D01*
X89170631Y-100532119D01*
X89205724Y-100580847D01*
X89215846Y-100634468D01*
X89403339Y-100634468D01*
X89398008Y-100585036D01*
X89365222Y-100491055D01*
X89319579Y-100425215D01*
X89237198Y-100358681D01*
X89146454Y-100325676D01*
X89053815Y-100323573D01*
X88965746Y-100349745D01*
G37*
X88965746Y-100349745D02*
X88888714Y-100401567D01*
X88829184Y-100476412D01*
X88793622Y-100571654D01*
X88786429Y-100641756D01*
X88787246Y-100671009D01*
X88794086Y-100693407D01*
X88812888Y-100713474D01*
X88849592Y-100735733D01*
X88910138Y-100764709D01*
X89000466Y-100804927D01*
X89000923Y-100805129D01*
X89084067Y-100843210D01*
X89152247Y-100877025D01*
X89198495Y-100902933D01*
X89215842Y-100917295D01*
X89215846Y-100917411D01*
X89200557Y-100948685D01*
X89164804Y-100983157D01*
X89123758Y-101007990D01*
X89102963Y-101012923D01*
X89046230Y-100995862D01*
X88997373Y-100953133D01*
X88973535Y-100906155D01*
X88950603Y-100871522D01*
X88905682Y-100832081D01*
X88852877Y-100798009D01*
X88806290Y-100779480D01*
X88796548Y-100778462D01*
X88785582Y-100795215D01*
X88784921Y-100838039D01*
X88792980Y-100895781D01*
X88808173Y-100957289D01*
X88828914Y-101011409D01*
X88829962Y-101013510D01*
X88892379Y-101100660D01*
X88973274Y-101159939D01*
X89065144Y-101189034D01*
X89160487Y-101185634D01*
X89251802Y-101147428D01*
X89255862Y-101144741D01*
X89327694Y-101079642D01*
X89374927Y-100994705D01*
X89401066Y-100883021D01*
X89404574Y-100851643D01*
X89410787Y-100703536D01*
X89403339Y-100634468D01*
X89215846Y-100634468D01*
X89213410Y-100677552D01*
X89200086Y-100690126D01*
X89166868Y-100680719D01*
X89114506Y-100658483D01*
X89055976Y-100630610D01*
X89054521Y-100629872D01*
X89004911Y-100603777D01*
X88985000Y-100586363D01*
X88989910Y-100568107D01*
X89010584Y-100544120D01*
X89063181Y-100509406D01*
X89119823Y-100506856D01*
X89170631Y-100532119D01*
X89205724Y-100580847D01*
X89215846Y-100634468D01*
X89403339Y-100634468D01*
X89398008Y-100585036D01*
X89365222Y-100491055D01*
X89319579Y-100425215D01*
X89237198Y-100358681D01*
X89146454Y-100325676D01*
X89053815Y-100323573D01*
X88965746Y-100349745D01*
G36*
X90483114Y-100337256D02*
G01*
X90391536Y-100385409D01*
X90323951Y-100462905D01*
X90299943Y-100512727D01*
X90281262Y-100587533D01*
X90271699Y-100682052D01*
X90270792Y-100785210D01*
X90278079Y-100885935D01*
X90293097Y-100973153D01*
X90315385Y-101035791D01*
X90322235Y-101046579D01*
X90403368Y-101127105D01*
X90499734Y-101175336D01*
X90604299Y-101189450D01*
X90710032Y-101167629D01*
X90739457Y-101154547D01*
X90796759Y-101114231D01*
X90847050Y-101060775D01*
X90851803Y-101053995D01*
X90871122Y-101021321D01*
X90883892Y-100986394D01*
X90891436Y-100940414D01*
X90895076Y-100874584D01*
X90896135Y-100780105D01*
X90896154Y-100758923D01*
X90896106Y-100752182D01*
X90700769Y-100752182D01*
X90699632Y-100841349D01*
X90695159Y-100900520D01*
X90685754Y-100938741D01*
X90669824Y-100965053D01*
X90661692Y-100973846D01*
X90614942Y-101007261D01*
X90569553Y-101005737D01*
X90523660Y-100976752D01*
X90496288Y-100945809D01*
X90480077Y-100900643D01*
X90470974Y-100829420D01*
X90470349Y-100821114D01*
X90468796Y-100692037D01*
X90485035Y-100596172D01*
X90518848Y-100534107D01*
X90570016Y-100506432D01*
X90588280Y-100504923D01*
X90636240Y-100512513D01*
X90669047Y-100538808D01*
X90689105Y-100589095D01*
X90698822Y-100668664D01*
X90700769Y-100752182D01*
X90896106Y-100752182D01*
X90895426Y-100658249D01*
X90892371Y-100587906D01*
X90885678Y-100539163D01*
X90874040Y-100503288D01*
X90856147Y-100471548D01*
X90852192Y-100465648D01*
X90785733Y-100386104D01*
X90713315Y-100339929D01*
X90625151Y-100321599D01*
X90595213Y-100320703D01*
X90483114Y-100337256D01*
G37*
X90483114Y-100337256D02*
X90391536Y-100385409D01*
X90323951Y-100462905D01*
X90299943Y-100512727D01*
X90281262Y-100587533D01*
X90271699Y-100682052D01*
X90270792Y-100785210D01*
X90278079Y-100885935D01*
X90293097Y-100973153D01*
X90315385Y-101035791D01*
X90322235Y-101046579D01*
X90403368Y-101127105D01*
X90499734Y-101175336D01*
X90604299Y-101189450D01*
X90710032Y-101167629D01*
X90739457Y-101154547D01*
X90796759Y-101114231D01*
X90847050Y-101060775D01*
X90851803Y-101053995D01*
X90871122Y-101021321D01*
X90883892Y-100986394D01*
X90891436Y-100940414D01*
X90895076Y-100874584D01*
X90896135Y-100780105D01*
X90896154Y-100758923D01*
X90896106Y-100752182D01*
X90700769Y-100752182D01*
X90699632Y-100841349D01*
X90695159Y-100900520D01*
X90685754Y-100938741D01*
X90669824Y-100965053D01*
X90661692Y-100973846D01*
X90614942Y-101007261D01*
X90569553Y-101005737D01*
X90523660Y-100976752D01*
X90496288Y-100945809D01*
X90480077Y-100900643D01*
X90470974Y-100829420D01*
X90470349Y-100821114D01*
X90468796Y-100692037D01*
X90485035Y-100596172D01*
X90518848Y-100534107D01*
X90570016Y-100506432D01*
X90588280Y-100504923D01*
X90636240Y-100512513D01*
X90669047Y-100538808D01*
X90689105Y-100589095D01*
X90698822Y-100668664D01*
X90700769Y-100752182D01*
X90896106Y-100752182D01*
X90895426Y-100658249D01*
X90892371Y-100587906D01*
X90885678Y-100539163D01*
X90874040Y-100503288D01*
X90856147Y-100471548D01*
X90852192Y-100465648D01*
X90785733Y-100386104D01*
X90713315Y-100339929D01*
X90625151Y-100321599D01*
X90595213Y-100320703D01*
X90483114Y-100337256D01*
G36*
X88228336Y-100345089D02*
G01*
X88165633Y-100381358D01*
X88122039Y-100417358D01*
X88090155Y-100455075D01*
X88068190Y-100501199D01*
X88054351Y-100562421D01*
X88046847Y-100645431D01*
X88043883Y-100756919D01*
X88043539Y-100837062D01*
X88043539Y-101132065D01*
X88209615Y-101206515D01*
X88219385Y-100883402D01*
X88223421Y-100762729D01*
X88227656Y-100675141D01*
X88232903Y-100614650D01*
X88239975Y-100575268D01*
X88249689Y-100551007D01*
X88262856Y-100535880D01*
X88267081Y-100532606D01*
X88331091Y-100507034D01*
X88395792Y-100517153D01*
X88434308Y-100544000D01*
X88449975Y-100563024D01*
X88460820Y-100587988D01*
X88467712Y-100625834D01*
X88471521Y-100683502D01*
X88473117Y-100767935D01*
X88473385Y-100855928D01*
X88473437Y-100966323D01*
X88475328Y-101044463D01*
X88481655Y-101097165D01*
X88495017Y-101131242D01*
X88518015Y-101153511D01*
X88553246Y-101170787D01*
X88600303Y-101188738D01*
X88651697Y-101208278D01*
X88645579Y-100861485D01*
X88643116Y-100736468D01*
X88640233Y-100644082D01*
X88636102Y-100577881D01*
X88629893Y-100531420D01*
X88620774Y-100498256D01*
X88607917Y-100471944D01*
X88592416Y-100448729D01*
X88517629Y-100374569D01*
X88426372Y-100331684D01*
X88327117Y-100321412D01*
X88228336Y-100345089D01*
G37*
X88228336Y-100345089D02*
X88165633Y-100381358D01*
X88122039Y-100417358D01*
X88090155Y-100455075D01*
X88068190Y-100501199D01*
X88054351Y-100562421D01*
X88046847Y-100645431D01*
X88043883Y-100756919D01*
X88043539Y-100837062D01*
X88043539Y-101132065D01*
X88209615Y-101206515D01*
X88219385Y-100883402D01*
X88223421Y-100762729D01*
X88227656Y-100675141D01*
X88232903Y-100614650D01*
X88239975Y-100575268D01*
X88249689Y-100551007D01*
X88262856Y-100535880D01*
X88267081Y-100532606D01*
X88331091Y-100507034D01*
X88395792Y-100517153D01*
X88434308Y-100544000D01*
X88449975Y-100563024D01*
X88460820Y-100587988D01*
X88467712Y-100625834D01*
X88471521Y-100683502D01*
X88473117Y-100767935D01*
X88473385Y-100855928D01*
X88473437Y-100966323D01*
X88475328Y-101044463D01*
X88481655Y-101097165D01*
X88495017Y-101131242D01*
X88518015Y-101153511D01*
X88553246Y-101170787D01*
X88600303Y-101188738D01*
X88651697Y-101208278D01*
X88645579Y-100861485D01*
X88643116Y-100736468D01*
X88640233Y-100644082D01*
X88636102Y-100577881D01*
X88629893Y-100531420D01*
X88620774Y-100498256D01*
X88607917Y-100471944D01*
X88592416Y-100448729D01*
X88517629Y-100374569D01*
X88426372Y-100331684D01*
X88327117Y-100321412D01*
X88228336Y-100345089D01*
G36*
X89731114Y-100334505D02*
G01*
X89656461Y-100371727D01*
X89590569Y-100440261D01*
X89572423Y-100465648D01*
X89552655Y-100498866D01*
X89539828Y-100534945D01*
X89532490Y-100583098D01*
X89529187Y-100652536D01*
X89528462Y-100744206D01*
X89531737Y-100869830D01*
X89543123Y-100964154D01*
X89564959Y-101034523D01*
X89599581Y-101088286D01*
X89649330Y-101132788D01*
X89652986Y-101135423D01*
X89702015Y-101162377D01*
X89761055Y-101175712D01*
X89836141Y-101179000D01*
X89958205Y-101179000D01*
X89958256Y-101297497D01*
X89959392Y-101363492D01*
X89966314Y-101402202D01*
X89984402Y-101425419D01*
X90019038Y-101444933D01*
X90027355Y-101448920D01*
X90066280Y-101467603D01*
X90096417Y-101479403D01*
X90118826Y-101480422D01*
X90134567Y-101466761D01*
X90144698Y-101434522D01*
X90150277Y-101379804D01*
X90152365Y-101298711D01*
X90152019Y-101187344D01*
X90150300Y-101041802D01*
X90149763Y-100998269D01*
X90147828Y-100848205D01*
X90146096Y-100750042D01*
X89958308Y-100750042D01*
X89957252Y-100833364D01*
X89952562Y-100887880D01*
X89941949Y-100923837D01*
X89923128Y-100951482D01*
X89910350Y-100964965D01*
X89858110Y-101004417D01*
X89811858Y-101007628D01*
X89764133Y-100975049D01*
X89762923Y-100973846D01*
X89743506Y-100948668D01*
X89731693Y-100914447D01*
X89725735Y-100861748D01*
X89723880Y-100781131D01*
X89723846Y-100763271D01*
X89728330Y-100652175D01*
X89742926Y-100575161D01*
X89769350Y-100528147D01*
X89809317Y-100507050D01*
X89832416Y-100504923D01*
X89887238Y-100514900D01*
X89924842Y-100547752D01*
X89947477Y-100607857D01*
X89957394Y-100699598D01*
X89958308Y-100750042D01*
X90146096Y-100750042D01*
X90145778Y-100732060D01*
X90143127Y-100644679D01*
X90139394Y-100580905D01*
X90134093Y-100535582D01*
X90126742Y-100503555D01*
X90116857Y-100479668D01*
X90103954Y-100458764D01*
X90098421Y-100450898D01*
X90025031Y-100376595D01*
X89932240Y-100334467D01*
X89824904Y-100322722D01*
X89731114Y-100334505D01*
G37*
X89731114Y-100334505D02*
X89656461Y-100371727D01*
X89590569Y-100440261D01*
X89572423Y-100465648D01*
X89552655Y-100498866D01*
X89539828Y-100534945D01*
X89532490Y-100583098D01*
X89529187Y-100652536D01*
X89528462Y-100744206D01*
X89531737Y-100869830D01*
X89543123Y-100964154D01*
X89564959Y-101034523D01*
X89599581Y-101088286D01*
X89649330Y-101132788D01*
X89652986Y-101135423D01*
X89702015Y-101162377D01*
X89761055Y-101175712D01*
X89836141Y-101179000D01*
X89958205Y-101179000D01*
X89958256Y-101297497D01*
X89959392Y-101363492D01*
X89966314Y-101402202D01*
X89984402Y-101425419D01*
X90019038Y-101444933D01*
X90027355Y-101448920D01*
X90066280Y-101467603D01*
X90096417Y-101479403D01*
X90118826Y-101480422D01*
X90134567Y-101466761D01*
X90144698Y-101434522D01*
X90150277Y-101379804D01*
X90152365Y-101298711D01*
X90152019Y-101187344D01*
X90150300Y-101041802D01*
X90149763Y-100998269D01*
X90147828Y-100848205D01*
X90146096Y-100750042D01*
X89958308Y-100750042D01*
X89957252Y-100833364D01*
X89952562Y-100887880D01*
X89941949Y-100923837D01*
X89923128Y-100951482D01*
X89910350Y-100964965D01*
X89858110Y-101004417D01*
X89811858Y-101007628D01*
X89764133Y-100975049D01*
X89762923Y-100973846D01*
X89743506Y-100948668D01*
X89731693Y-100914447D01*
X89725735Y-100861748D01*
X89723880Y-100781131D01*
X89723846Y-100763271D01*
X89728330Y-100652175D01*
X89742926Y-100575161D01*
X89769350Y-100528147D01*
X89809317Y-100507050D01*
X89832416Y-100504923D01*
X89887238Y-100514900D01*
X89924842Y-100547752D01*
X89947477Y-100607857D01*
X89957394Y-100699598D01*
X89958308Y-100750042D01*
X90146096Y-100750042D01*
X90145778Y-100732060D01*
X90143127Y-100644679D01*
X90139394Y-100580905D01*
X90134093Y-100535582D01*
X90126742Y-100503555D01*
X90116857Y-100479668D01*
X90103954Y-100458764D01*
X90098421Y-100450898D01*
X90025031Y-100376595D01*
X89932240Y-100334467D01*
X89824904Y-100322722D01*
X89731114Y-100334505D01*
D10*
X164999495Y-139500000D02*
X164292388Y-140207107D01*
X164292388Y-138792893D02*
X164999495Y-139500000D01*
X155100000Y-149399495D02*
X154392893Y-148692388D01*
X155807107Y-148692388D02*
X155100000Y-149399495D01*
X145200505Y-139500000D02*
X145907612Y-138792893D01*
X145907612Y-140207107D02*
X145200505Y-139500000D01*
X155100000Y-129600505D02*
X155807107Y-130307612D01*
X154392893Y-130307612D02*
X155100000Y-129600505D01*
X152978680Y-151520815D02*
X152271573Y-152227922D01*
X152271573Y-150813708D02*
X152978680Y-151520815D01*
X143786292Y-160713203D02*
X143079185Y-161420310D01*
X133179690Y-151520815D02*
X133886797Y-150813708D01*
X133886797Y-152227922D02*
X133179690Y-151520815D01*
X143079185Y-161420310D02*
X142372078Y-160713203D01*
X142372078Y-142328427D02*
X143079185Y-141621320D01*
X143079185Y-141621320D02*
X143786292Y-142328427D01*
X149089592Y-155409903D02*
X148382486Y-154702796D01*
X149796699Y-154702796D02*
X149089592Y-155409903D01*
X139897204Y-146217514D02*
X139190097Y-145510408D01*
X149089592Y-135610913D02*
X149796699Y-136318019D01*
X148382486Y-136318019D02*
X149089592Y-135610913D01*
X139190097Y-145510408D02*
X139897204Y-144803301D01*
X158281981Y-144803301D02*
X158989087Y-145510408D01*
X158989087Y-145510408D02*
X158281981Y-146217514D01*
X115500000Y-87500000D02*
X115500000Y-86500000D01*
X115500000Y-86500000D02*
X116500000Y-86500000D01*
X116500000Y-100500000D02*
X115500000Y-100500000D01*
X115500000Y-100500000D02*
X115500000Y-99500000D01*
X129500000Y-99500000D02*
X129500000Y-100500000D01*
X129500000Y-100500000D02*
X128500000Y-100500000D01*
X128500000Y-86500000D02*
X129500000Y-86500000D01*
X129500000Y-86500000D02*
X129500000Y-87500000D01*
X115500000Y-70500000D02*
X115500000Y-69500000D01*
X115500000Y-69500000D02*
X116500000Y-69500000D01*
X116500000Y-83500000D02*
X115500000Y-83500000D01*
X115500000Y-83500000D02*
X115500000Y-82500000D01*
X129500000Y-82500000D02*
X129500000Y-83500000D01*
X129500000Y-83500000D02*
X128500000Y-83500000D01*
X128500000Y-69500000D02*
X129500000Y-69500000D01*
X129500000Y-69500000D02*
X129500000Y-70500000D01*
X115500000Y-53500000D02*
X115500000Y-52500000D01*
X115500000Y-52500000D02*
X116500000Y-52500000D01*
X116500000Y-66500000D02*
X115500000Y-66500000D01*
X115500000Y-66500000D02*
X115500000Y-65500000D01*
X129500000Y-65500000D02*
X129500000Y-66500000D01*
X129500000Y-66500000D02*
X128500000Y-66500000D01*
X128500000Y-52500000D02*
X129500000Y-52500000D01*
X129500000Y-52500000D02*
X129500000Y-53500000D01*
X115500000Y-36500000D02*
X115500000Y-35500000D01*
X115500000Y-35500000D02*
X116500000Y-35500000D01*
X116500000Y-49500000D02*
X115500000Y-49500000D01*
X115500000Y-49500000D02*
X115500000Y-48500000D01*
X129500000Y-48500000D02*
X129500000Y-49500000D01*
X129500000Y-49500000D02*
X128500000Y-49500000D01*
X128500000Y-35500000D02*
X129500000Y-35500000D01*
X129500000Y-35500000D02*
X129500000Y-36500000D01*
X144562178Y-121437822D02*
X144062178Y-122303848D01*
X143696152Y-120937822D02*
X144562178Y-121437822D01*
X137562178Y-133562178D02*
X136696152Y-133062178D01*
X138062178Y-132696152D02*
X137562178Y-133562178D01*
X125437822Y-126562178D02*
X125937822Y-125696152D01*
X126303848Y-127062178D02*
X125437822Y-126562178D01*
X132437822Y-114437822D02*
X133303848Y-114937822D01*
X131937822Y-115303848D02*
X132437822Y-114437822D01*
X136062178Y-136160254D02*
X135562178Y-137026279D01*
X135196152Y-135660254D02*
X136062178Y-136160254D01*
X129562178Y-147418584D02*
X129062178Y-148284610D01*
X116937822Y-141284610D02*
X117437822Y-140418584D01*
X117803848Y-141784610D02*
X116937822Y-141284610D01*
X129062178Y-148284610D02*
X128196152Y-147784610D01*
X123437822Y-130026279D02*
X123937822Y-129160254D01*
X123937822Y-129160254D02*
X124803848Y-129660254D01*
X133312178Y-140923394D02*
X132446152Y-140423394D01*
X133812178Y-140057368D02*
X133312178Y-140923394D01*
X122053848Y-134423394D02*
X121187822Y-133923394D01*
X128187822Y-121799038D02*
X129053848Y-122299038D01*
X127687822Y-122665064D02*
X128187822Y-121799038D01*
X121187822Y-133923394D02*
X121687822Y-133057368D01*
X139446152Y-128299038D02*
X140312178Y-128799038D01*
X140312178Y-128799038D02*
X139812178Y-129665064D01*
X97500000Y-85500000D02*
X97500000Y-84500000D01*
X97500000Y-84500000D02*
X98500000Y-84500000D01*
X98500000Y-98500000D02*
X97500000Y-98500000D01*
X97500000Y-98500000D02*
X97500000Y-97500000D01*
X111500000Y-97500000D02*
X111500000Y-98500000D01*
X111500000Y-98500000D02*
X110500000Y-98500000D01*
X110500000Y-84500000D02*
X111500000Y-84500000D01*
X111500000Y-84500000D02*
X111500000Y-85500000D01*
X97500000Y-68500000D02*
X97500000Y-67500000D01*
X97500000Y-67500000D02*
X98500000Y-67500000D01*
X98500000Y-81500000D02*
X97500000Y-81500000D01*
X97500000Y-81500000D02*
X97500000Y-80500000D01*
X111500000Y-80500000D02*
X111500000Y-81500000D01*
X111500000Y-81500000D02*
X110500000Y-81500000D01*
X110500000Y-67500000D02*
X111500000Y-67500000D01*
X111500000Y-67500000D02*
X111500000Y-68500000D01*
X97500000Y-51500000D02*
X97500000Y-50500000D01*
X97500000Y-50500000D02*
X98500000Y-50500000D01*
X98500000Y-64500000D02*
X97500000Y-64500000D01*
X97500000Y-64500000D02*
X97500000Y-63500000D01*
X111500000Y-63500000D02*
X111500000Y-64500000D01*
X111500000Y-64500000D02*
X110500000Y-64500000D01*
X110500000Y-50500000D02*
X111500000Y-50500000D01*
X111500000Y-50500000D02*
X111500000Y-51500000D01*
X97500000Y-34500000D02*
X97500000Y-33500000D01*
X97500000Y-33500000D02*
X98500000Y-33500000D01*
X98500000Y-47500000D02*
X97500000Y-47500000D01*
X97500000Y-47500000D02*
X97500000Y-46500000D01*
X111500000Y-46500000D02*
X111500000Y-47500000D01*
X111500000Y-47500000D02*
X110500000Y-47500000D01*
X110500000Y-33500000D02*
X111500000Y-33500000D01*
X111500000Y-33500000D02*
X111500000Y-34500000D01*
X120223214Y-109350253D02*
X119964395Y-110316178D01*
X119257288Y-109091433D02*
X120223214Y-109350253D01*
X116599747Y-122873214D02*
X115633822Y-122614395D01*
X116858567Y-121907288D02*
X116599747Y-122873214D01*
X103076786Y-119249747D02*
X103335605Y-118283822D01*
X104042712Y-119508567D02*
X103076786Y-119249747D01*
X106700253Y-105726786D02*
X107666178Y-105985605D01*
X106441433Y-106692712D02*
X106700253Y-105726786D01*
X115823290Y-125770992D02*
X115564471Y-126736917D01*
X114857365Y-125512173D02*
X115823290Y-125770992D01*
X112458643Y-138328027D02*
X112199824Y-139293953D01*
X98676862Y-135670487D02*
X98935681Y-134704561D01*
X99642788Y-135929306D02*
X98676862Y-135670487D01*
X112199824Y-139293953D02*
X111233898Y-139035134D01*
X102041510Y-123113451D02*
X102300329Y-122147525D01*
X102300329Y-122147525D02*
X103266255Y-122406344D01*
X114399786Y-131083584D02*
X113433860Y-130824765D01*
X114658605Y-130117658D02*
X114399786Y-131083584D01*
X101842750Y-127718936D02*
X100876824Y-127460117D01*
X104500291Y-113937155D02*
X105466216Y-114195974D01*
X104241472Y-114903081D02*
X104500291Y-113937155D01*
X100876824Y-127460117D02*
X101135643Y-126494191D01*
X117057326Y-117301803D02*
X118023252Y-117560622D01*
X118023252Y-117560622D02*
X117764433Y-118526548D01*
X79500000Y-78500000D02*
X79500000Y-77500000D01*
X79500000Y-77500000D02*
X80500000Y-77500000D01*
X80500000Y-91500000D02*
X79500000Y-91500000D01*
X79500000Y-91500000D02*
X79500000Y-90500000D01*
X93500000Y-90500000D02*
X93500000Y-91500000D01*
X93500000Y-91500000D02*
X92500000Y-91500000D01*
X92500000Y-77500000D02*
X93500000Y-77500000D01*
X93500000Y-77500000D02*
X93500000Y-78500000D01*
X79500000Y-61500000D02*
X79500000Y-60500000D01*
X79500000Y-60500000D02*
X80500000Y-60500000D01*
X80500000Y-74500000D02*
X79500000Y-74500000D01*
X79500000Y-74500000D02*
X79500000Y-73500000D01*
X93500000Y-73500000D02*
X93500000Y-74500000D01*
X93500000Y-74500000D02*
X92500000Y-74500000D01*
X92500000Y-60500000D02*
X93500000Y-60500000D01*
X93500000Y-60500000D02*
X93500000Y-61500000D01*
X79500000Y-44500000D02*
X79500000Y-43500000D01*
X79500000Y-43500000D02*
X80500000Y-43500000D01*
X80500000Y-57500000D02*
X79500000Y-57500000D01*
X79500000Y-57500000D02*
X79500000Y-56500000D01*
X93500000Y-56500000D02*
X93500000Y-57500000D01*
X93500000Y-57500000D02*
X92500000Y-57500000D01*
X92500000Y-43500000D02*
X93500000Y-43500000D01*
X93500000Y-43500000D02*
X93500000Y-44500000D01*
X79500000Y-27500000D02*
X79500000Y-26500000D01*
X79500000Y-26500000D02*
X80500000Y-26500000D01*
X80500000Y-40500000D02*
X79500000Y-40500000D01*
X79500000Y-40500000D02*
X79500000Y-39500000D01*
X93500000Y-39500000D02*
X93500000Y-40500000D01*
X93500000Y-40500000D02*
X92500000Y-40500000D01*
X92500000Y-26500000D02*
X93500000Y-26500000D01*
X93500000Y-26500000D02*
X93500000Y-27500000D01*
X93500000Y-104000000D02*
X93500000Y-105000000D01*
X92500000Y-104000000D02*
X93500000Y-104000000D01*
X93500000Y-118000000D02*
X92500000Y-118000000D01*
X93500000Y-117000000D02*
X93500000Y-118000000D01*
X79500000Y-118000000D02*
X79500000Y-117000000D01*
X80500000Y-118000000D02*
X79500000Y-118000000D01*
X79500000Y-104000000D02*
X80500000Y-104000000D01*
X79500000Y-105000000D02*
X79500000Y-104000000D01*
X93500000Y-121000000D02*
X93500000Y-122000000D01*
X92500000Y-121000000D02*
X93500000Y-121000000D01*
X93500000Y-134000000D02*
X93500000Y-135000000D01*
X79500000Y-135000000D02*
X79500000Y-134000000D01*
X80500000Y-135000000D02*
X79500000Y-135000000D01*
X93500000Y-135000000D02*
X92500000Y-135000000D01*
X79500000Y-122000000D02*
X79500000Y-121000000D01*
X79500000Y-121000000D02*
X80500000Y-121000000D01*
X93500000Y-126500000D02*
X92500000Y-126500000D01*
X93500000Y-125500000D02*
X93500000Y-126500000D01*
X80500000Y-126500000D02*
X79500000Y-126500000D01*
X79500000Y-112500000D02*
X80500000Y-112500000D01*
X79500000Y-113500000D02*
X79500000Y-112500000D01*
X79500000Y-126500000D02*
X79500000Y-125500000D01*
X92500000Y-112500000D02*
X93500000Y-112500000D01*
X93500000Y-112500000D02*
X93500000Y-113500000D01*
X61500000Y-85500000D02*
X61500000Y-84500000D01*
X61500000Y-84500000D02*
X62500000Y-84500000D01*
X62500000Y-98500000D02*
X61500000Y-98500000D01*
X61500000Y-98500000D02*
X61500000Y-97500000D01*
X75500000Y-97500000D02*
X75500000Y-98500000D01*
X75500000Y-98500000D02*
X74500000Y-98500000D01*
X74500000Y-84500000D02*
X75500000Y-84500000D01*
X75500000Y-84500000D02*
X75500000Y-85500000D01*
X61500000Y-68500000D02*
X61500000Y-67500000D01*
X61500000Y-67500000D02*
X62500000Y-67500000D01*
X62500000Y-81500000D02*
X61500000Y-81500000D01*
X61500000Y-81500000D02*
X61500000Y-80500000D01*
X75500000Y-80500000D02*
X75500000Y-81500000D01*
X75500000Y-81500000D02*
X74500000Y-81500000D01*
X74500000Y-67500000D02*
X75500000Y-67500000D01*
X75500000Y-67500000D02*
X75500000Y-68500000D01*
X61500000Y-51500000D02*
X61500000Y-50500000D01*
X61500000Y-50500000D02*
X62500000Y-50500000D01*
X62500000Y-64500000D02*
X61500000Y-64500000D01*
X61500000Y-64500000D02*
X61500000Y-63500000D01*
X75500000Y-63500000D02*
X75500000Y-64500000D01*
X75500000Y-64500000D02*
X74500000Y-64500000D01*
X74500000Y-50500000D02*
X75500000Y-50500000D01*
X75500000Y-50500000D02*
X75500000Y-51500000D01*
X61500000Y-34500000D02*
X61500000Y-33500000D01*
X61500000Y-33500000D02*
X62500000Y-33500000D01*
X62500000Y-47500000D02*
X61500000Y-47500000D01*
X61500000Y-47500000D02*
X61500000Y-46500000D01*
X75500000Y-46500000D02*
X75500000Y-47500000D01*
X75500000Y-47500000D02*
X74500000Y-47500000D01*
X74500000Y-33500000D02*
X75500000Y-33500000D01*
X75500000Y-33500000D02*
X75500000Y-34500000D01*
X61500000Y-113500000D02*
X61500000Y-112500000D01*
X61500000Y-112500000D02*
X62500000Y-112500000D01*
X62500000Y-126500000D02*
X61500000Y-126500000D01*
X61500000Y-126500000D02*
X61500000Y-125500000D01*
X75500000Y-125500000D02*
X75500000Y-126500000D01*
X75500000Y-126500000D02*
X74500000Y-126500000D01*
X74500000Y-112500000D02*
X75500000Y-112500000D01*
X75500000Y-112500000D02*
X75500000Y-113500000D01*
X43500000Y-113500000D02*
X43500000Y-112500000D01*
X43500000Y-112500000D02*
X44500000Y-112500000D01*
X44500000Y-126500000D02*
X43500000Y-126500000D01*
X43500000Y-126500000D02*
X43500000Y-125500000D01*
X57500000Y-125500000D02*
X57500000Y-126500000D01*
X57500000Y-126500000D02*
X56500000Y-126500000D01*
X56500000Y-112500000D02*
X57500000Y-112500000D01*
X57500000Y-112500000D02*
X57500000Y-113500000D01*
X43500000Y-96500000D02*
X43500000Y-95500000D01*
X43500000Y-95500000D02*
X44500000Y-95500000D01*
X44500000Y-109500000D02*
X43500000Y-109500000D01*
X43500000Y-109500000D02*
X43500000Y-108500000D01*
X57500000Y-108500000D02*
X57500000Y-109500000D01*
X57500000Y-109500000D02*
X56500000Y-109500000D01*
X56500000Y-95500000D02*
X57500000Y-95500000D01*
X57500000Y-95500000D02*
X57500000Y-96500000D01*
X43500000Y-79500000D02*
X43500000Y-78500000D01*
X43500000Y-78500000D02*
X44500000Y-78500000D01*
X44500000Y-92500000D02*
X43500000Y-92500000D01*
X43500000Y-92500000D02*
X43500000Y-91500000D01*
X57500000Y-91500000D02*
X57500000Y-92500000D01*
X57500000Y-92500000D02*
X56500000Y-92500000D01*
X56500000Y-78500000D02*
X57500000Y-78500000D01*
X57500000Y-78500000D02*
X57500000Y-79500000D01*
X43500000Y-62500000D02*
X43500000Y-61500000D01*
X43500000Y-61500000D02*
X44500000Y-61500000D01*
X44500000Y-75500000D02*
X43500000Y-75500000D01*
X43500000Y-75500000D02*
X43500000Y-74500000D01*
X57500000Y-74500000D02*
X57500000Y-75500000D01*
X57500000Y-75500000D02*
X56500000Y-75500000D01*
X56500000Y-61500000D02*
X57500000Y-61500000D01*
X57500000Y-61500000D02*
X57500000Y-62500000D01*
X43500000Y-45500000D02*
X43500000Y-44500000D01*
X43500000Y-44500000D02*
X44500000Y-44500000D01*
X44500000Y-58500000D02*
X43500000Y-58500000D01*
X43500000Y-58500000D02*
X43500000Y-57500000D01*
X57500000Y-57500000D02*
X57500000Y-58500000D01*
X57500000Y-58500000D02*
X56500000Y-58500000D01*
X56500000Y-44500000D02*
X57500000Y-44500000D01*
X57500000Y-44500000D02*
X57500000Y-45500000D01*
X25500000Y-113500000D02*
X25500000Y-112500000D01*
X25500000Y-112500000D02*
X26500000Y-112500000D01*
X26500000Y-126500000D02*
X25500000Y-126500000D01*
X25500000Y-126500000D02*
X25500000Y-125500000D01*
X39500000Y-125500000D02*
X39500000Y-126500000D01*
X39500000Y-126500000D02*
X38500000Y-126500000D01*
X38500000Y-112500000D02*
X39500000Y-112500000D01*
X39500000Y-112500000D02*
X39500000Y-113500000D01*
X25500000Y-96500000D02*
X25500000Y-95500000D01*
X25500000Y-95500000D02*
X26500000Y-95500000D01*
X26500000Y-109500000D02*
X25500000Y-109500000D01*
X25500000Y-109500000D02*
X25500000Y-108500000D01*
X39500000Y-108500000D02*
X39500000Y-109500000D01*
X39500000Y-109500000D02*
X38500000Y-109500000D01*
X38500000Y-95500000D02*
X39500000Y-95500000D01*
X39500000Y-95500000D02*
X39500000Y-96500000D01*
X25500000Y-79500000D02*
X25500000Y-78500000D01*
X25500000Y-78500000D02*
X26500000Y-78500000D01*
X26500000Y-92500000D02*
X25500000Y-92500000D01*
X25500000Y-92500000D02*
X25500000Y-91500000D01*
X39500000Y-91500000D02*
X39500000Y-92500000D01*
X39500000Y-92500000D02*
X38500000Y-92500000D01*
X38500000Y-78500000D02*
X39500000Y-78500000D01*
X39500000Y-78500000D02*
X39500000Y-79500000D01*
X25500000Y-62500000D02*
X25500000Y-61500000D01*
X25500000Y-61500000D02*
X26500000Y-61500000D01*
X26500000Y-75500000D02*
X25500000Y-75500000D01*
X25500000Y-75500000D02*
X25500000Y-74500000D01*
X39500000Y-74500000D02*
X39500000Y-75500000D01*
X39500000Y-75500000D02*
X38500000Y-75500000D01*
X38500000Y-61500000D02*
X39500000Y-61500000D01*
X39500000Y-61500000D02*
X39500000Y-62500000D01*
X25500000Y-45500000D02*
X25500000Y-44500000D01*
X25500000Y-44500000D02*
X26500000Y-44500000D01*
X26500000Y-58500000D02*
X25500000Y-58500000D01*
X25500000Y-58500000D02*
X25500000Y-57500000D01*
X39500000Y-57500000D02*
X39500000Y-58500000D01*
X39500000Y-58500000D02*
X38500000Y-58500000D01*
X38500000Y-44500000D02*
X39500000Y-44500000D01*
X39500000Y-44500000D02*
X39500000Y-45500000D01*
X157504000Y-119390500D02*
X159504000Y-119390500D01*
X157504000Y-119640500D02*
X145404000Y-119640500D01*
X157504000Y-113540500D02*
X157504000Y-119640500D01*
X157504000Y-113540500D02*
X145404000Y-113540500D01*
X157504000Y-113790500D02*
X159504000Y-113790500D01*
X159504000Y-113790500D02*
X159504000Y-119390500D01*
X145404000Y-113540500D02*
X145404000Y-119640500D01*
X161930482Y-135228570D02*
X161795795Y-135161226D01*
X161627436Y-134992868D01*
X161593765Y-134891852D01*
X161593765Y-134824509D01*
X161627436Y-134723494D01*
X161694780Y-134656150D01*
X161795795Y-134622478D01*
X161863139Y-134622478D01*
X161964154Y-134656150D01*
X162132513Y-134757165D01*
X162233528Y-134790837D01*
X162300871Y-134790837D01*
X162401887Y-134757165D01*
X162469230Y-134689822D01*
X162502902Y-134588807D01*
X162502902Y-134521463D01*
X162469230Y-134420448D01*
X162300871Y-134252089D01*
X162166184Y-134184746D01*
X161964154Y-133915372D02*
X161088688Y-134454120D01*
X161459078Y-133814356D01*
X160819314Y-134184746D01*
X161358062Y-133309280D01*
X161156032Y-133107250D02*
X160718299Y-132669517D01*
X160684627Y-133174593D01*
X160583612Y-133073578D01*
X160482597Y-133039906D01*
X160415253Y-133039906D01*
X160314238Y-133073578D01*
X160145879Y-133241937D01*
X160112208Y-133342952D01*
X160112208Y-133410295D01*
X160145879Y-133511311D01*
X160347910Y-133713341D01*
X160448925Y-133747013D01*
X160516269Y-133747013D01*
X159337757Y-132703189D02*
X159741818Y-133107250D01*
X159539788Y-132905219D02*
X160246895Y-132198112D01*
X160213223Y-132366471D01*
X160213223Y-132501158D01*
X160246895Y-132602173D01*
X124309523Y-85649761D02*
X124166666Y-85697380D01*
X123928571Y-85697380D01*
X123833333Y-85649761D01*
X123785714Y-85602142D01*
X123738095Y-85506904D01*
X123738095Y-85411666D01*
X123785714Y-85316428D01*
X123833333Y-85268809D01*
X123928571Y-85221190D01*
X124119047Y-85173571D01*
X124214285Y-85125952D01*
X124261904Y-85078333D01*
X124309523Y-84983095D01*
X124309523Y-84887857D01*
X124261904Y-84792619D01*
X124214285Y-84745000D01*
X124119047Y-84697380D01*
X123880952Y-84697380D01*
X123738095Y-84745000D01*
X123404761Y-84697380D02*
X123166666Y-85697380D01*
X122976190Y-84983095D01*
X122785714Y-85697380D01*
X122547619Y-84697380D01*
X122261904Y-84697380D02*
X121642857Y-84697380D01*
X121976190Y-85078333D01*
X121833333Y-85078333D01*
X121738095Y-85125952D01*
X121690476Y-85173571D01*
X121642857Y-85268809D01*
X121642857Y-85506904D01*
X121690476Y-85602142D01*
X121738095Y-85649761D01*
X121833333Y-85697380D01*
X122119047Y-85697380D01*
X122214285Y-85649761D01*
X122261904Y-85602142D01*
X121023809Y-84697380D02*
X120928571Y-84697380D01*
X120833333Y-84745000D01*
X120785714Y-84792619D01*
X120738095Y-84887857D01*
X120690476Y-85078333D01*
X120690476Y-85316428D01*
X120738095Y-85506904D01*
X120785714Y-85602142D01*
X120833333Y-85649761D01*
X120928571Y-85697380D01*
X121023809Y-85697380D01*
X121119047Y-85649761D01*
X121166666Y-85602142D01*
X121214285Y-85506904D01*
X121261904Y-85316428D01*
X121261904Y-85078333D01*
X121214285Y-84887857D01*
X121166666Y-84792619D01*
X121119047Y-84745000D01*
X121023809Y-84697380D01*
X124309523Y-68649761D02*
X124166666Y-68697380D01*
X123928571Y-68697380D01*
X123833333Y-68649761D01*
X123785714Y-68602142D01*
X123738095Y-68506904D01*
X123738095Y-68411666D01*
X123785714Y-68316428D01*
X123833333Y-68268809D01*
X123928571Y-68221190D01*
X124119047Y-68173571D01*
X124214285Y-68125952D01*
X124261904Y-68078333D01*
X124309523Y-67983095D01*
X124309523Y-67887857D01*
X124261904Y-67792619D01*
X124214285Y-67745000D01*
X124119047Y-67697380D01*
X123880952Y-67697380D01*
X123738095Y-67745000D01*
X123404761Y-67697380D02*
X123166666Y-68697380D01*
X122976190Y-67983095D01*
X122785714Y-68697380D01*
X122547619Y-67697380D01*
X122214285Y-67792619D02*
X122166666Y-67745000D01*
X122071428Y-67697380D01*
X121833333Y-67697380D01*
X121738095Y-67745000D01*
X121690476Y-67792619D01*
X121642857Y-67887857D01*
X121642857Y-67983095D01*
X121690476Y-68125952D01*
X122261904Y-68697380D01*
X121642857Y-68697380D01*
X121166666Y-68697380D02*
X120976190Y-68697380D01*
X120880952Y-68649761D01*
X120833333Y-68602142D01*
X120738095Y-68459285D01*
X120690476Y-68268809D01*
X120690476Y-67887857D01*
X120738095Y-67792619D01*
X120785714Y-67745000D01*
X120880952Y-67697380D01*
X121071428Y-67697380D01*
X121166666Y-67745000D01*
X121214285Y-67792619D01*
X121261904Y-67887857D01*
X121261904Y-68125952D01*
X121214285Y-68221190D01*
X121166666Y-68268809D01*
X121071428Y-68316428D01*
X120880952Y-68316428D01*
X120785714Y-68268809D01*
X120738095Y-68221190D01*
X120690476Y-68125952D01*
X124309523Y-51649761D02*
X124166666Y-51697380D01*
X123928571Y-51697380D01*
X123833333Y-51649761D01*
X123785714Y-51602142D01*
X123738095Y-51506904D01*
X123738095Y-51411666D01*
X123785714Y-51316428D01*
X123833333Y-51268809D01*
X123928571Y-51221190D01*
X124119047Y-51173571D01*
X124214285Y-51125952D01*
X124261904Y-51078333D01*
X124309523Y-50983095D01*
X124309523Y-50887857D01*
X124261904Y-50792619D01*
X124214285Y-50745000D01*
X124119047Y-50697380D01*
X123880952Y-50697380D01*
X123738095Y-50745000D01*
X123404761Y-50697380D02*
X123166666Y-51697380D01*
X122976190Y-50983095D01*
X122785714Y-51697380D01*
X122547619Y-50697380D01*
X122214285Y-50792619D02*
X122166666Y-50745000D01*
X122071428Y-50697380D01*
X121833333Y-50697380D01*
X121738095Y-50745000D01*
X121690476Y-50792619D01*
X121642857Y-50887857D01*
X121642857Y-50983095D01*
X121690476Y-51125952D01*
X122261904Y-51697380D01*
X121642857Y-51697380D01*
X121071428Y-51125952D02*
X121166666Y-51078333D01*
X121214285Y-51030714D01*
X121261904Y-50935476D01*
X121261904Y-50887857D01*
X121214285Y-50792619D01*
X121166666Y-50745000D01*
X121071428Y-50697380D01*
X120880952Y-50697380D01*
X120785714Y-50745000D01*
X120738095Y-50792619D01*
X120690476Y-50887857D01*
X120690476Y-50935476D01*
X120738095Y-51030714D01*
X120785714Y-51078333D01*
X120880952Y-51125952D01*
X121071428Y-51125952D01*
X121166666Y-51173571D01*
X121214285Y-51221190D01*
X121261904Y-51316428D01*
X121261904Y-51506904D01*
X121214285Y-51602142D01*
X121166666Y-51649761D01*
X121071428Y-51697380D01*
X120880952Y-51697380D01*
X120785714Y-51649761D01*
X120738095Y-51602142D01*
X120690476Y-51506904D01*
X120690476Y-51316428D01*
X120738095Y-51221190D01*
X120785714Y-51173571D01*
X120880952Y-51125952D01*
X124309523Y-34649761D02*
X124166666Y-34697380D01*
X123928571Y-34697380D01*
X123833333Y-34649761D01*
X123785714Y-34602142D01*
X123738095Y-34506904D01*
X123738095Y-34411666D01*
X123785714Y-34316428D01*
X123833333Y-34268809D01*
X123928571Y-34221190D01*
X124119047Y-34173571D01*
X124214285Y-34125952D01*
X124261904Y-34078333D01*
X124309523Y-33983095D01*
X124309523Y-33887857D01*
X124261904Y-33792619D01*
X124214285Y-33745000D01*
X124119047Y-33697380D01*
X123880952Y-33697380D01*
X123738095Y-33745000D01*
X123404761Y-33697380D02*
X123166666Y-34697380D01*
X122976190Y-33983095D01*
X122785714Y-34697380D01*
X122547619Y-33697380D01*
X122214285Y-33792619D02*
X122166666Y-33745000D01*
X122071428Y-33697380D01*
X121833333Y-33697380D01*
X121738095Y-33745000D01*
X121690476Y-33792619D01*
X121642857Y-33887857D01*
X121642857Y-33983095D01*
X121690476Y-34125952D01*
X122261904Y-34697380D01*
X121642857Y-34697380D01*
X121309523Y-33697380D02*
X120642857Y-33697380D01*
X121071428Y-34697380D01*
X140492212Y-118106255D02*
X140344685Y-118076066D01*
X140138488Y-117957019D01*
X140079819Y-117868160D01*
X140062389Y-117803111D01*
X140068769Y-117696823D01*
X140116388Y-117614345D01*
X140205246Y-117555676D01*
X140270295Y-117538246D01*
X140376583Y-117544626D01*
X140565350Y-117598624D01*
X140671638Y-117605004D01*
X140736687Y-117587574D01*
X140825545Y-117528905D01*
X140873165Y-117446427D01*
X140879544Y-117340138D01*
X140862114Y-117275090D01*
X140803445Y-117186231D01*
X140597249Y-117067184D01*
X140449721Y-117036994D01*
X140184856Y-116829088D02*
X139478659Y-117576066D01*
X139670845Y-116862239D01*
X139148745Y-117385590D01*
X139442548Y-116400517D01*
X139106254Y-116316329D02*
X139088824Y-116251280D01*
X139030155Y-116162422D01*
X138823959Y-116043374D01*
X138717671Y-116036994D01*
X138652622Y-116054424D01*
X138563763Y-116113093D01*
X138516144Y-116195572D01*
X138485955Y-116343099D01*
X138695112Y-117123685D01*
X138159002Y-116814161D01*
X137916694Y-115519565D02*
X138081651Y-115614803D01*
X138140320Y-115703661D01*
X138157750Y-115768710D01*
X138168800Y-115940047D01*
X138114801Y-116128814D01*
X137924325Y-116458728D01*
X137835467Y-116517397D01*
X137770418Y-116534827D01*
X137664130Y-116528447D01*
X137499173Y-116433209D01*
X137440504Y-116344351D01*
X137423074Y-116279302D01*
X137429454Y-116173014D01*
X137548501Y-115966817D01*
X137637360Y-115908148D01*
X137702408Y-115890718D01*
X137808696Y-115897098D01*
X137973654Y-115992336D01*
X138032323Y-116081195D01*
X138049753Y-116146243D01*
X138043373Y-116252532D01*
X106309523Y-83649761D02*
X106166666Y-83697380D01*
X105928571Y-83697380D01*
X105833333Y-83649761D01*
X105785714Y-83602142D01*
X105738095Y-83506904D01*
X105738095Y-83411666D01*
X105785714Y-83316428D01*
X105833333Y-83268809D01*
X105928571Y-83221190D01*
X106119047Y-83173571D01*
X106214285Y-83125952D01*
X106261904Y-83078333D01*
X106309523Y-82983095D01*
X106309523Y-82887857D01*
X106261904Y-82792619D01*
X106214285Y-82745000D01*
X106119047Y-82697380D01*
X105880952Y-82697380D01*
X105738095Y-82745000D01*
X105404761Y-82697380D02*
X105166666Y-83697380D01*
X104976190Y-82983095D01*
X104785714Y-83697380D01*
X104547619Y-82697380D01*
X104214285Y-82792619D02*
X104166666Y-82745000D01*
X104071428Y-82697380D01*
X103833333Y-82697380D01*
X103738095Y-82745000D01*
X103690476Y-82792619D01*
X103642857Y-82887857D01*
X103642857Y-82983095D01*
X103690476Y-83125952D01*
X104261904Y-83697380D01*
X103642857Y-83697380D01*
X102738095Y-82697380D02*
X103214285Y-82697380D01*
X103261904Y-83173571D01*
X103214285Y-83125952D01*
X103119047Y-83078333D01*
X102880952Y-83078333D01*
X102785714Y-83125952D01*
X102738095Y-83173571D01*
X102690476Y-83268809D01*
X102690476Y-83506904D01*
X102738095Y-83602142D01*
X102785714Y-83649761D01*
X102880952Y-83697380D01*
X103119047Y-83697380D01*
X103214285Y-83649761D01*
X103261904Y-83602142D01*
X106309523Y-66649761D02*
X106166666Y-66697380D01*
X105928571Y-66697380D01*
X105833333Y-66649761D01*
X105785714Y-66602142D01*
X105738095Y-66506904D01*
X105738095Y-66411666D01*
X105785714Y-66316428D01*
X105833333Y-66268809D01*
X105928571Y-66221190D01*
X106119047Y-66173571D01*
X106214285Y-66125952D01*
X106261904Y-66078333D01*
X106309523Y-65983095D01*
X106309523Y-65887857D01*
X106261904Y-65792619D01*
X106214285Y-65745000D01*
X106119047Y-65697380D01*
X105880952Y-65697380D01*
X105738095Y-65745000D01*
X105404761Y-65697380D02*
X105166666Y-66697380D01*
X104976190Y-65983095D01*
X104785714Y-66697380D01*
X104547619Y-65697380D01*
X104214285Y-65792619D02*
X104166666Y-65745000D01*
X104071428Y-65697380D01*
X103833333Y-65697380D01*
X103738095Y-65745000D01*
X103690476Y-65792619D01*
X103642857Y-65887857D01*
X103642857Y-65983095D01*
X103690476Y-66125952D01*
X104261904Y-66697380D01*
X103642857Y-66697380D01*
X102785714Y-66030714D02*
X102785714Y-66697380D01*
X103023809Y-65649761D02*
X103261904Y-66364047D01*
X102642857Y-66364047D01*
X106309523Y-49649761D02*
X106166666Y-49697380D01*
X105928571Y-49697380D01*
X105833333Y-49649761D01*
X105785714Y-49602142D01*
X105738095Y-49506904D01*
X105738095Y-49411666D01*
X105785714Y-49316428D01*
X105833333Y-49268809D01*
X105928571Y-49221190D01*
X106119047Y-49173571D01*
X106214285Y-49125952D01*
X106261904Y-49078333D01*
X106309523Y-48983095D01*
X106309523Y-48887857D01*
X106261904Y-48792619D01*
X106214285Y-48745000D01*
X106119047Y-48697380D01*
X105880952Y-48697380D01*
X105738095Y-48745000D01*
X105404761Y-48697380D02*
X105166666Y-49697380D01*
X104976190Y-48983095D01*
X104785714Y-49697380D01*
X104547619Y-48697380D01*
X104214285Y-48792619D02*
X104166666Y-48745000D01*
X104071428Y-48697380D01*
X103833333Y-48697380D01*
X103738095Y-48745000D01*
X103690476Y-48792619D01*
X103642857Y-48887857D01*
X103642857Y-48983095D01*
X103690476Y-49125952D01*
X104261904Y-49697380D01*
X103642857Y-49697380D01*
X103309523Y-48697380D02*
X102690476Y-48697380D01*
X103023809Y-49078333D01*
X102880952Y-49078333D01*
X102785714Y-49125952D01*
X102738095Y-49173571D01*
X102690476Y-49268809D01*
X102690476Y-49506904D01*
X102738095Y-49602142D01*
X102785714Y-49649761D01*
X102880952Y-49697380D01*
X103166666Y-49697380D01*
X103261904Y-49649761D01*
X103309523Y-49602142D01*
X106309523Y-32649761D02*
X106166666Y-32697380D01*
X105928571Y-32697380D01*
X105833333Y-32649761D01*
X105785714Y-32602142D01*
X105738095Y-32506904D01*
X105738095Y-32411666D01*
X105785714Y-32316428D01*
X105833333Y-32268809D01*
X105928571Y-32221190D01*
X106119047Y-32173571D01*
X106214285Y-32125952D01*
X106261904Y-32078333D01*
X106309523Y-31983095D01*
X106309523Y-31887857D01*
X106261904Y-31792619D01*
X106214285Y-31745000D01*
X106119047Y-31697380D01*
X105880952Y-31697380D01*
X105738095Y-31745000D01*
X105404761Y-31697380D02*
X105166666Y-32697380D01*
X104976190Y-31983095D01*
X104785714Y-32697380D01*
X104547619Y-31697380D01*
X104214285Y-31792619D02*
X104166666Y-31745000D01*
X104071428Y-31697380D01*
X103833333Y-31697380D01*
X103738095Y-31745000D01*
X103690476Y-31792619D01*
X103642857Y-31887857D01*
X103642857Y-31983095D01*
X103690476Y-32125952D01*
X104261904Y-32697380D01*
X103642857Y-32697380D01*
X103261904Y-31792619D02*
X103214285Y-31745000D01*
X103119047Y-31697380D01*
X102880952Y-31697380D01*
X102785714Y-31745000D01*
X102738095Y-31792619D01*
X102690476Y-31887857D01*
X102690476Y-31983095D01*
X102738095Y-32125952D01*
X103309523Y-32697380D01*
X102690476Y-32697380D01*
X115429656Y-107185591D02*
X115279342Y-107194613D01*
X115049360Y-107132989D01*
X114969692Y-107062344D01*
X114936020Y-107004022D01*
X114914673Y-106899705D01*
X114939322Y-106807712D01*
X115009968Y-106728044D01*
X115068289Y-106694372D01*
X115172607Y-106673025D01*
X115368917Y-106676327D01*
X115473235Y-106654980D01*
X115531556Y-106621308D01*
X115602202Y-106541640D01*
X115626852Y-106449647D01*
X115605505Y-106345330D01*
X115571833Y-106287008D01*
X115492165Y-106216362D01*
X115262182Y-106154739D01*
X115111868Y-106163761D01*
X114802218Y-106031492D02*
X114313416Y-106935794D01*
X114314301Y-106196548D01*
X113945445Y-106837196D01*
X113974281Y-105809647D01*
X113627656Y-105815367D02*
X113593985Y-105757046D01*
X113514317Y-105686400D01*
X113284334Y-105624776D01*
X113180017Y-105646123D01*
X113121695Y-105679795D01*
X113051049Y-105759463D01*
X113026400Y-105851456D01*
X113035422Y-106001770D01*
X113439483Y-106701624D01*
X112841529Y-106541403D01*
X111921600Y-106294909D02*
X112473558Y-106442805D01*
X112197579Y-106368857D02*
X112456398Y-105402931D01*
X112511417Y-105565570D01*
X112578760Y-105682212D01*
X112658428Y-105752858D01*
X88309523Y-76649761D02*
X88166666Y-76697380D01*
X87928571Y-76697380D01*
X87833333Y-76649761D01*
X87785714Y-76602142D01*
X87738095Y-76506904D01*
X87738095Y-76411666D01*
X87785714Y-76316428D01*
X87833333Y-76268809D01*
X87928571Y-76221190D01*
X88119047Y-76173571D01*
X88214285Y-76125952D01*
X88261904Y-76078333D01*
X88309523Y-75983095D01*
X88309523Y-75887857D01*
X88261904Y-75792619D01*
X88214285Y-75745000D01*
X88119047Y-75697380D01*
X87880952Y-75697380D01*
X87738095Y-75745000D01*
X87404761Y-75697380D02*
X87166666Y-76697380D01*
X86976190Y-75983095D01*
X86785714Y-76697380D01*
X86547619Y-75697380D01*
X86214285Y-75792619D02*
X86166666Y-75745000D01*
X86071428Y-75697380D01*
X85833333Y-75697380D01*
X85738095Y-75745000D01*
X85690476Y-75792619D01*
X85642857Y-75887857D01*
X85642857Y-75983095D01*
X85690476Y-76125952D01*
X86261904Y-76697380D01*
X85642857Y-76697380D01*
X85023809Y-75697380D02*
X84928571Y-75697380D01*
X84833333Y-75745000D01*
X84785714Y-75792619D01*
X84738095Y-75887857D01*
X84690476Y-76078333D01*
X84690476Y-76316428D01*
X84738095Y-76506904D01*
X84785714Y-76602142D01*
X84833333Y-76649761D01*
X84928571Y-76697380D01*
X85023809Y-76697380D01*
X85119047Y-76649761D01*
X85166666Y-76602142D01*
X85214285Y-76506904D01*
X85261904Y-76316428D01*
X85261904Y-76078333D01*
X85214285Y-75887857D01*
X85166666Y-75792619D01*
X85119047Y-75745000D01*
X85023809Y-75697380D01*
X88309523Y-59649761D02*
X88166666Y-59697380D01*
X87928571Y-59697380D01*
X87833333Y-59649761D01*
X87785714Y-59602142D01*
X87738095Y-59506904D01*
X87738095Y-59411666D01*
X87785714Y-59316428D01*
X87833333Y-59268809D01*
X87928571Y-59221190D01*
X88119047Y-59173571D01*
X88214285Y-59125952D01*
X88261904Y-59078333D01*
X88309523Y-58983095D01*
X88309523Y-58887857D01*
X88261904Y-58792619D01*
X88214285Y-58745000D01*
X88119047Y-58697380D01*
X87880952Y-58697380D01*
X87738095Y-58745000D01*
X87404761Y-58697380D02*
X87166666Y-59697380D01*
X86976190Y-58983095D01*
X86785714Y-59697380D01*
X86547619Y-58697380D01*
X85642857Y-59697380D02*
X86214285Y-59697380D01*
X85928571Y-59697380D02*
X85928571Y-58697380D01*
X86023809Y-58840238D01*
X86119047Y-58935476D01*
X86214285Y-58983095D01*
X85166666Y-59697380D02*
X84976190Y-59697380D01*
X84880952Y-59649761D01*
X84833333Y-59602142D01*
X84738095Y-59459285D01*
X84690476Y-59268809D01*
X84690476Y-58887857D01*
X84738095Y-58792619D01*
X84785714Y-58745000D01*
X84880952Y-58697380D01*
X85071428Y-58697380D01*
X85166666Y-58745000D01*
X85214285Y-58792619D01*
X85261904Y-58887857D01*
X85261904Y-59125952D01*
X85214285Y-59221190D01*
X85166666Y-59268809D01*
X85071428Y-59316428D01*
X84880952Y-59316428D01*
X84785714Y-59268809D01*
X84738095Y-59221190D01*
X84690476Y-59125952D01*
X88309523Y-42649761D02*
X88166666Y-42697380D01*
X87928571Y-42697380D01*
X87833333Y-42649761D01*
X87785714Y-42602142D01*
X87738095Y-42506904D01*
X87738095Y-42411666D01*
X87785714Y-42316428D01*
X87833333Y-42268809D01*
X87928571Y-42221190D01*
X88119047Y-42173571D01*
X88214285Y-42125952D01*
X88261904Y-42078333D01*
X88309523Y-41983095D01*
X88309523Y-41887857D01*
X88261904Y-41792619D01*
X88214285Y-41745000D01*
X88119047Y-41697380D01*
X87880952Y-41697380D01*
X87738095Y-41745000D01*
X87404761Y-41697380D02*
X87166666Y-42697380D01*
X86976190Y-41983095D01*
X86785714Y-42697380D01*
X86547619Y-41697380D01*
X85642857Y-42697380D02*
X86214285Y-42697380D01*
X85928571Y-42697380D02*
X85928571Y-41697380D01*
X86023809Y-41840238D01*
X86119047Y-41935476D01*
X86214285Y-41983095D01*
X85071428Y-42125952D02*
X85166666Y-42078333D01*
X85214285Y-42030714D01*
X85261904Y-41935476D01*
X85261904Y-41887857D01*
X85214285Y-41792619D01*
X85166666Y-41745000D01*
X85071428Y-41697380D01*
X84880952Y-41697380D01*
X84785714Y-41745000D01*
X84738095Y-41792619D01*
X84690476Y-41887857D01*
X84690476Y-41935476D01*
X84738095Y-42030714D01*
X84785714Y-42078333D01*
X84880952Y-42125952D01*
X85071428Y-42125952D01*
X85166666Y-42173571D01*
X85214285Y-42221190D01*
X85261904Y-42316428D01*
X85261904Y-42506904D01*
X85214285Y-42602142D01*
X85166666Y-42649761D01*
X85071428Y-42697380D01*
X84880952Y-42697380D01*
X84785714Y-42649761D01*
X84738095Y-42602142D01*
X84690476Y-42506904D01*
X84690476Y-42316428D01*
X84738095Y-42221190D01*
X84785714Y-42173571D01*
X84880952Y-42125952D01*
X88309523Y-25649761D02*
X88166666Y-25697380D01*
X87928571Y-25697380D01*
X87833333Y-25649761D01*
X87785714Y-25602142D01*
X87738095Y-25506904D01*
X87738095Y-25411666D01*
X87785714Y-25316428D01*
X87833333Y-25268809D01*
X87928571Y-25221190D01*
X88119047Y-25173571D01*
X88214285Y-25125952D01*
X88261904Y-25078333D01*
X88309523Y-24983095D01*
X88309523Y-24887857D01*
X88261904Y-24792619D01*
X88214285Y-24745000D01*
X88119047Y-24697380D01*
X87880952Y-24697380D01*
X87738095Y-24745000D01*
X87404761Y-24697380D02*
X87166666Y-25697380D01*
X86976190Y-24983095D01*
X86785714Y-25697380D01*
X86547619Y-24697380D01*
X85642857Y-25697380D02*
X86214285Y-25697380D01*
X85928571Y-25697380D02*
X85928571Y-24697380D01*
X86023809Y-24840238D01*
X86119047Y-24935476D01*
X86214285Y-24983095D01*
X85309523Y-24697380D02*
X84642857Y-24697380D01*
X85071428Y-25697380D01*
X88309523Y-103149761D02*
X88166666Y-103197380D01*
X87928571Y-103197380D01*
X87833333Y-103149761D01*
X87785714Y-103102142D01*
X87738095Y-103006904D01*
X87738095Y-102911666D01*
X87785714Y-102816428D01*
X87833333Y-102768809D01*
X87928571Y-102721190D01*
X88119047Y-102673571D01*
X88214285Y-102625952D01*
X88261904Y-102578333D01*
X88309523Y-102483095D01*
X88309523Y-102387857D01*
X88261904Y-102292619D01*
X88214285Y-102245000D01*
X88119047Y-102197380D01*
X87880952Y-102197380D01*
X87738095Y-102245000D01*
X87404761Y-102197380D02*
X87166666Y-103197380D01*
X86976190Y-102483095D01*
X86785714Y-103197380D01*
X86547619Y-102197380D01*
X85642857Y-103197380D02*
X86214285Y-103197380D01*
X85928571Y-103197380D02*
X85928571Y-102197380D01*
X86023809Y-102340238D01*
X86119047Y-102435476D01*
X86214285Y-102483095D01*
X84785714Y-102197380D02*
X84976190Y-102197380D01*
X85071428Y-102245000D01*
X85119047Y-102292619D01*
X85214285Y-102435476D01*
X85261904Y-102625952D01*
X85261904Y-103006904D01*
X85214285Y-103102142D01*
X85166666Y-103149761D01*
X85071428Y-103197380D01*
X84880952Y-103197380D01*
X84785714Y-103149761D01*
X84738095Y-103102142D01*
X84690476Y-103006904D01*
X84690476Y-102768809D01*
X84738095Y-102673571D01*
X84785714Y-102625952D01*
X84880952Y-102578333D01*
X85071428Y-102578333D01*
X85166666Y-102625952D01*
X85214285Y-102673571D01*
X85261904Y-102768809D01*
X70309523Y-83649761D02*
X70166666Y-83697380D01*
X69928571Y-83697380D01*
X69833333Y-83649761D01*
X69785714Y-83602142D01*
X69738095Y-83506904D01*
X69738095Y-83411666D01*
X69785714Y-83316428D01*
X69833333Y-83268809D01*
X69928571Y-83221190D01*
X70119047Y-83173571D01*
X70214285Y-83125952D01*
X70261904Y-83078333D01*
X70309523Y-82983095D01*
X70309523Y-82887857D01*
X70261904Y-82792619D01*
X70214285Y-82745000D01*
X70119047Y-82697380D01*
X69880952Y-82697380D01*
X69738095Y-82745000D01*
X69404761Y-82697380D02*
X69166666Y-83697380D01*
X68976190Y-82983095D01*
X68785714Y-83697380D01*
X68547619Y-82697380D01*
X67642857Y-83697380D02*
X68214285Y-83697380D01*
X67928571Y-83697380D02*
X67928571Y-82697380D01*
X68023809Y-82840238D01*
X68119047Y-82935476D01*
X68214285Y-82983095D01*
X66738095Y-82697380D02*
X67214285Y-82697380D01*
X67261904Y-83173571D01*
X67214285Y-83125952D01*
X67119047Y-83078333D01*
X66880952Y-83078333D01*
X66785714Y-83125952D01*
X66738095Y-83173571D01*
X66690476Y-83268809D01*
X66690476Y-83506904D01*
X66738095Y-83602142D01*
X66785714Y-83649761D01*
X66880952Y-83697380D01*
X67119047Y-83697380D01*
X67214285Y-83649761D01*
X67261904Y-83602142D01*
X70309523Y-66649761D02*
X70166666Y-66697380D01*
X69928571Y-66697380D01*
X69833333Y-66649761D01*
X69785714Y-66602142D01*
X69738095Y-66506904D01*
X69738095Y-66411666D01*
X69785714Y-66316428D01*
X69833333Y-66268809D01*
X69928571Y-66221190D01*
X70119047Y-66173571D01*
X70214285Y-66125952D01*
X70261904Y-66078333D01*
X70309523Y-65983095D01*
X70309523Y-65887857D01*
X70261904Y-65792619D01*
X70214285Y-65745000D01*
X70119047Y-65697380D01*
X69880952Y-65697380D01*
X69738095Y-65745000D01*
X69404761Y-65697380D02*
X69166666Y-66697380D01*
X68976190Y-65983095D01*
X68785714Y-66697380D01*
X68547619Y-65697380D01*
X67642857Y-66697380D02*
X68214285Y-66697380D01*
X67928571Y-66697380D02*
X67928571Y-65697380D01*
X68023809Y-65840238D01*
X68119047Y-65935476D01*
X68214285Y-65983095D01*
X66785714Y-66030714D02*
X66785714Y-66697380D01*
X67023809Y-65649761D02*
X67261904Y-66364047D01*
X66642857Y-66364047D01*
X70309523Y-49649761D02*
X70166666Y-49697380D01*
X69928571Y-49697380D01*
X69833333Y-49649761D01*
X69785714Y-49602142D01*
X69738095Y-49506904D01*
X69738095Y-49411666D01*
X69785714Y-49316428D01*
X69833333Y-49268809D01*
X69928571Y-49221190D01*
X70119047Y-49173571D01*
X70214285Y-49125952D01*
X70261904Y-49078333D01*
X70309523Y-48983095D01*
X70309523Y-48887857D01*
X70261904Y-48792619D01*
X70214285Y-48745000D01*
X70119047Y-48697380D01*
X69880952Y-48697380D01*
X69738095Y-48745000D01*
X69404761Y-48697380D02*
X69166666Y-49697380D01*
X68976190Y-48983095D01*
X68785714Y-49697380D01*
X68547619Y-48697380D01*
X67642857Y-49697380D02*
X68214285Y-49697380D01*
X67928571Y-49697380D02*
X67928571Y-48697380D01*
X68023809Y-48840238D01*
X68119047Y-48935476D01*
X68214285Y-48983095D01*
X67309523Y-48697380D02*
X66690476Y-48697380D01*
X67023809Y-49078333D01*
X66880952Y-49078333D01*
X66785714Y-49125952D01*
X66738095Y-49173571D01*
X66690476Y-49268809D01*
X66690476Y-49506904D01*
X66738095Y-49602142D01*
X66785714Y-49649761D01*
X66880952Y-49697380D01*
X67166666Y-49697380D01*
X67261904Y-49649761D01*
X67309523Y-49602142D01*
X70309523Y-32649761D02*
X70166666Y-32697380D01*
X69928571Y-32697380D01*
X69833333Y-32649761D01*
X69785714Y-32602142D01*
X69738095Y-32506904D01*
X69738095Y-32411666D01*
X69785714Y-32316428D01*
X69833333Y-32268809D01*
X69928571Y-32221190D01*
X70119047Y-32173571D01*
X70214285Y-32125952D01*
X70261904Y-32078333D01*
X70309523Y-31983095D01*
X70309523Y-31887857D01*
X70261904Y-31792619D01*
X70214285Y-31745000D01*
X70119047Y-31697380D01*
X69880952Y-31697380D01*
X69738095Y-31745000D01*
X69404761Y-31697380D02*
X69166666Y-32697380D01*
X68976190Y-31983095D01*
X68785714Y-32697380D01*
X68547619Y-31697380D01*
X67642857Y-32697380D02*
X68214285Y-32697380D01*
X67928571Y-32697380D02*
X67928571Y-31697380D01*
X68023809Y-31840238D01*
X68119047Y-31935476D01*
X68214285Y-31983095D01*
X67261904Y-31792619D02*
X67214285Y-31745000D01*
X67119047Y-31697380D01*
X66880952Y-31697380D01*
X66785714Y-31745000D01*
X66738095Y-31792619D01*
X66690476Y-31887857D01*
X66690476Y-31983095D01*
X66738095Y-32125952D01*
X67309523Y-32697380D01*
X66690476Y-32697380D01*
X70309523Y-111649761D02*
X70166666Y-111697380D01*
X69928571Y-111697380D01*
X69833333Y-111649761D01*
X69785714Y-111602142D01*
X69738095Y-111506904D01*
X69738095Y-111411666D01*
X69785714Y-111316428D01*
X69833333Y-111268809D01*
X69928571Y-111221190D01*
X70119047Y-111173571D01*
X70214285Y-111125952D01*
X70261904Y-111078333D01*
X70309523Y-110983095D01*
X70309523Y-110887857D01*
X70261904Y-110792619D01*
X70214285Y-110745000D01*
X70119047Y-110697380D01*
X69880952Y-110697380D01*
X69738095Y-110745000D01*
X69404761Y-110697380D02*
X69166666Y-111697380D01*
X68976190Y-110983095D01*
X68785714Y-111697380D01*
X68547619Y-110697380D01*
X67642857Y-111697380D02*
X68214285Y-111697380D01*
X67928571Y-111697380D02*
X67928571Y-110697380D01*
X68023809Y-110840238D01*
X68119047Y-110935476D01*
X68214285Y-110983095D01*
X66690476Y-111697380D02*
X67261904Y-111697380D01*
X66976190Y-111697380D02*
X66976190Y-110697380D01*
X67071428Y-110840238D01*
X67166666Y-110935476D01*
X67261904Y-110983095D01*
X52309523Y-111649761D02*
X52166666Y-111697380D01*
X51928571Y-111697380D01*
X51833333Y-111649761D01*
X51785714Y-111602142D01*
X51738095Y-111506904D01*
X51738095Y-111411666D01*
X51785714Y-111316428D01*
X51833333Y-111268809D01*
X51928571Y-111221190D01*
X52119047Y-111173571D01*
X52214285Y-111125952D01*
X52261904Y-111078333D01*
X52309523Y-110983095D01*
X52309523Y-110887857D01*
X52261904Y-110792619D01*
X52214285Y-110745000D01*
X52119047Y-110697380D01*
X51880952Y-110697380D01*
X51738095Y-110745000D01*
X51404761Y-110697380D02*
X51166666Y-111697380D01*
X50976190Y-110983095D01*
X50785714Y-111697380D01*
X50547619Y-110697380D01*
X49642857Y-111697380D02*
X50214285Y-111697380D01*
X49928571Y-111697380D02*
X49928571Y-110697380D01*
X50023809Y-110840238D01*
X50119047Y-110935476D01*
X50214285Y-110983095D01*
X49023809Y-110697380D02*
X48928571Y-110697380D01*
X48833333Y-110745000D01*
X48785714Y-110792619D01*
X48738095Y-110887857D01*
X48690476Y-111078333D01*
X48690476Y-111316428D01*
X48738095Y-111506904D01*
X48785714Y-111602142D01*
X48833333Y-111649761D01*
X48928571Y-111697380D01*
X49023809Y-111697380D01*
X49119047Y-111649761D01*
X49166666Y-111602142D01*
X49214285Y-111506904D01*
X49261904Y-111316428D01*
X49261904Y-111078333D01*
X49214285Y-110887857D01*
X49166666Y-110792619D01*
X49119047Y-110745000D01*
X49023809Y-110697380D01*
X51833333Y-94649761D02*
X51690476Y-94697380D01*
X51452380Y-94697380D01*
X51357142Y-94649761D01*
X51309523Y-94602142D01*
X51261904Y-94506904D01*
X51261904Y-94411666D01*
X51309523Y-94316428D01*
X51357142Y-94268809D01*
X51452380Y-94221190D01*
X51642857Y-94173571D01*
X51738095Y-94125952D01*
X51785714Y-94078333D01*
X51833333Y-93983095D01*
X51833333Y-93887857D01*
X51785714Y-93792619D01*
X51738095Y-93745000D01*
X51642857Y-93697380D01*
X51404761Y-93697380D01*
X51261904Y-93745000D01*
X50928571Y-93697380D02*
X50690476Y-94697380D01*
X50500000Y-93983095D01*
X50309523Y-94697380D01*
X50071428Y-93697380D01*
X49642857Y-94697380D02*
X49452380Y-94697380D01*
X49357142Y-94649761D01*
X49309523Y-94602142D01*
X49214285Y-94459285D01*
X49166666Y-94268809D01*
X49166666Y-93887857D01*
X49214285Y-93792619D01*
X49261904Y-93745000D01*
X49357142Y-93697380D01*
X49547619Y-93697380D01*
X49642857Y-93745000D01*
X49690476Y-93792619D01*
X49738095Y-93887857D01*
X49738095Y-94125952D01*
X49690476Y-94221190D01*
X49642857Y-94268809D01*
X49547619Y-94316428D01*
X49357142Y-94316428D01*
X49261904Y-94268809D01*
X49214285Y-94221190D01*
X49166666Y-94125952D01*
X51833333Y-77649761D02*
X51690476Y-77697380D01*
X51452380Y-77697380D01*
X51357142Y-77649761D01*
X51309523Y-77602142D01*
X51261904Y-77506904D01*
X51261904Y-77411666D01*
X51309523Y-77316428D01*
X51357142Y-77268809D01*
X51452380Y-77221190D01*
X51642857Y-77173571D01*
X51738095Y-77125952D01*
X51785714Y-77078333D01*
X51833333Y-76983095D01*
X51833333Y-76887857D01*
X51785714Y-76792619D01*
X51738095Y-76745000D01*
X51642857Y-76697380D01*
X51404761Y-76697380D01*
X51261904Y-76745000D01*
X50928571Y-76697380D02*
X50690476Y-77697380D01*
X50500000Y-76983095D01*
X50309523Y-77697380D01*
X50071428Y-76697380D01*
X49547619Y-77125952D02*
X49642857Y-77078333D01*
X49690476Y-77030714D01*
X49738095Y-76935476D01*
X49738095Y-76887857D01*
X49690476Y-76792619D01*
X49642857Y-76745000D01*
X49547619Y-76697380D01*
X49357142Y-76697380D01*
X49261904Y-76745000D01*
X49214285Y-76792619D01*
X49166666Y-76887857D01*
X49166666Y-76935476D01*
X49214285Y-77030714D01*
X49261904Y-77078333D01*
X49357142Y-77125952D01*
X49547619Y-77125952D01*
X49642857Y-77173571D01*
X49690476Y-77221190D01*
X49738095Y-77316428D01*
X49738095Y-77506904D01*
X49690476Y-77602142D01*
X49642857Y-77649761D01*
X49547619Y-77697380D01*
X49357142Y-77697380D01*
X49261904Y-77649761D01*
X49214285Y-77602142D01*
X49166666Y-77506904D01*
X49166666Y-77316428D01*
X49214285Y-77221190D01*
X49261904Y-77173571D01*
X49357142Y-77125952D01*
X51833333Y-60649761D02*
X51690476Y-60697380D01*
X51452380Y-60697380D01*
X51357142Y-60649761D01*
X51309523Y-60602142D01*
X51261904Y-60506904D01*
X51261904Y-60411666D01*
X51309523Y-60316428D01*
X51357142Y-60268809D01*
X51452380Y-60221190D01*
X51642857Y-60173571D01*
X51738095Y-60125952D01*
X51785714Y-60078333D01*
X51833333Y-59983095D01*
X51833333Y-59887857D01*
X51785714Y-59792619D01*
X51738095Y-59745000D01*
X51642857Y-59697380D01*
X51404761Y-59697380D01*
X51261904Y-59745000D01*
X50928571Y-59697380D02*
X50690476Y-60697380D01*
X50500000Y-59983095D01*
X50309523Y-60697380D01*
X50071428Y-59697380D01*
X49785714Y-59697380D02*
X49119047Y-59697380D01*
X49547619Y-60697380D01*
X51833333Y-43649761D02*
X51690476Y-43697380D01*
X51452380Y-43697380D01*
X51357142Y-43649761D01*
X51309523Y-43602142D01*
X51261904Y-43506904D01*
X51261904Y-43411666D01*
X51309523Y-43316428D01*
X51357142Y-43268809D01*
X51452380Y-43221190D01*
X51642857Y-43173571D01*
X51738095Y-43125952D01*
X51785714Y-43078333D01*
X51833333Y-42983095D01*
X51833333Y-42887857D01*
X51785714Y-42792619D01*
X51738095Y-42745000D01*
X51642857Y-42697380D01*
X51404761Y-42697380D01*
X51261904Y-42745000D01*
X50928571Y-42697380D02*
X50690476Y-43697380D01*
X50500000Y-42983095D01*
X50309523Y-43697380D01*
X50071428Y-42697380D01*
X49261904Y-42697380D02*
X49452380Y-42697380D01*
X49547619Y-42745000D01*
X49595238Y-42792619D01*
X49690476Y-42935476D01*
X49738095Y-43125952D01*
X49738095Y-43506904D01*
X49690476Y-43602142D01*
X49642857Y-43649761D01*
X49547619Y-43697380D01*
X49357142Y-43697380D01*
X49261904Y-43649761D01*
X49214285Y-43602142D01*
X49166666Y-43506904D01*
X49166666Y-43268809D01*
X49214285Y-43173571D01*
X49261904Y-43125952D01*
X49357142Y-43078333D01*
X49547619Y-43078333D01*
X49642857Y-43125952D01*
X49690476Y-43173571D01*
X49738095Y-43268809D01*
X33833333Y-111649761D02*
X33690476Y-111697380D01*
X33452380Y-111697380D01*
X33357142Y-111649761D01*
X33309523Y-111602142D01*
X33261904Y-111506904D01*
X33261904Y-111411666D01*
X33309523Y-111316428D01*
X33357142Y-111268809D01*
X33452380Y-111221190D01*
X33642857Y-111173571D01*
X33738095Y-111125952D01*
X33785714Y-111078333D01*
X33833333Y-110983095D01*
X33833333Y-110887857D01*
X33785714Y-110792619D01*
X33738095Y-110745000D01*
X33642857Y-110697380D01*
X33404761Y-110697380D01*
X33261904Y-110745000D01*
X32928571Y-110697380D02*
X32690476Y-111697380D01*
X32500000Y-110983095D01*
X32309523Y-111697380D01*
X32071428Y-110697380D01*
X31214285Y-110697380D02*
X31690476Y-110697380D01*
X31738095Y-111173571D01*
X31690476Y-111125952D01*
X31595238Y-111078333D01*
X31357142Y-111078333D01*
X31261904Y-111125952D01*
X31214285Y-111173571D01*
X31166666Y-111268809D01*
X31166666Y-111506904D01*
X31214285Y-111602142D01*
X31261904Y-111649761D01*
X31357142Y-111697380D01*
X31595238Y-111697380D01*
X31690476Y-111649761D01*
X31738095Y-111602142D01*
X33833333Y-94649761D02*
X33690476Y-94697380D01*
X33452380Y-94697380D01*
X33357142Y-94649761D01*
X33309523Y-94602142D01*
X33261904Y-94506904D01*
X33261904Y-94411666D01*
X33309523Y-94316428D01*
X33357142Y-94268809D01*
X33452380Y-94221190D01*
X33642857Y-94173571D01*
X33738095Y-94125952D01*
X33785714Y-94078333D01*
X33833333Y-93983095D01*
X33833333Y-93887857D01*
X33785714Y-93792619D01*
X33738095Y-93745000D01*
X33642857Y-93697380D01*
X33404761Y-93697380D01*
X33261904Y-93745000D01*
X32928571Y-93697380D02*
X32690476Y-94697380D01*
X32500000Y-93983095D01*
X32309523Y-94697380D01*
X32071428Y-93697380D01*
X31261904Y-94030714D02*
X31261904Y-94697380D01*
X31500000Y-93649761D02*
X31738095Y-94364047D01*
X31119047Y-94364047D01*
X33833333Y-77649761D02*
X33690476Y-77697380D01*
X33452380Y-77697380D01*
X33357142Y-77649761D01*
X33309523Y-77602142D01*
X33261904Y-77506904D01*
X33261904Y-77411666D01*
X33309523Y-77316428D01*
X33357142Y-77268809D01*
X33452380Y-77221190D01*
X33642857Y-77173571D01*
X33738095Y-77125952D01*
X33785714Y-77078333D01*
X33833333Y-76983095D01*
X33833333Y-76887857D01*
X33785714Y-76792619D01*
X33738095Y-76745000D01*
X33642857Y-76697380D01*
X33404761Y-76697380D01*
X33261904Y-76745000D01*
X32928571Y-76697380D02*
X32690476Y-77697380D01*
X32500000Y-76983095D01*
X32309523Y-77697380D01*
X32071428Y-76697380D01*
X31785714Y-76697380D02*
X31166666Y-76697380D01*
X31500000Y-77078333D01*
X31357142Y-77078333D01*
X31261904Y-77125952D01*
X31214285Y-77173571D01*
X31166666Y-77268809D01*
X31166666Y-77506904D01*
X31214285Y-77602142D01*
X31261904Y-77649761D01*
X31357142Y-77697380D01*
X31642857Y-77697380D01*
X31738095Y-77649761D01*
X31785714Y-77602142D01*
X33833333Y-60649761D02*
X33690476Y-60697380D01*
X33452380Y-60697380D01*
X33357142Y-60649761D01*
X33309523Y-60602142D01*
X33261904Y-60506904D01*
X33261904Y-60411666D01*
X33309523Y-60316428D01*
X33357142Y-60268809D01*
X33452380Y-60221190D01*
X33642857Y-60173571D01*
X33738095Y-60125952D01*
X33785714Y-60078333D01*
X33833333Y-59983095D01*
X33833333Y-59887857D01*
X33785714Y-59792619D01*
X33738095Y-59745000D01*
X33642857Y-59697380D01*
X33404761Y-59697380D01*
X33261904Y-59745000D01*
X32928571Y-59697380D02*
X32690476Y-60697380D01*
X32500000Y-59983095D01*
X32309523Y-60697380D01*
X32071428Y-59697380D01*
X31738095Y-59792619D02*
X31690476Y-59745000D01*
X31595238Y-59697380D01*
X31357142Y-59697380D01*
X31261904Y-59745000D01*
X31214285Y-59792619D01*
X31166666Y-59887857D01*
X31166666Y-59983095D01*
X31214285Y-60125952D01*
X31785714Y-60697380D01*
X31166666Y-60697380D01*
X33833333Y-43649761D02*
X33690476Y-43697380D01*
X33452380Y-43697380D01*
X33357142Y-43649761D01*
X33309523Y-43602142D01*
X33261904Y-43506904D01*
X33261904Y-43411666D01*
X33309523Y-43316428D01*
X33357142Y-43268809D01*
X33452380Y-43221190D01*
X33642857Y-43173571D01*
X33738095Y-43125952D01*
X33785714Y-43078333D01*
X33833333Y-42983095D01*
X33833333Y-42887857D01*
X33785714Y-42792619D01*
X33738095Y-42745000D01*
X33642857Y-42697380D01*
X33404761Y-42697380D01*
X33261904Y-42745000D01*
X32928571Y-42697380D02*
X32690476Y-43697380D01*
X32500000Y-42983095D01*
X32309523Y-43697380D01*
X32071428Y-42697380D01*
X31166666Y-43697380D02*
X31738095Y-43697380D01*
X31452380Y-43697380D02*
X31452380Y-42697380D01*
X31547619Y-42840238D01*
X31642857Y-42935476D01*
X31738095Y-42983095D01*
%LPC*%
D12*
X136540000Y-92790000D03*
X134000000Y-92790000D03*
X136540000Y-90250000D03*
D13*
X134000000Y-90250000D03*
D12*
X147820000Y-86750000D03*
X145280000Y-86750000D03*
X142740000Y-86750000D03*
D13*
X140200000Y-86750000D03*
D14*
X146540000Y-83300000D03*
X144000000Y-83300000D03*
X141460000Y-83300000D03*
D15*
X153790000Y-82630000D03*
X153790000Y-80090000D03*
X153790000Y-77550000D03*
X153790000Y-75010000D03*
X153790000Y-72470000D03*
X153790000Y-69930000D03*
X153790000Y-67390000D03*
X153790000Y-64850000D03*
X153790000Y-62310000D03*
X153790000Y-59770000D03*
X153790000Y-57230000D03*
X153790000Y-54690000D03*
X153790000Y-52150000D03*
X153790000Y-49610000D03*
X153790000Y-47070000D03*
X153790000Y-44530000D03*
X153790000Y-41990000D03*
X153790000Y-39450000D03*
X153790000Y-36910000D03*
X153790000Y-34370000D03*
X134210000Y-82630000D03*
X134210000Y-80090000D03*
X134210000Y-77550000D03*
X134210000Y-75010000D03*
X134210000Y-72470000D03*
X134210000Y-69930000D03*
X134210000Y-67390000D03*
X134210000Y-64850000D03*
X134210000Y-62310000D03*
X134210000Y-59770000D03*
X134210000Y-57230000D03*
X134210000Y-54690000D03*
X134210000Y-52150000D03*
X134210000Y-49610000D03*
X134210000Y-47070000D03*
X134210000Y-44530000D03*
X134210000Y-41990000D03*
X134210000Y-39450000D03*
X134210000Y-36910000D03*
X134210000Y-34370000D03*
D12*
X146540000Y-82400000D03*
D13*
X144000000Y-82400000D03*
D12*
X141460000Y-82400000D03*
D16*
X146425000Y-37530000D03*
X141575000Y-37530000D03*
D17*
X146725000Y-34500000D03*
X141275000Y-34500000D03*
D12*
X152890000Y-34370000D03*
X152890000Y-36910000D03*
D13*
X152890000Y-39450000D03*
D12*
X152890000Y-41990000D03*
X152890000Y-44530000D03*
X152890000Y-47070000D03*
X152890000Y-49610000D03*
D13*
X152890000Y-52150000D03*
D12*
X152890000Y-54690000D03*
X152890000Y-57230000D03*
X152890000Y-59770000D03*
X152890000Y-62310000D03*
D13*
X152890000Y-64850000D03*
D12*
X152890000Y-67390000D03*
X152890000Y-69930000D03*
X152890000Y-72470000D03*
X152890000Y-75010000D03*
D13*
X152890000Y-77550000D03*
D12*
X152890000Y-80090000D03*
X152890000Y-82630000D03*
X135110000Y-82630000D03*
X135110000Y-80090000D03*
D13*
X135110000Y-77550000D03*
D12*
X135110000Y-75010000D03*
X135110000Y-72470000D03*
X135110000Y-69930000D03*
X135110000Y-67390000D03*
D13*
X135110000Y-64850000D03*
D12*
X135110000Y-62310000D03*
X135110000Y-59770000D03*
X135110000Y-57230000D03*
X135110000Y-54690000D03*
D13*
X135110000Y-52150000D03*
D12*
X135110000Y-49610000D03*
X135110000Y-47070000D03*
X135110000Y-44530000D03*
X135110000Y-41990000D03*
D13*
X135110000Y-39450000D03*
D12*
X135110000Y-36910000D03*
X135110000Y-34370000D03*
D18*
X151000000Y-86250000D03*
X155500000Y-86250000D03*
X151000000Y-92750000D03*
X155500000Y-92750000D03*
D19*
X151500000Y-103500000D03*
D18*
X151500000Y-101000000D03*
X151500000Y-98500000D03*
D20*
X144000000Y-106600000D03*
X144000000Y-95400000D03*
D18*
X137000000Y-103500000D03*
X137000000Y-98500000D03*
D21*
X145200505Y-149399495D03*
D22*
X148368343Y-152171354D03*
D21*
X152978680Y-141621320D03*
D23*
X142867053Y-146358936D03*
X149938120Y-139287868D03*
D22*
X155750538Y-144789159D03*
D23*
X144917662Y-141338478D03*
D24*
X149089592Y-145510408D03*
D21*
X146968272Y-155409903D03*
D22*
X149740131Y-152242064D03*
D21*
X139190097Y-147631728D03*
D23*
X143927713Y-157743355D03*
X136856645Y-150672287D03*
D22*
X142357936Y-144859869D03*
D23*
X138907255Y-155692745D03*
D24*
X143079185Y-151520815D03*
D21*
X151210913Y-135610913D03*
X158989087Y-143389087D03*
D22*
X161760946Y-140221249D03*
D23*
X150928070Y-143671930D03*
X148877460Y-138651472D03*
D24*
X155100000Y-139500000D03*
D23*
X155948528Y-145722540D03*
D22*
X154378751Y-132839054D03*
D21*
X117000000Y-93500000D03*
X128000000Y-93500000D03*
D22*
X127720000Y-89300000D03*
D23*
X122500000Y-99400000D03*
X117500000Y-97300000D03*
D24*
X122500000Y-93500000D03*
D23*
X127500000Y-97300000D03*
D22*
X117280000Y-89300000D03*
D21*
X117000000Y-76500000D03*
X128000000Y-76500000D03*
D22*
X127720000Y-72300000D03*
D23*
X122500000Y-82400000D03*
X117500000Y-80300000D03*
D24*
X122500000Y-76500000D03*
D23*
X127500000Y-80300000D03*
D22*
X117280000Y-72300000D03*
D21*
X117000000Y-59500000D03*
X128000000Y-59500000D03*
D22*
X127720000Y-55300000D03*
D23*
X122500000Y-65400000D03*
X117500000Y-63300000D03*
D24*
X122500000Y-59500000D03*
D23*
X127500000Y-63300000D03*
D22*
X117280000Y-55300000D03*
D21*
X117000000Y-42500000D03*
X128000000Y-42500000D03*
D22*
X127720000Y-38300000D03*
D23*
X122500000Y-48400000D03*
X117500000Y-46300000D03*
D24*
X122500000Y-42500000D03*
D23*
X127500000Y-46300000D03*
D22*
X117280000Y-38300000D03*
D21*
X128000000Y-136124356D03*
D22*
X131777307Y-137981869D03*
D21*
X133500000Y-126598076D03*
D23*
X124959103Y-133791343D03*
X129959103Y-125131089D03*
D22*
X136997307Y-128940563D03*
D23*
X125640450Y-128411216D03*
D24*
X130750000Y-131361216D03*
D21*
X131263140Y-141472432D03*
D22*
X133120653Y-137695125D03*
D21*
X121736860Y-135972432D03*
D23*
X128930127Y-144513328D03*
X120269873Y-139513328D03*
D22*
X124079347Y-132475125D03*
D23*
X123550000Y-143831982D03*
D24*
X126500000Y-138722432D03*
D21*
X130236860Y-121250000D03*
X139763140Y-126750000D03*
D22*
X141620653Y-122972693D03*
D23*
X132050000Y-129109550D03*
X128769873Y-124790897D03*
D24*
X135000000Y-124000000D03*
D23*
X137430127Y-129790897D03*
D22*
X132579347Y-117752693D03*
D21*
X99000000Y-91500000D03*
X110000000Y-91500000D03*
D22*
X109720000Y-87300000D03*
D23*
X104500000Y-97400000D03*
X99500000Y-95300000D03*
D24*
X104500000Y-91500000D03*
D23*
X109500000Y-95300000D03*
D22*
X99280000Y-87300000D03*
D21*
X99000000Y-74500000D03*
X110000000Y-74500000D03*
D22*
X109720000Y-70300000D03*
D23*
X104500000Y-80400000D03*
X99500000Y-78300000D03*
D24*
X104500000Y-74500000D03*
D23*
X109500000Y-78300000D03*
D22*
X99280000Y-70300000D03*
D21*
X99000000Y-57500000D03*
X110000000Y-57500000D03*
D22*
X109720000Y-53300000D03*
D23*
X104500000Y-63400000D03*
X99500000Y-61300000D03*
D24*
X104500000Y-57500000D03*
D23*
X109500000Y-61300000D03*
D22*
X99280000Y-53300000D03*
D21*
X99000000Y-40500000D03*
X110000000Y-40500000D03*
D22*
X109720000Y-36300000D03*
D23*
X104500000Y-46400000D03*
X99500000Y-44300000D03*
D24*
X104500000Y-40500000D03*
D23*
X109500000Y-44300000D03*
D22*
X99280000Y-36300000D03*
D21*
X108026533Y-127822962D03*
D22*
X112155891Y-128639542D03*
D21*
X110873543Y-117197777D03*
D23*
X104485425Y-126356486D03*
X107073615Y-116697228D03*
D22*
X114857962Y-118555277D03*
D23*
X103751076Y-120983337D03*
D24*
X109450038Y-122510370D03*
D21*
X112562668Y-132144244D03*
D22*
X113379249Y-128014886D03*
D21*
X101937484Y-129297234D03*
D23*
X111096193Y-135685352D03*
X101436935Y-133097162D03*
D22*
X103294983Y-125312815D03*
D23*
X105723044Y-136419701D03*
D24*
X107250076Y-130720739D03*
D21*
X106337408Y-112876495D03*
X116962592Y-115723505D03*
D22*
X117779173Y-111594147D03*
D23*
X110122968Y-119998962D03*
X105836858Y-116676423D03*
D24*
X111650000Y-114300000D03*
D23*
X115496117Y-119264613D03*
D22*
X107694907Y-108892076D03*
D21*
X81000000Y-84500000D03*
X92000000Y-84500000D03*
D22*
X91720000Y-80300000D03*
D23*
X86500000Y-90400000D03*
X81500000Y-88300000D03*
D24*
X86500000Y-84500000D03*
D23*
X91500000Y-88300000D03*
D22*
X81280000Y-80300000D03*
D21*
X81000000Y-67500000D03*
X92000000Y-67500000D03*
D22*
X91720000Y-63300000D03*
D23*
X86500000Y-73400000D03*
X81500000Y-71300000D03*
D24*
X86500000Y-67500000D03*
D23*
X91500000Y-71300000D03*
D22*
X81280000Y-63300000D03*
D21*
X81000000Y-50500000D03*
X92000000Y-50500000D03*
D22*
X91720000Y-46300000D03*
D23*
X86500000Y-56400000D03*
X81500000Y-54300000D03*
D24*
X86500000Y-50500000D03*
D23*
X91500000Y-54300000D03*
D22*
X81280000Y-46300000D03*
D21*
X81000000Y-33500000D03*
X92000000Y-33500000D03*
D22*
X91720000Y-29300000D03*
D23*
X86500000Y-39400000D03*
X81500000Y-37300000D03*
D24*
X86500000Y-33500000D03*
D23*
X91500000Y-37300000D03*
D22*
X81280000Y-29300000D03*
D21*
X86500000Y-125000000D03*
D22*
X90700000Y-124720000D03*
D21*
X86500000Y-114000000D03*
D23*
X82700000Y-124500000D03*
X82700000Y-114500000D03*
D22*
X90700000Y-114280000D03*
D23*
X80600000Y-119500000D03*
D24*
X86500000Y-119500000D03*
D21*
X92000000Y-128000000D03*
D22*
X91720000Y-123800000D03*
D21*
X81000000Y-128000000D03*
D23*
X91500000Y-131800000D03*
X81500000Y-131800000D03*
D22*
X81280000Y-123800000D03*
D23*
X86500000Y-133900000D03*
D24*
X86500000Y-128000000D03*
D21*
X81000000Y-111000000D03*
X92000000Y-111000000D03*
D22*
X91720000Y-106800000D03*
D23*
X86500000Y-116900000D03*
X81500000Y-114800000D03*
D24*
X86500000Y-111000000D03*
D23*
X91500000Y-114800000D03*
D22*
X81280000Y-106800000D03*
D21*
X63000000Y-91500000D03*
X74000000Y-91500000D03*
D22*
X73720000Y-87300000D03*
D23*
X68500000Y-97400000D03*
X63500000Y-95300000D03*
D24*
X68500000Y-91500000D03*
D23*
X73500000Y-95300000D03*
D22*
X63280000Y-87300000D03*
D21*
X63000000Y-74500000D03*
X74000000Y-74500000D03*
D22*
X73720000Y-70300000D03*
D23*
X68500000Y-80400000D03*
X63500000Y-78300000D03*
D24*
X68500000Y-74500000D03*
D23*
X73500000Y-78300000D03*
D22*
X63280000Y-70300000D03*
D21*
X63000000Y-57500000D03*
X74000000Y-57500000D03*
D22*
X73720000Y-53300000D03*
D23*
X68500000Y-63400000D03*
X63500000Y-61300000D03*
D24*
X68500000Y-57500000D03*
D23*
X73500000Y-61300000D03*
D22*
X63280000Y-53300000D03*
D21*
X63000000Y-40500000D03*
X74000000Y-40500000D03*
D22*
X73720000Y-36300000D03*
D23*
X68500000Y-46400000D03*
X63500000Y-44300000D03*
D24*
X68500000Y-40500000D03*
D23*
X73500000Y-44300000D03*
D22*
X63280000Y-36300000D03*
D21*
X63000000Y-119500000D03*
X74000000Y-119500000D03*
D22*
X73720000Y-115300000D03*
D23*
X68500000Y-125400000D03*
X63500000Y-123300000D03*
D24*
X68500000Y-119500000D03*
D23*
X73500000Y-123300000D03*
D22*
X63280000Y-115300000D03*
D21*
X45000000Y-119500000D03*
X56000000Y-119500000D03*
D22*
X55720000Y-115300000D03*
D23*
X50500000Y-125400000D03*
X45500000Y-123300000D03*
D24*
X50500000Y-119500000D03*
D23*
X55500000Y-123300000D03*
D22*
X45280000Y-115300000D03*
D21*
X45000000Y-102500000D03*
X56000000Y-102500000D03*
D22*
X55720000Y-98300000D03*
D23*
X50500000Y-108400000D03*
X45500000Y-106300000D03*
D24*
X50500000Y-102500000D03*
D23*
X55500000Y-106300000D03*
D22*
X45280000Y-98300000D03*
D21*
X45000000Y-85500000D03*
X56000000Y-85500000D03*
D22*
X55720000Y-81300000D03*
D23*
X50500000Y-91400000D03*
X45500000Y-89300000D03*
D24*
X50500000Y-85500000D03*
D23*
X55500000Y-89300000D03*
D22*
X45280000Y-81300000D03*
D21*
X45000000Y-68500000D03*
X56000000Y-68500000D03*
D22*
X55720000Y-64300000D03*
D23*
X50500000Y-74400000D03*
X45500000Y-72300000D03*
D24*
X50500000Y-68500000D03*
D23*
X55500000Y-72300000D03*
D22*
X45280000Y-64300000D03*
D21*
X45000000Y-51500000D03*
X56000000Y-51500000D03*
D22*
X55720000Y-47300000D03*
D23*
X50500000Y-57400000D03*
X45500000Y-55300000D03*
D24*
X50500000Y-51500000D03*
D23*
X55500000Y-55300000D03*
D22*
X45280000Y-47300000D03*
D21*
X27000000Y-119500000D03*
X38000000Y-119500000D03*
D22*
X37720000Y-115300000D03*
D23*
X32500000Y-125400000D03*
X27500000Y-123300000D03*
D24*
X32500000Y-119500000D03*
D23*
X37500000Y-123300000D03*
D22*
X27280000Y-115300000D03*
D21*
X27000000Y-102500000D03*
X38000000Y-102500000D03*
D22*
X37720000Y-98300000D03*
D23*
X32500000Y-108400000D03*
X27500000Y-106300000D03*
D24*
X32500000Y-102500000D03*
D23*
X37500000Y-106300000D03*
D22*
X27280000Y-98300000D03*
D21*
X27000000Y-85500000D03*
X38000000Y-85500000D03*
D22*
X37720000Y-81300000D03*
D23*
X32500000Y-91400000D03*
X27500000Y-89300000D03*
D24*
X32500000Y-85500000D03*
D23*
X37500000Y-89300000D03*
D22*
X27280000Y-81300000D03*
D21*
X27000000Y-68500000D03*
X38000000Y-68500000D03*
D22*
X37720000Y-64300000D03*
D23*
X32500000Y-74400000D03*
X27500000Y-72300000D03*
D24*
X32500000Y-68500000D03*
D23*
X37500000Y-72300000D03*
D22*
X27280000Y-64300000D03*
D21*
X27000000Y-51500000D03*
X38000000Y-51500000D03*
D22*
X37720000Y-47300000D03*
D23*
X32500000Y-57400000D03*
X27500000Y-55300000D03*
D24*
X32500000Y-51500000D03*
D23*
X37500000Y-55300000D03*
D22*
X27280000Y-47300000D03*
D12*
X147780000Y-90210000D03*
X147780000Y-92750000D03*
X145240000Y-90210000D03*
X145240000Y-92750000D03*
X142700000Y-90210000D03*
X142700000Y-92750000D03*
X140160000Y-90210000D03*
D13*
X140160000Y-92750000D03*
D25*
X147304000Y-114290500D03*
X146204000Y-118890500D03*
D26*
X148904000Y-116590500D03*
X155904000Y-116590500D03*
D25*
X151300000Y-114300000D03*
D26*
X155900000Y-112000000D03*
X148900000Y-112000000D03*
D25*
X154300000Y-114300000D03*
X146200000Y-109700000D03*
G36*
G01*
X140401753Y-140089331D02*
X140401753Y-140089331D01*
G75*
G02*
X140254079Y-138967639I487009J634683D01*
G01*
X140254079Y-138967639D01*
G75*
G02*
X141375771Y-138819965I634683J-487009D01*
G01*
X141375771Y-138819965D01*
G75*
G02*
X141523445Y-139941657I-487009J-634683D01*
G01*
X141523445Y-139941657D01*
G75*
G02*
X140401753Y-140089331I-634683J487009D01*
G01*
G37*
D27*
G36*
X136397674Y-146621692D02*
G01*
X135128308Y-145647674D01*
X136102326Y-144378308D01*
X137371692Y-145352326D01*
X136397674Y-146621692D01*
G37*
G36*
G01*
X148401753Y-129589331D02*
X148401753Y-129589331D01*
G75*
G02*
X148254079Y-128467639I487009J634683D01*
G01*
X148254079Y-128467639D01*
G75*
G02*
X149375771Y-128319965I634683J-487009D01*
G01*
X149375771Y-128319965D01*
G75*
G02*
X149523445Y-129441657I-487009J-634683D01*
G01*
X149523445Y-129441657D01*
G75*
G02*
X148401753Y-129589331I-634683J487009D01*
G01*
G37*
G36*
X144397674Y-136121692D02*
G01*
X143128308Y-135147674D01*
X144102326Y-133878308D01*
X145371692Y-134852326D01*
X144397674Y-136121692D01*
G37*
D28*
X113500000Y-90880000D03*
D29*
X113500000Y-98500000D03*
D28*
X121380000Y-85000000D03*
D29*
X129000000Y-85000000D03*
D28*
X121380000Y-68000000D03*
D29*
X129000000Y-68000000D03*
D28*
X121380000Y-51000000D03*
D29*
X129000000Y-51000000D03*
G36*
G01*
X138401753Y-138589331D02*
X138401753Y-138589331D01*
G75*
G02*
X138254079Y-137467639I487009J634683D01*
G01*
X138254079Y-137467639D01*
G75*
G02*
X139375771Y-137319965I634683J-487009D01*
G01*
X139375771Y-137319965D01*
G75*
G02*
X139523445Y-138441657I-487009J-634683D01*
G01*
X139523445Y-138441657D01*
G75*
G02*
X138401753Y-138589331I-634683J487009D01*
G01*
G37*
D27*
G36*
X134397674Y-145121692D02*
G01*
X133128308Y-144147674D01*
X134102326Y-142878308D01*
X135371692Y-143852326D01*
X134397674Y-145121692D01*
G37*
G36*
G01*
X146401753Y-128089331D02*
X146401753Y-128089331D01*
G75*
G02*
X146254079Y-126967639I487009J634683D01*
G01*
X146254079Y-126967639D01*
G75*
G02*
X147375771Y-126819965I634683J-487009D01*
G01*
X147375771Y-126819965D01*
G75*
G02*
X147523445Y-127941657I-487009J-634683D01*
G01*
X147523445Y-127941657D01*
G75*
G02*
X146401753Y-128089331I-634683J487009D01*
G01*
G37*
G36*
X142397674Y-134621692D02*
G01*
X141128308Y-133647674D01*
X142102326Y-132378308D01*
X143371692Y-133352326D01*
X142397674Y-134621692D01*
G37*
D28*
X113500000Y-80000000D03*
D29*
X113500000Y-87620000D03*
D28*
X113500000Y-69000000D03*
D29*
X113500000Y-76620000D03*
D28*
X113750000Y-56380000D03*
D29*
X113750000Y-64000000D03*
D28*
X113500000Y-39380000D03*
D29*
X113500000Y-47000000D03*
G36*
G01*
X119609901Y-127949142D02*
X119609901Y-127949142D01*
G75*
G02*
X119176944Y-126903891I306147J739104D01*
G01*
X119176944Y-126903891D01*
G75*
G02*
X120222195Y-126470934I739104J-306147D01*
G01*
X120222195Y-126470934D01*
G75*
G02*
X120655152Y-127516185I-306147J-739104D01*
G01*
X120655152Y-127516185D01*
G75*
G02*
X119609901Y-127949142I-739104J306147D01*
G01*
G37*
D27*
G36*
X117432957Y-135295250D02*
G01*
X115954750Y-134682957D01*
X116567043Y-133204750D01*
X118045250Y-133817043D01*
X117432957Y-135295250D01*
G37*
G36*
G01*
X124609901Y-115949142D02*
X124609901Y-115949142D01*
G75*
G02*
X124176944Y-114903891I306147J739104D01*
G01*
X124176944Y-114903891D01*
G75*
G02*
X125222195Y-114470934I739104J-306147D01*
G01*
X125222195Y-114470934D01*
G75*
G02*
X125655152Y-115516185I-306147J-739104D01*
G01*
X125655152Y-115516185D01*
G75*
G02*
X124609901Y-115949142I-739104J306147D01*
G01*
G37*
G36*
X122432957Y-123295250D02*
G01*
X120954750Y-122682957D01*
X121567043Y-121204750D01*
X123045250Y-121817043D01*
X122432957Y-123295250D01*
G37*
D28*
X95500000Y-83380000D03*
D29*
X95500000Y-91000000D03*
D28*
X95500000Y-66380000D03*
D29*
X95500000Y-74000000D03*
D28*
X95500000Y-49380000D03*
D29*
X95500000Y-57000000D03*
D28*
X95500000Y-32380000D03*
D29*
X95500000Y-40000000D03*
G36*
G01*
X97890189Y-122238346D02*
X97890189Y-122238346D01*
G75*
G02*
X97201454Y-121340769I104421J793156D01*
G01*
X97201454Y-121340769D01*
G75*
G02*
X98099031Y-120652034I793156J-104421D01*
G01*
X98099031Y-120652034D01*
G75*
G02*
X98787766Y-121549611I-104421J-793156D01*
G01*
X98787766Y-121549611D01*
G75*
G02*
X97890189Y-122238346I-793156J104421D01*
G01*
G37*
D27*
G36*
X97688735Y-129897577D02*
G01*
X96102423Y-129688735D01*
X96311265Y-128102423D01*
X97897577Y-128311265D01*
X97688735Y-129897577D01*
G37*
G36*
G01*
X99640189Y-109238346D02*
X99640189Y-109238346D01*
G75*
G02*
X98951454Y-108340769I104421J793156D01*
G01*
X98951454Y-108340769D01*
G75*
G02*
X99849031Y-107652034I793156J-104421D01*
G01*
X99849031Y-107652034D01*
G75*
G02*
X100537766Y-108549611I-104421J-793156D01*
G01*
X100537766Y-108549611D01*
G75*
G02*
X99640189Y-109238346I-793156J104421D01*
G01*
G37*
G36*
X99438735Y-116897577D02*
G01*
X97852423Y-116688735D01*
X98061265Y-115102423D01*
X99647577Y-115311265D01*
X99438735Y-116897577D01*
G37*
D28*
X67380000Y-83000000D03*
D29*
X75000000Y-83000000D03*
D28*
X77500000Y-73130000D03*
D29*
X77500000Y-80750000D03*
D28*
X77500000Y-56380000D03*
D29*
X77500000Y-64000000D03*
D28*
X77500000Y-39380000D03*
D29*
X77500000Y-47000000D03*
D28*
X77500000Y-115500000D03*
D29*
X77500000Y-123120000D03*
D28*
X59500000Y-115500000D03*
D29*
X59500000Y-123120000D03*
D28*
X49630000Y-111000000D03*
D29*
X57250000Y-111000000D03*
D28*
X59500000Y-84380000D03*
D29*
X59500000Y-92000000D03*
D28*
X59250000Y-67380000D03*
D29*
X59250000Y-75000000D03*
D28*
X59500000Y-50380000D03*
D29*
X59500000Y-58000000D03*
D28*
X41500000Y-115630000D03*
D29*
X41500000Y-123250000D03*
D28*
X41500000Y-101380000D03*
D29*
X41500000Y-109000000D03*
D28*
X41500000Y-84380000D03*
D29*
X41500000Y-92000000D03*
D28*
X41500000Y-67380000D03*
D29*
X41500000Y-75000000D03*
D28*
X41500000Y-50380000D03*
D29*
X41500000Y-58000000D03*
M02*
